<?xml version="1.0" standalone="no"?>
<!DOCTYPE svg PUBLIC "-//W3C//DTD SVG 1.1//EN" "http://www.w3.org/Graphics/SVG/1.1/DTD/svg11.dtd" >
<svg>
<metadata>
Created by FontForge 20090914 at Sun Apr 18 07:58:25 2021
 By www-data
Copyright &#194;&#169; 2016 by Radomir Tinkov. All rights reserved.
</metadata>
<defs>
<font id="Gilroy-Regular" horiz-adv-x="636" >
  <font-face 
    font-family="Gilroy"
    font-weight="400"
    font-stretch="normal"
    units-per-em="1000"
    panose-1="0 0 5 0 0 0 0 0 0 0"
    ascent="800"
    descent="-200"
    x-height="500"
    cap-height="700"
    bbox="-317 -240.002 1009 960"
    underline-thickness="50"
    underline-position="-150"
    unicode-range="U+0020-U+FB02"
  />
<missing-glyph horiz-adv-x="500" 
d="M410 800v-1000h-317v1000h317zM333 733h-165v-33h65v-37h-66v-33h166v33h-66v37h66v33zM267 604h-100v-104h166v34h-66v70zM233 570v-36h-33v36h33zM333 473h-166v-33h66v-37h-66v-33h100v70h66v33zM333 413h-33v-66h-133v-34h166v100zM333 291h-100v-56h34v23h33v-47
h-100v80h-33v-113h166v113zM333 118h-166v-113h166v113zM300 85v-47h-100v47h100zM333 -18h-166v-33h70l-70 -47v-33h166v33h-102l70 47h32v33z" />
    <glyph glyph-name="fi" unicode="fi" horiz-adv-x="516" 
d="M446 500v-500h-66v436h-204v-436h-66v436h-85v64h85v20c0 128 70 192 210 192c28 0 60 -4 96 -12v-60c-31.333 5.33301 -63.333 8 -96 8c-50 0 -86.5 -9.66699 -109.5 -29s-34.5 -52.333 -34.5 -99v-20h270z" />
    <glyph glyph-name="fl" unicode="fl" horiz-adv-x="516" 
d="M320 712c38.667 0 80.666 -4.00098 125.999 -12.001v-700h-66v649c-21.333 2 -41.333 3 -60 3c-49.333 0 -85.666 -10.167 -108.999 -30.5s-35 -54.166 -35 -101.499v-20h114v-64h-114v-436h-66v436h-85v64h85v20c0 128 70 192 210 192z" />
    <glyph glyph-name="f_f" unicode="ff" horiz-adv-x="590" 
d="M590 658c-48.667 4 -84.8301 -4.33301 -108.497 -25s-35.5 -55 -35.5 -103v-30h144v-64h-144v-436h-66v436h-204v-436h-66v436h-85v64h85v20c0 65.333 18.167 114.833 54.5 148.5s88.166 48.167 155.499 43.5v-64c-48.667 4 -84.834 -4.33301 -108.501 -25
s-35.5 -55 -35.5 -103v-20h204v30c0 65.333 18.167 114.833 54.5 148.5s88.166 48.167 155.499 43.5v-64z" />
    <glyph glyph-name="f_f_i" unicode="ffi" horiz-adv-x="786" 
d="M716 500l0.00195312 -500h-66v436h-204v-436h-66v436h-204v-436h-66v436h-85v64h85v20c0 65.333 18.167 114.833 54.5 148.5s88.166 48.167 155.499 43.5v-64c-48.667 4 -84.834 -4.33301 -108.501 -25s-35.5 -55 -35.5 -103v-20h204v30c0 128 70 192 210 192
c28 0 60 -4 96 -12v-60c-31.333 5.33301 -63.333 8 -96 8c-50 0 -86.5 -9.66699 -109.5 -29s-34.5 -52.333 -34.5 -99v-30h270z" />
    <glyph glyph-name="f_f_l" unicode="ffl" horiz-adv-x="786" 
d="M590 722c38.667 0 80.668 -4.00098 126.001 -12.001v-710h-66v659c-20.667 2 -40.667 3 -60 3c-49.333 0 -85.666 -10.167 -108.999 -30.5s-35 -54.166 -35 -101.499v-30h114v-64h-114v-436h-66v436h-204v-436h-66v436h-85v64h85v20c0 65.333 18.167 114.833 54.5 148.5
s88.166 48.167 155.499 43.5v-64c-48.667 4 -84.834 -4.33301 -108.501 -25s-35.5 -55 -35.5 -103v-20h204v30c0 128 70 192 210 192z" />
    <glyph glyph-name=".notdef" horiz-adv-x="500" 
d="M410 800v-1000h-317v1000h317zM333 733h-165v-33h65v-37h-66v-33h166v33h-66v37h66v33zM267 604h-100v-104h166v34h-66v70zM233 570v-36h-33v36h33zM333 473h-166v-33h66v-37h-66v-33h100v70h66v33zM333 413h-33v-66h-133v-34h166v100zM333 291h-100v-56h34v23h33v-47
h-100v80h-33v-113h166v113zM333 118h-166v-113h166v113zM300 85v-47h-100v47h100zM333 -18h-166v-33h70l-70 -47v-33h166v33h-102l70 47h32v33z" />
    <glyph glyph-name="space" unicode=" " horiz-adv-x="250" 
 />
    <glyph glyph-name="exclam" unicode="!" horiz-adv-x="230" 
d="M90 190l-15 310v200h80v-200l-15 -310h-50zM115 -10c-15.333 0 -28.333 5.33301 -39 16s-16 23.667 -16 39s5.33301 28.333 16 39s23.667 16 39 16s28.333 -5.33301 39 -16s16 -23.667 16 -39s-5.33301 -28.333 -16 -39s-23.667 -16 -39 -16z" />
    <glyph glyph-name="quotedbl" unicode="&#x22;" horiz-adv-x="310" 
d="M60 500l-10 200h70l-10 -200h-50zM200 500l-10 200h70l-10 -200h-50z" />
    <glyph glyph-name="numbersign" unicode="#" horiz-adv-x="599" 
d="M559 410h-119l-20 -120h120l-10 -60h-120l-30 -180h-64l30 180h-132l-30 -180h-64l30 180h-120l10 60h120l20 120h-121l10 60h121l30 180h64l-30 -180h132l30 180h64l-30 -180h119zM356 290l20 120h-132l-20 -120h132z" />
    <glyph glyph-name="dollar" unicode="$" horiz-adv-x="550" 
d="M510 182c0 -52 -17.668 -95.502 -53.001 -130.502s-81 -55.5 -137 -61.5v-90h-60v89c-54 3.33301 -100 17.666 -138 42.999s-65.333 59.333 -82 102l60 35c24.667 -68 78 -105.333 160 -112v276c-30 10.667 -54.167 20.334 -72.5 29.001s-37.166 20.334 -56.499 35.001
s-33.5 32.667 -42.5 54s-13.5 46.333 -13.5 75c0 52 17.5 94.5 52.5 127.5s79.167 52.167 132.5 57.5v89h60v-90c39.333 -4.66699 74.333 -18 105 -40s54 -51.667 70 -89l-59 -33c-21.333 53.333 -60 84.333 -116 93v-260c29.333 -10 53.666 -19.667 72.999 -29
s38.833 -21.666 58.5 -36.999s34.334 -34 44.001 -56s14.5 -47.667 14.5 -77zM144.999 525.998c0 -30.667 9.33301 -55 28 -73s47.667 -34.667 87 -50v239c-34.667 -4 -62.5 -16.167 -83.5 -36.5s-31.5 -46.833 -31.5 -79.5zM319.999 57.998c37.333 5.33301 66.667 19 88 41
s32 49.667 32 83c0 32.667 -10 58.5 -30 77.5s-50 36.5 -90 52.5v-254z" />
    <glyph glyph-name="percent" unicode="%" horiz-adv-x="709" 
d="M213 412c-43.333 0 -79.6641 14.5 -108.997 43.5s-44 64.5 -44 106.5s14.667 77.5 44 106.5s65.666 43.5 108.999 43.5s79.666 -14.5 108.999 -43.5s44 -64.5 44 -106.5s-14.333 -77.5 -43 -106.5s-65.334 -43.5 -110.001 -43.5zM213.002 472c26 0 47.333 8.66699 64 26
s25 38.666 25 63.999s-8.33301 46.666 -25 63.999s-38 26 -64 26s-47.333 -8.66699 -64 -26s-25 -38.666 -25 -63.999s8.33301 -46.666 25 -63.999s38 -26 64 -26zM95.002 95l469 527l43 -24l-470 -527zM496.002 -12c-43.333 0 -79.666 14.5 -108.999 43.5
s-44 64.5 -44 106.5s14.667 77.5 44 106.5s65.666 43.5 108.999 43.5s79.666 -14.5 108.999 -43.5s44 -64.5 44 -106.5s-14.667 -77.5 -44 -106.5s-65.666 -43.5 -108.999 -43.5zM496.002 48c26 0 47.333 8.66699 64 26s25 38.666 25 63.999s-8.33301 46.666 -25 63.999
s-38 26 -64 26s-47.333 -8.66699 -64 -26s-25 -38.666 -25 -63.999s8.33301 -46.666 25 -63.999s38 -26 64 -26z" />
    <glyph glyph-name="ampersand" unicode="&#x26;" horiz-adv-x="657" 
d="M632 23l-62 -35.001l-74 79c-52.667 -52.667 -121.334 -79 -206.001 -79c-68.667 0 -124.167 17.833 -166.5 53.5s-63.5 83.834 -63.5 144.501c0 44 11.333 83.667 34 119s56.334 63.333 101.001 84c-34.667 39.333 -52 83.333 -52 132c0 58 20 104.333 60 139
s86.667 52 140 52c44.667 0 85.5 -12.5 122.5 -37.5s63.5 -58.833 79.5 -101.5l-59 -34c-10 32.667 -27.833 58.334 -53.5 77.001s-55.167 28 -88.5 28c-36 0 -66.833 -11 -92.5 -33s-38.5 -50.667 -38.5 -86c0 -23.333 5.5 -44.333 16.5 -63s27.167 -39.334 48.5 -62.001
l211 -225c19.333 38 32 82.333 38 133l62 -36c-8.66699 -58 -25.667 -107.667 -51 -149zM288 55.999c66.667 0 120 20.668 160 62.001l-206 219c-39.333 -14.667 -67.833 -35.5 -85.5 -62.5s-26.5 -55.833 -26.5 -86.5c0 -40.667 14.167 -72.834 42.5 -96.501
s66.833 -35.5 115.5 -35.5z" />
    <glyph glyph-name="quotesingle" unicode="'" horiz-adv-x="170" 
d="M60 500l-10 200h70l-10 -200h-50z" />
    <glyph glyph-name="parenleft" unicode="(" horiz-adv-x="266" 
d="M170 -100c-73.333 146.667 -110 296.667 -110 450s36.667 303.333 110 450h66c-73.333 -146.667 -110 -296.667 -110 -450s36.667 -303.333 110 -450h-66z" />
    <glyph glyph-name="parenright" unicode=")" horiz-adv-x="266" 
d="M96 -100h-66c73.333 146.667 110 296.667 110 450s-36.667 303.333 -110 450h66c73.333 -146.667 110 -296.667 110 -450s-36.667 -303.333 -110 -450z" />
    <glyph glyph-name="asterisk" unicode="*" horiz-adv-x="392" 
d="M332 610v-56l-91 3l52 -75l-51 -30l-46 81l-46 -81l-51 30l52 75l-91 -3v56l91 -3l-52 75l51 30l46 -81l46 81l51 -30l-52 -75z" />
    <glyph glyph-name="plus" unicode="+" horiz-adv-x="540" 
d="M480 382v-64h-178v-178h-64v178h-178v64h178v178h64v-178h178z" />
    <glyph glyph-name="comma" unicode="," horiz-adv-x="240" 
d="M180 85l-60 -225h-60l40 225h80z" />
    <glyph glyph-name="hyphen" unicode="-" horiz-adv-x="520" 
d="M80 277v64h360v-64h-360z" />
    <glyph glyph-name="period" unicode="." horiz-adv-x="230" 
d="M115 -10c-15.333 0 -28.333 5.33301 -39 16s-16 23.667 -16 39s5.33301 28.333 16 39s23.667 16 39 16s28.333 -5.33301 39 -16s16 -23.667 16 -39s-5.33301 -28.333 -16 -39s-23.667 -16 -39 -16z" />
    <glyph glyph-name="slash" unicode="/" horiz-adv-x="530" 
d="M90 -100h-50l400 900h50z" />
    <glyph glyph-name="zero" unicode="0" horiz-adv-x="630" 
d="M315 -12c-84 0 -149.167 32.833 -195.5 98.5s-69.5 153.5 -69.5 263.5s23.167 197.833 69.5 263.5s111.5 98.5 195.5 98.5s149.167 -32.833 195.5 -98.5s69.5 -153.5 69.5 -263.5s-23.167 -197.833 -69.5 -263.5s-111.5 -98.5 -195.5 -98.5zM315 56
c61.333 0 109.166 25.667 143.499 77s51.5 123.666 51.5 216.999s-17.167 165.666 -51.5 216.999s-82.166 77 -143.499 77s-109.166 -25.667 -143.499 -77s-51.5 -123.666 -51.5 -216.999s17.167 -165.666 51.5 -216.999s82.166 -77 143.499 -77z" />
    <glyph glyph-name="one" unicode="1" horiz-adv-x="340" 
d="M200 700h60v-700h-70v623l-157 -47l-18 60z" />
    <glyph glyph-name="two" unicode="2" horiz-adv-x="525" 
d="M40 0l0.000976562 63.001l252 254c72 72 108 133.667 108 185c0 44.667 -13.833 79.5 -41.5 104.5s-60.834 37.5 -99.501 37.5c-72 0 -124.333 -33 -157 -99l-59 35c22 43.333 52 76.166 90 98.499s80 33.5 126 33.5c56 0 105.167 -18.833 147.5 -56.5
s63.5 -88.834 63.5 -153.501c0 -40.667 -11.333 -79.667 -34 -117s-54.667 -76.666 -96 -117.999l-200 -199h345v-68h-445z" />
    <glyph glyph-name="three" unicode="3" horiz-adv-x="530" 
d="M297 409c56 -7.33301 102.17 -28.833 138.503 -64.5s54.5 -82.834 54.5 -141.501c0 -66.667 -22.833 -119.167 -68.5 -157.5s-101.167 -57.5 -166.5 -57.5c-52 0 -98.333 12 -139 36s-69.334 58.333 -86.001 103l58 34c11.333 -34.667 31.666 -60.834 60.999 -78.501
s64.666 -26.5 105.999 -26.5c48 0 87.5 12.833 118.5 38.5s46.5 61.834 46.5 108.501s-15.5 82.834 -46.5 108.501s-70.5 38.5 -118.5 38.5v1l-1 -1h-19l-30 46l174 238h-329v66h410v-66z" />
    <glyph glyph-name="four" unicode="4" horiz-adv-x="580" 
d="M555 206v-66h-90v-140h-70v140h-370v66l260 494h77l-260 -494h293v214h70v-214h90z" />
    <glyph glyph-name="five" unicode="5" horiz-adv-x="540" 
d="M265 418c65.333 0 120.833 -19.1689 166.5 -57.502s68.5 -90.833 68.5 -157.5s-22.833 -119.167 -68.5 -157.5s-101.167 -57.5 -166.5 -57.5c-52.667 0 -99.667 12.833 -141 38.5s-69.333 62.5 -84 110.5l59 34c10 -37.333 29.833 -65.833 59.5 -85.5
s65.167 -29.5 106.5 -29.5c48 0 87.5 12.833 118.5 38.5s46.5 61.834 46.5 108.501s-15.5 82.834 -46.5 108.501s-70.5 38.5 -118.5 38.5h-190l25 350h375v-66h-313l-15 -216h118z" />
    <glyph glyph-name="six" unicode="6" horiz-adv-x="530" 
d="M265 450c68.667 0 125 -21.501 169 -64.501s66 -98.5 66 -166.5s-22 -123.5 -66 -166.5s-100.333 -64.5 -169 -64.5s-125 21.5 -169 64.5s-66 98.5 -66 166.5c0 52.667 14.333 99.334 43 140.001l229 341h79l-172 -256c18 4 36.667 6 56 6zM265 55.999
c49.333 0 89.166 15 119.499 45s45.5 69.333 45.5 118s-15.167 88 -45.5 118s-70.166 45 -119.499 45s-89.166 -15 -119.499 -45s-45.5 -69.333 -45.5 -118s15.167 -88 45.5 -118s70.166 -45 119.499 -45z" />
    <glyph glyph-name="seven" unicode="7" horiz-adv-x="490" 
d="M20 700h430v-66l-264 -634h-73l264 634h-357v66z" />
    <glyph glyph-name="eight" unicode="8" horiz-adv-x="548" 
d="M392 361c35.333 -16.667 63.502 -39.834 84.502 -69.501s31.5 -63.5 31.5 -101.5c0 -63.333 -22.333 -112.833 -67 -148.5s-100.334 -53.5 -167.001 -53.5s-122.334 17.833 -167.001 53.5s-67 85.167 -67 148.5c0 38 10.5 71.833 31.5 101.5s49.167 52.834 84.5 69.501
c-62 35.333 -93 87.666 -93 156.999c0 62.667 20.833 110.667 62.5 144s91.167 50 148.5 50s106.833 -16.667 148.5 -50s62.5 -81.333 62.5 -144c0 -69.333 -31 -121.666 -93 -156.999zM274.002 644c-40 0 -73.502 -10.333 -100.502 -31s-40.5 -52.334 -40.5 -95.001
c0 -40 13.833 -71 41.5 -93s60.834 -33 99.501 -33s71.834 11 99.501 33s41.5 53 41.5 93c0 42.667 -13.5 74.334 -40.5 95.001s-60.5 31 -100.5 31zM274 56c49.333 0 89 11.5 119 34.5s45 56.167 45 99.5s-15 76.5 -45 99.5s-69.667 34.5 -119 34.5s-89 -11.5 -119 -34.5
s-45 -56.167 -45 -99.5s15 -76.5 45 -99.5s69.667 -34.5 119 -34.5z" />
    <glyph glyph-name="nine" unicode="9" horiz-adv-x="530" 
d="M500 481c0 -52.667 -14.333 -99.333 -43 -140l-229 -341h-79l172 256c-18 -4 -36.667 -6 -56 -6c-68.667 0 -125 21.5 -169 64.5s-66 98.5 -66 166.5s22 123.5 66 166.5s100.333 64.5 169 64.5s125 -21.5 169 -64.5s66 -98.5 66 -166.5zM100 481.001
c0 -48.667 15.167 -88 45.5 -118s70.166 -45 119.499 -45s89.166 15 119.499 45s45.5 69.333 45.5 118s-15.167 88 -45.5 118s-70.166 45 -119.499 45s-89.166 -15 -119.499 -45s-45.5 -69.333 -45.5 -118z" />
    <glyph glyph-name="colon" unicode=":" horiz-adv-x="230" 
d="M115 400c-15.333 0 -28.333 5.33301 -39 16s-16 23.667 -16 39s5.33301 28.333 16 39s23.667 16 39 16s28.333 -5.33301 39 -16s16 -23.667 16 -39s-5.33301 -28.333 -16 -39s-23.667 -16 -39 -16zM115 -10c-15.333 0 -28.333 5.33301 -39 16s-16 23.667 -16 39
s5.33301 28.333 16 39s23.667 16 39 16s28.333 -5.33301 39 -16s16 -23.667 16 -39s-5.33301 -28.333 -16 -39s-23.667 -16 -39 -16z" />
    <glyph glyph-name="semicolon" unicode=";" horiz-adv-x="245" 
d="M130 400c-15.333 0 -28.333 5.33301 -39 16s-16 23.667 -16 39s5.33301 28.333 16 39s23.667 16 39 16s28.333 -5.33301 39 -16s16 -23.667 16 -39s-5.33301 -28.333 -16 -39s-23.667 -16 -39 -16zM180 85l-60 -225h-60l40 225h80z" />
    <glyph glyph-name="less" unicode="&#x3c;" horiz-adv-x="520" 
d="M460 560v-74l-325 -136l325 -136v-74l-400 175v70z" />
    <glyph glyph-name="equal" unicode="=" horiz-adv-x="540" 
d="M60 418v64h420v-64h-420zM60 218v64h420v-64h-420z" />
    <glyph glyph-name="greater" unicode="&#x3e;" horiz-adv-x="520" 
d="M60 560l400 -175v-70l-400 -175v74l325 136l-325 136v74z" />
    <glyph glyph-name="question" unicode="?" horiz-adv-x="532" 
d="M210 190c0 32.667 6.66699 62.501 20 89.501s29.333 49.833 48 68.5l56 54c18.667 17.333 34.667 36.5 48 57.5s20 43.5 20 67.5c0 38.667 -13.167 67.834 -39.5 87.501s-60.166 29.5 -101.499 29.5c-82 0 -132.667 -33.667 -152 -101l-59 33
c15.333 44.667 42.166 78.5 80.499 101.5s81.833 34.5 130.5 34.5c58.667 0 108.5 -16.167 149.5 -48.5s61.5 -77.833 61.5 -136.5c0 -28.667 -6.66699 -55.334 -20 -80.001s-29.333 -46.167 -48 -64.5l-56 -54.5c-18.667 -18 -34.667 -38.833 -48 -62.5
s-20 -48.834 -20 -75.501h-70zM245 -9.99902c-15.333 0 -28.333 5.33301 -39 16s-16 23.667 -16 39s5.33301 28.333 16 39s23.667 16 39 16s28.333 -5.33301 39 -16s16 -23.667 16 -39s-5.33301 -28.333 -16 -39s-23.667 -16 -39 -16z" />
    <glyph glyph-name="at" unicode="@" horiz-adv-x="794" 
d="M404 612c70.667 0 133.333 -17.168 188 -51.501s95.334 -77.166 122.001 -128.499s40 -105.333 40 -162c0 -70.667 -14.333 -123.667 -43 -159s-62.334 -53 -101.001 -53c-28 0 -52 7.16699 -72 21.5s-33.333 35.833 -40 64.5c-28.667 -36 -65.667 -54 -111 -54
c-46 0 -84.5 15.333 -115.5 46s-46.5 68.667 -46.5 114s15.5 83.333 46.5 114s69.5 46 115.5 46c42.667 0 78 -16 106 -48v41h62v-216c0 -64 21.667 -96 65 -96c29.333 0 54 14.5 74 43.5s30 74.167 30 135.5c0 89.333 -30.833 164 -92.5 224s-137.5 90 -227.5 90
c-92.667 0 -171.5 -32 -236.5 -96s-97.5 -143.333 -97.5 -238c0 -96.667 33.333 -176.5 100 -239.5s150.667 -94.5 252 -94.5c67.333 0 125.333 9.66699 174 29v-30c-50 -18 -108 -27 -174 -27c-109.333 0 -200.333 34.167 -273 102.5s-109 154.833 -109 259.5
c0 100.667 34.833 186.167 104.5 256.5s156.167 105.5 259.5 105.5zM390.999 149.999c28.667 0 52.834 9.16699 72.501 27.5s29.5 42.5 29.5 72.5s-9.83301 54.167 -29.5 72.5s-43.834 27.5 -72.501 27.5s-53.167 -9.16699 -73.5 -27.5s-30.5 -42.5 -30.5 -72.5
s10.167 -54.167 30.5 -72.5s44.833 -27.5 73.5 -27.5z" />
    <glyph glyph-name="A" unicode="A" horiz-adv-x="630" 
d="M546 0l-65 172h-332l-65 -172h-74l269 700h72l269 -700h-74zM174 238h282l-141 375z" />
    <glyph glyph-name="B" unicode="B" horiz-adv-x="620" 
d="M468 363c34 -14.667 61.167 -36.833 81.5 -66.5s30.5 -63.5 30.5 -101.5c0 -54 -19 -100 -57 -138s-84 -57 -138 -57h-305v700h282c52 0 96.333 -18.5 133 -55.5s55 -81.167 55 -132.5c0 -65.333 -27.333 -115 -82 -149zM362 634.001h-212v-244h212
c32.667 0 60.5 11.833 83.5 35.5s34.5 52.5 34.5 86.5c0 33.333 -11.5 62 -34.5 86s-50.833 36 -83.5 36zM385 66.001c34.667 0 64.167 12.501 88.5 37.501s36.5 55.5 36.5 91.5c0 35.333 -12.167 65.666 -36.5 90.999s-53.833 38 -88.5 38h-235v-258h235z" />
    <glyph glyph-name="C" unicode="C" horiz-adv-x="745" 
d="M407 -12c-106 0 -193.667 35.002 -263 105.002s-104 155.667 -104 257s34.667 187 104 257s157 105 263 105c64.667 0 124 -15.5 178 -46.5s95.667 -72.833 125 -125.5l-62 -36c-22 42.667 -54.667 76.667 -98 102s-91 38 -143 38
c-87.333 0 -158.666 -28.333 -213.999 -85s-83 -126.334 -83 -209.001s27.667 -152.334 83 -209.001s126.666 -85 213.999 -85c52 0 99.667 12.667 143 38s76 59.333 98 102l62 -35c-28.667 -52.667 -70.167 -94.667 -124.5 -126s-113.833 -47 -178.5 -47z" />
    <glyph glyph-name="D" unicode="D" horiz-adv-x="720" 
d="M350 700c95.333 0 174.166 -33.833 236.499 -101.5s93.5 -150.5 93.5 -248.5s-31.167 -180.833 -93.5 -248.5s-141.166 -101.5 -236.499 -101.5h-270v700h270zM350 66c76.667 0 139.5 27.333 188.5 82s73.5 122 73.5 202s-24.5 147.333 -73.5 202s-111.833 82 -188.5 82
h-200v-568h200z" />
    <glyph glyph-name="E" unicode="E" horiz-adv-x="530" 
d="M150 66h340v-66h-410v700h405v-66h-335v-248h310v-66h-310v-254z" />
    <glyph glyph-name="F" unicode="F" horiz-adv-x="515" 
d="M475 634h-325v-258h310v-66h-310v-310h-70v700h395v-66z" />
    <glyph glyph-name="G" unicode="G" horiz-adv-x="789" 
d="M749 333v-35.9971c0 -86.667 -31 -159.834 -93 -219.501s-145 -89.5 -249 -89.5c-106 0 -193.667 35 -263 105s-104 155.667 -104 257s34.667 187 104 257s157 105 263 105c64.667 0 124 -15.667 178 -47s95.667 -73 125 -125l-62 -36c-22 42.667 -54.667 76.667 -98 102
s-91 38 -143 38c-87.333 0 -158.666 -28.333 -213.999 -85s-83 -126.334 -83 -209.001s27.667 -152.334 83 -209.001s126.666 -85 213.999 -85c78.667 0 141.667 19.833 189 59.5s74.333 90.167 81 151.5h-278v66h350z" />
    <glyph glyph-name="H" unicode="H" horiz-adv-x="680" 
d="M530 700h70v-700h-70v327h-380v-327h-70v700h70v-307h380v307z" />
    <glyph glyph-name="I" unicode="I" horiz-adv-x="230" 
d="M80 700h70v-700h-70v700z" />
    <glyph glyph-name="J" unicode="J" horiz-adv-x="553" 
d="M253 -12c-48.667 0 -92.167 10.168 -130.5 30.501s-65.833 50.166 -82.5 89.499l59 35c22 -58 73.333 -87 154 -87c48.667 0 87.5 11.667 116.5 35s43.5 59 43.5 107v502h70v-502c0 -68 -21.833 -120 -65.5 -156s-98.5 -54 -164.5 -54z" />
    <glyph glyph-name="K" unicode="K" horiz-adv-x="580" 
d="M570 0h-92l-328 339v-339h-70v700h70v-320l318 320h92l-336 -340z" />
    <glyph glyph-name="L" unicode="L" horiz-adv-x="490" 
d="M150 66h320v-66h-390v700h70v-634z" />
    <glyph glyph-name="M" unicode="M" horiz-adv-x="800" 
d="M720 700v-700h-70v594l-245 -410h-10l-245 410v-594h-70v700h87l233 -390l233 390h87z" />
    <glyph glyph-name="N" unicode="N" horiz-adv-x="680" 
d="M530 700h70v-700h-60l-390 570v-570h-70v700h60l390 -570v570z" />
    <glyph glyph-name="O" unicode="O" horiz-adv-x="804" 
d="M402 -12c-101.333 0 -187 35.167 -257 105.5s-105 155.833 -105 256.5s35 186.167 105 256.5s155.667 105.5 257 105.5s187 -35.167 257 -105.5s105 -155.833 105 -256.5s-35 -186.167 -105 -256.5s-155.667 -105.5 -257 -105.5zM402 56c82.667 0 152 28.5 208 85.5
s84 126.5 84 208.5s-28 151.5 -84 208.5s-125.333 85.5 -208 85.5s-152 -28.5 -208 -85.5s-84 -126.5 -84 -208.5s28 -151.5 84 -208.5s125.333 -85.5 208 -85.5z" />
    <glyph glyph-name="P" unicode="P" horiz-adv-x="590" 
d="M330 700c62.667 0 115 -21 157 -63s63 -94.333 63 -157s-21 -115 -63 -157s-94.333 -63 -157 -63h-180v-260h-70v700h250zM330 326c43.333 0 79.166 14.5 107.499 43.5s42.5 65.833 42.5 110.5s-14.167 81.5 -42.5 110.5s-64.166 43.5 -107.499 43.5h-180v-308h180z" />
    <glyph glyph-name="Q" unicode="Q" horiz-adv-x="809" 
d="M764 350c0 -100 -35.333 -185.333 -106 -256l80 -78l-47 -43l-81 80c-62.667 -43.333 -132 -65 -208 -65c-100 0 -185.333 35.333 -256 106s-106 156 -106 256s35.333 185.333 106 256s156 106 256 106s185.333 -35.333 256 -106s106 -156 106 -256zM402 56
c56.667 0 109.333 15.332 158 45.999l-152 150l47 43l155 -152c56 57.333 84 126.333 84 207c0 81.333 -28.5 150.666 -85.5 207.999s-125.833 86 -206.5 86s-149.5 -28.667 -206.5 -86s-85.5 -126.666 -85.5 -207.999s28.5 -150.666 85.5 -207.999s125.833 -86 206.5 -86z
" />
    <glyph glyph-name="R" unicode="R" horiz-adv-x="610" 
d="M510 0l-164 280h-196v-280h-70v700h280c58 0 107.5 -20.5 148.5 -61.5s61.5 -90.5 61.5 -148.5c0 -47.333 -14.167 -89.5 -42.5 -126.5s-64.5 -61.833 -108.5 -74.5l171 -289h-80zM150 634v-287.999h210c38.667 0 71.667 14.167 99 42.5s41 62.166 41 101.499
c0 40 -13.667 74 -41 102s-60.333 42 -99 42h-210z" />
    <glyph glyph-name="S" unicode="S" horiz-adv-x="576" 
d="M300 -12c-64 0 -118.832 15.166 -164.499 45.499s-77.5 72.166 -95.5 125.499l60 35c12.667 -43.333 36 -77.166 70 -101.499s77.667 -36.5 131 -36.5c52 0 92.5 11.5 121.5 34.5s43.5 53.5 43.5 91.5c0 36.667 -13.333 64.334 -40 83.001s-70.667 38 -132 58
c-72.667 24 -120.667 43.333 -144 58c-53.333 32 -80 78.333 -80 139c0 59.333 20.667 106.166 62 140.499s92.333 51.5 153 51.5c54.667 0 102 -14.167 142 -42.5s69.667 -64.5 89 -108.5l-59 -33c-32 77.333 -89.333 116 -172 116c-43.333 0 -78.333 -10.667 -105 -32
s-40 -51 -40 -89c0 -34.667 12 -60.667 36 -78s63.667 -35 119 -53l54.5 -18.5c11 -3.66699 27 -9.66699 48 -18s36.5 -15.666 46.5 -21.999s22.167 -15 36.5 -26s24.666 -22 30.999 -33s12 -24.333 17 -40s7.5 -32.5 7.5 -50.5c0 -59.333 -21.667 -106.833 -65 -142.5
s-100.333 -53.5 -171 -53.5z" />
    <glyph glyph-name="T" unicode="T" horiz-adv-x="540" 
d="M520 700v-66h-215v-634h-70v634h-215v66h500z" />
    <glyph glyph-name="U" unicode="U" horiz-adv-x="660" 
d="M330 -12c-77.333 0 -140 22.667 -188 68s-72 106 -72 182v462h70v-462c0 -56 16.667 -100.333 50 -133s80 -49 140 -49s106.667 16.333 140 49s50 77 50 133v462h70v-462c0 -76 -24 -136.667 -72 -182s-110.667 -68 -188 -68z" />
    <glyph glyph-name="V" unicode="V" horiz-adv-x="608" 
d="M268 0l-258 700h76l218 -607l218 607h76l-258 -700h-72z" />
    <glyph glyph-name="W" unicode="W" horiz-adv-x="1000" 
d="M233 0l-203 700h74l173 -605l182 605h82l182 -605l173 605h74l-203 -700h-84l-183 608l-183 -608h-84z" />
    <glyph glyph-name="X" unicode="X" horiz-adv-x="580" 
d="M560 0h-80l-190 299l-190 -299h-80l230 361l-215 339h79l176 -276l176 276h79l-215 -339z" />
    <glyph glyph-name="Y" unicode="Y" horiz-adv-x="595" 
d="M585 700l-253 -413v-287h-70v289l-252 411h79l209 -343l208 343h79z" />
    <glyph glyph-name="Z" unicode="Z" horiz-adv-x="520" 
d="M118 66h372v-66h-450v66l362 568h-352v66h430v-66z" />
    <glyph glyph-name="bracketleft" unicode="[" horiz-adv-x="280" 
d="M260 736h-134v-772h134v-64h-200v900h200v-64z" />
    <glyph glyph-name="backslash" unicode="\" horiz-adv-x="530" 
d="M440 -100l-400 900h50l400 -900h-50z" />
    <glyph glyph-name="bracketright" unicode="]" horiz-adv-x="280" 
d="M220 800v-900h-200v64h134v772h-134v64h200z" />
    <glyph glyph-name="asciicircum" unicode="^" horiz-adv-x="500" 
d="M284 700l176 -300h-77l-133 227l-133 -227h-77l176 300h68z" />
    <glyph glyph-name="underscore" unicode="_" horiz-adv-x="520" 
d="M40 -141v64h440v-64h-440z" />
    <glyph glyph-name="grave" unicode="`" horiz-adv-x="200" 
d="M180 570l-80 130h-80l96 -130h64z" />
    <glyph glyph-name="a" unicode="a" 
d="M500 500h66v-500h-66v98c-46 -73.333 -113.333 -110 -202 -110c-71.333 0 -132.166 25.333 -182.499 76s-75.5 112.667 -75.5 186s25.167 135.333 75.5 186s111.166 76 182.499 76c88.667 0 156 -36.667 202 -110v98zM303 52c55.333 0 102 19.167 140 57.5
s57 85.166 57 140.499s-19 102.166 -57 140.499s-84.667 57.5 -140 57.5s-102 -19.167 -140 -57.5s-57 -85.166 -57 -140.499s19 -102.166 57 -140.499s84.667 -57.5 140 -57.5z" />
    <glyph glyph-name="b" unicode="b" 
d="M338 512c71.333 0 132.166 -25.333 182.499 -76s75.5 -112.667 75.5 -186s-25.167 -135.333 -75.5 -186s-111.166 -76 -182.499 -76c-88.667 0 -156 36.667 -202 110v-98h-66v700h66v-298c46 73.333 113.333 110 202 110zM333 52c55.333 0 102 19.167 140 57.5
s57 85.166 57 140.499s-19 102.166 -57 140.499s-84.667 57.5 -140 57.5s-102 -19.167 -140 -57.5s-57 -85.166 -57 -140.499s19 -102.166 57 -140.499s84.667 -57.5 140 -57.5z" />
    <glyph glyph-name="c" unicode="c" horiz-adv-x="552" 
d="M303 -12c-75.333 0 -137.998 25.165 -187.998 75.498s-75 112.5 -75 186.5s25 136.167 75 186.5s112.667 75.5 188 75.5c49.333 0 93.666 -11.833 132.999 -35.5s68 -55.5 86 -95.5l-54 -31c-13.333 30 -34.833 53.833 -64.5 71.5s-63.167 26.5 -100.5 26.5
c-55.333 0 -102 -19.167 -140 -57.5s-57 -85.166 -57 -140.499s19 -102.166 57 -140.499s84.667 -57.5 140 -57.5c37.333 0 70.666 8.83301 99.999 26.5s52.333 41.5 69 71.5l55 -32c-20.667 -40 -51 -71.667 -91 -95s-84.333 -35 -133 -35z" />
    <glyph glyph-name="d" unicode="d" 
d="M500 700h66v-700h-66v98c-46 -73.333 -113.333 -110 -202 -110c-71.333 0 -132.166 25.333 -182.499 76s-75.5 112.667 -75.5 186s25.167 135.333 75.5 186s111.166 76 182.499 76c88.667 0 156 -36.667 202 -110v298zM303 52c55.333 0 102 19.167 140 57.5
s57 85.166 57 140.499s-19 102.166 -57 140.499s-84.667 57.5 -140 57.5s-102 -19.167 -140 -57.5s-57 -85.166 -57 -140.499s19 -102.166 57 -140.499s84.667 -57.5 140 -57.5z" />
    <glyph glyph-name="e" unicode="e" horiz-adv-x="584" 
d="M301 512c74 0 133.833 -26.168 179.5 -78.501s68.5 -114.166 68.5 -185.499c0 -7.33301 -0.666992 -17.666 -2 -30.999h-439c6.66699 -50.667 28.167 -90.834 64.5 -120.501s81.166 -44.5 134.499 -44.5c38 0 70.833 7.83301 98.5 23.5s48.5 36.167 62.5 61.5l58 -34
c-22 -35.333 -52 -63.333 -90 -84s-81.333 -31 -130 -31c-78.667 0 -142.667 24.667 -192 74s-74 112 -74 188c0 74.667 24.333 137 73 187s111.334 75 188.001 75zM301 447.999c-52 0 -95.5 -15.5 -130.5 -46.5s-55.833 -71.167 -62.5 -120.5h373
c-6.66699 52.667 -27 93.667 -61 123s-73.667 44 -119 44z" />
    <glyph glyph-name="f" unicode="f" horiz-adv-x="320" 
d="M320 648c-48.667 4 -84.832 -4.33301 -108.499 -25s-35.5 -55 -35.5 -103v-20h144v-64h-144v-436h-66v436h-85v64h85v20c0 65.333 18.167 114.833 54.5 148.5s88.166 48.167 155.499 43.5v-64z" />
    <glyph glyph-name="g" unicode="g" 
d="M500 500l66 0.000976562v-480c0 -72 -24.667 -128.667 -74 -170s-108.333 -62 -177 -62c-117.333 0 -196.333 40.667 -237 122l58 33c30 -60.667 89.667 -91 179 -91c57.333 0 102.5 15.167 135.5 45.5s49.5 71.166 49.5 122.499v78c-46 -73.333 -113.333 -110 -202 -110
c-71.333 0 -132.166 25.333 -182.499 76s-75.5 112.667 -75.5 186s25.167 135.333 75.5 186s111.166 76 182.499 76c88.667 0 156 -36.667 202 -110v98zM303 52.001c55.333 0 102 19.167 140 57.5s57 85.166 57 140.499s-19 102.166 -57 140.499s-84.667 57.5 -140 57.5
s-102 -19.167 -140 -57.5s-57 -85.166 -57 -140.499s19 -102.166 57 -140.499s84.667 -57.5 140 -57.5z" />
    <glyph glyph-name="h" unicode="h" horiz-adv-x="558" 
d="M304 512c60.667 0 108.5 -18.502 143.5 -55.502s52.5 -86.833 52.5 -149.5v-307h-66v307c0 44.667 -11.833 79.334 -35.5 104.001s-57.167 37 -100.5 37c-48 0 -87 -15.167 -117 -45.5s-45 -77.166 -45 -140.499v-262h-66v700h66v-278c37.333 60 93.333 90 168 90z" />
    <glyph glyph-name="i" unicode="i" horiz-adv-x="206" 
d="M103 606c-13.333 0 -24.666 4.66699 -33.999 14s-14 20.666 -14 33.999s4.66699 24.666 14 33.999s20.666 14 33.999 14s24.666 -4.66699 33.999 -14s14 -20.666 14 -33.999s-4.66699 -24.666 -14 -33.999s-20.666 -14 -33.999 -14zM70 0v500h66v-500h-66z" />
    <glyph glyph-name="j" unicode="j" horiz-adv-x="230" 
d="M127 702c13.333 0 24.666 -4.66699 33.999 -14s14 -20.666 14 -33.999s-4.66699 -24.666 -14 -33.999s-20.666 -14 -33.999 -14s-24.666 4.66699 -33.999 14s-14 20.666 -14 33.999s4.66699 24.666 14 33.999s20.666 14 33.999 14zM94 -40v539.999h66v-540
c0 -60 -15.667 -105 -47 -135s-75.666 -42.333 -132.999 -37v64c39.333 -4 68.166 2.33301 86.499 19s27.5 46.334 27.5 89.001z" />
    <glyph glyph-name="k" unicode="k" horiz-adv-x="494" 
d="M474 0h-88l-250 241v-241h-66v700h66v-421l238 221h90l-258 -240z" />
    <glyph glyph-name="l" unicode="l" horiz-adv-x="206" 
d="M70 0v730h66v-730h-66z" />
    <glyph glyph-name="m" unicode="m" horiz-adv-x="848" 
d="M603 512c56 0 101.167 -17.999 135.5 -53.999s51.5 -84.667 51.5 -146v-312h-66v312c0 43.333 -11.167 76.833 -33.5 100.5s-51.833 35.5 -88.5 35.5c-41.333 0 -74.833 -13.833 -100.5 -41.5s-38.5 -70.834 -38.5 -129.501v-277h-66v312c0 44 -10.5 77.667 -31.5 101
s-49.5 35 -85.5 35c-40 0 -74 -14 -102 -42s-42 -71 -42 -129v-277h-66v500h66v-73c36 56.667 87 85 153 85c72 0 122.667 -30.333 152 -91c36 60.667 90 91 162 91z" />
    <glyph glyph-name="n" unicode="n" horiz-adv-x="558" 
d="M304 512c60.667 0 108.5 -18.502 143.5 -55.502s52.5 -86.833 52.5 -149.5v-307h-66v307c0 44.667 -11.833 79.334 -35.5 104.001s-57.167 37 -100.5 37c-48 0 -87 -15.167 -117 -45.5s-45 -77.166 -45 -140.499v-262h-66v500h66v-78c37.333 60 93.333 90 168 90z" />
    <glyph glyph-name="o" unicode="o" horiz-adv-x="606" 
d="M303 -12c-73.333 0 -135.5 25.167 -186.5 75.5s-76.5 112.5 -76.5 186.5s25.5 136.167 76.5 186.5s113.167 75.5 186.5 75.5s135.5 -25.167 186.5 -75.5s76.5 -112.5 76.5 -186.5s-25.5 -136.167 -76.5 -186.5s-113.167 -75.5 -186.5 -75.5zM303 52
c55.333 0 102 19.167 140 57.5s57 85.166 57 140.499s-19 102.166 -57 140.499s-84.667 57.5 -140 57.5s-102 -19.167 -140 -57.5s-57 -85.166 -57 -140.499s19 -102.166 57 -140.499s84.667 -57.5 140 -57.5z" />
    <glyph glyph-name="p" unicode="p" 
d="M338 512c71.333 0 132.166 -25.333 182.499 -76s75.5 -112.667 75.5 -186s-25.167 -135.333 -75.5 -186s-111.166 -76 -182.499 -76c-88.667 0 -156 36.667 -202 110v-298h-66v700h66v-98c46 73.333 113.333 110 202 110zM333 52c55.333 0 102 19.167 140 57.5
s57 85.166 57 140.499s-19 102.166 -57 140.499s-84.667 57.5 -140 57.5s-102 -19.167 -140 -57.5s-57 -85.166 -57 -140.499s19 -102.166 57 -140.499s84.667 -57.5 140 -57.5z" />
    <glyph glyph-name="q" unicode="q" 
d="M500 500h66v-700h-66v298c-46 -73.333 -113.333 -110 -202 -110c-71.333 0 -132.166 25.333 -182.499 76s-75.5 112.667 -75.5 186s25.167 135.333 75.5 186s111.166 76 182.499 76c88.667 0 156 -36.667 202 -110v98zM303 52c55.333 0 102 19.167 140 57.5
s57 85.166 57 140.499s-19 102.166 -57 140.499s-84.667 57.5 -140 57.5s-102 -19.167 -140 -57.5s-57 -85.166 -57 -140.499s19 -102.166 57 -140.499s84.667 -57.5 140 -57.5z" />
    <glyph glyph-name="r" unicode="r" horiz-adv-x="314" 
d="M136 417c30.667 60.667 83.333 91 158 91v-64c-45.333 0 -83 -13.333 -113 -40s-45 -68.667 -45 -126v-278h-66v500h66v-83z" />
    <glyph glyph-name="s" unicode="s" horiz-adv-x="454" 
d="M122 369c0 -22.667 10.002 -40.667 30.002 -54s44.333 -23.666 73 -30.999s57.334 -15.5 86.001 -24.5s53 -24 73 -45s30 -48.5 30 -82.5c0 -42.667 -16.833 -77.334 -50.5 -104.001s-77.167 -40 -130.5 -40c-48 0 -88.833 10.667 -122.5 32s-57.167 49 -70.5 83l56 33
c9.33301 -26 26.166 -46.5 50.499 -61.5s53.166 -22.5 86.499 -22.5c32.667 0 60 6.5 82 19.5s33 33.167 33 60.5c0 22.667 -10 40.667 -30 54s-44.333 23.666 -73 30.999s-57.334 15.5 -86.001 24.5s-53 24 -73 45s-30 48.5 -30 82.5c0 40.667 16.167 74.667 48.5 102
s73.166 41 122.499 41c40.667 0 76.334 -9.16699 107.001 -27.5s53.334 -43.166 68.001 -74.499l-55 -32c-19.333 46.667 -59.333 70 -120 70c-28.667 0 -53.334 -6.83301 -74.001 -20.5s-31 -33.167 -31 -58.5z" />
    <glyph glyph-name="t" unicode="t" horiz-adv-x="375" 
d="M335 436h-144v-303c0 -27.333 5.33301 -46.833 16 -58.5s26.667 -17.667 48 -18s48 0.166992 80 1.5v-58c-70 -10.667 -122.5 -5.66699 -157.5 15s-52.5 60 -52.5 118v303h-105v64h105v120l66 20v-140h144v-64z" />
    <glyph glyph-name="u" unicode="u" horiz-adv-x="558" 
d="M422 500l66 0.00195312v-500h-66v78c-37.333 -60 -93.333 -90 -168 -90c-60.667 0 -108.5 18.5 -143.5 55.5s-52.5 86.833 -52.5 149.5v307h66v-307c0 -44.667 11.833 -79.334 35.5 -104.001s57.167 -37 100.5 -37c48 0 87 15.167 117 45.5s45 77.166 45 140.499v262z
" />
    <glyph glyph-name="v" unicode="v" horiz-adv-x="510" 
d="M430 500h70l-205 -500h-80l-205 500h70l175 -431z" />
    <glyph glyph-name="w" unicode="w" horiz-adv-x="770" 
d="M672 500h68l-154 -500h-72l-129 403l-129 -403h-72l-154 500h68l123 -415l131 415h66l131 -415z" />
    <glyph glyph-name="x" unicode="x" horiz-adv-x="510" 
d="M490 0h-79l-156 206l-156 -206h-79l196 259l-183 241h79l143 -189l143 189h79l-182 -241z" />
    <glyph glyph-name="y" unicode="y" horiz-adv-x="510" 
d="M430 500l70 -0.000976562l-214 -546c-19.333 -49.333 -46.833 -88.166 -82.5 -116.499s-75.5 -40.833 -119.5 -37.5v62c60 -6.66699 105.667 28 137 104l13 31l-224 503h70l188 -419z" />
    <glyph glyph-name="z" unicode="z" horiz-adv-x="470" 
d="M142 64h288v-64h-380v44l278 392h-268v64h360v-44z" />
    <glyph glyph-name="braceleft" unicode="{" horiz-adv-x="354" 
d="M334 -108c-58 -5.33301 -102.5 5.49805 -133.5 32.498s-46.5 70.167 -46.5 129.5v167c0 40 -8 66.333 -24 79s-42.667 19 -80 19v64c37.333 0 64 6.33301 80 19s24 39 24 79v167c0 59.333 15.5 102.5 46.5 129.5s75.5 37.833 133.5 32.5v-64c-40 4 -69 -1 -87 -15
s-27 -41.667 -27 -83v-167c0 -71.333 -26 -114.666 -78 -129.999c52 -15.333 78 -58.666 78 -129.999v-167c0 -41.333 9 -69 27 -83s47 -19 87 -15v-64z" />
    <glyph glyph-name="bar" unicode="|" horiz-adv-x="226" 
d="M80 -200v920h66v-920h-66z" />
    <glyph glyph-name="braceright" unicode="}" horiz-adv-x="354" 
d="M20 -108v64.002c40 -4 69 1 87 15s27 41.667 27 83v167c0 71.333 26 114.666 78 129.999c-52 15.333 -78 58.666 -78 129.999v167c0 41.333 -9 69 -27 83s-47 19 -87 15v64c58 5.33301 102.5 -5.5 133.5 -32.5s46.5 -70.167 46.5 -129.5v-167c0 -40 8 -66.333 24 -79
s42.667 -19 80 -19v-64c-37.333 0 -64 -6.33301 -80 -19s-24 -39 -24 -79v-167c0 -59.333 -15.5 -102.5 -46.5 -129.5s-75.5 -37.833 -133.5 -32.5z" />
    <glyph glyph-name="asciitilde" unicode="~" horiz-adv-x="594" 
d="M474 414l60.0029 -27.999c-17.333 -56.667 -46.666 -91.334 -87.999 -104.001s-96 0.666016 -164 39.999c-51.333 29.333 -88.5 40.333 -111.5 33s-39.833 -30.333 -50.5 -69l-60 28c17.333 56 47.166 90.333 89.499 103s96.5 -0.333008 162.5 -39
c33.333 -20.667 61.166 -32.167 83.499 -34.5s39.166 2.33398 50.499 14.001s20.666 30.5 27.999 56.5z" />
    <glyph glyph-name="exclamdown" unicode="&#xa1;" horiz-adv-x="230" 
d="M115 510c15.333 0 28.333 -5.33301 39 -16s16 -23.667 16 -39s-5.33301 -28.333 -16 -39s-23.667 -16 -39 -16s-28.333 5.33301 -39 16s-16 23.667 -16 39s5.33301 28.333 16 39s23.667 16 39 16zM90 310h50l15 -310v-200h-80v200z" />
    <glyph glyph-name="cent" unicode="&#xa2;" horiz-adv-x="552" 
d="M472 250l55.001 -32c-20.667 -40 -51 -71.667 -91 -95s-84.333 -35 -133 -35c-22 0 -44.667 2.66699 -68 8l-31 -96h-50l36 112c-46 20 -82.5 51.333 -109.5 94s-40.5 90.667 -40.5 144c0 74 25 136.167 75 186.5s112.667 75.5 188 75.5c18 0 33.667 -1.33301 47 -4
l30 92h50l-34 -105c59.333 -22 101.333 -60 126 -114l-54 -31c-18.667 39.333 -49 67.333 -91 84l-122 -376c15.333 -4 31.333 -6 48 -6c37.333 0 70.666 8.83301 99.999 26.5s52.333 41.5 69 71.5zM106.001 350c0 -38 9.5 -72.668 28.5 -104.001s44.167 -55.333 75.5 -72
l120 372c-12 1.33301 -21 2 -27 2c-55.333 0 -102 -19.167 -140 -57.5s-57 -85.166 -57 -140.499z" />
    <glyph glyph-name="sterling" unicode="&#xa3;" horiz-adv-x="585" 
d="M204 68l366 0.000976562v-68h-530v68h94v221h-74v62h74v151c0 67.333 20.333 119.166 61 155.499s88.667 54.5 144 54.5c91.333 0 155 -44.667 191 -134l-57 -32c-24 65.333 -68.667 98 -134 98c-38 0 -70 -11.833 -96 -35.5s-39 -59.167 -39 -106.5v-151h231v-62h-231
v-221z" />
    <glyph glyph-name="currency" unicode="&#xa4;" horiz-adv-x="552" 
d="M489 350c0 -52 -15.667 -96.6689 -47 -134.002l70 -70l-32 -32l-70 70c-39.333 -30.667 -84 -46 -134 -46s-94.667 15.333 -134 46l-70 -70l-32 32l70 70c-31.333 38.667 -47 83.334 -47 134.001s15.667 95.334 47 134.001l-70 70l32 32l70 -70
c39.333 30.667 84 46 134 46s94.667 -15.333 134 -46l70 70l32 -32l-70 -70c31.333 -37.333 47 -82 47 -134zM129 349.998c0 -41.333 14.167 -76.333 42.5 -105s63.166 -43 104.499 -43s76.166 14.333 104.499 43s42.5 63.667 42.5 105s-14.167 76.333 -42.5 105
s-63.166 43 -104.499 43s-76.166 -14.333 -104.499 -43s-42.5 -63.667 -42.5 -105z" />
    <glyph glyph-name="yen" unicode="&#xa5;" horiz-adv-x="575" 
d="M585 700l-216 -353h134v-58h-170l-1 -2v-58h171v-58h-171v-171h-70v171h-189v58h189v60h-189v58h153l-216 353h79l209 -343l208 343h79z" />
    <glyph glyph-name="brokenbar" unicode="&#xa6;" horiz-adv-x="226" 
d="M80 350v370h66v-370h-66zM80 -200v370h66v-370h-66z" />
    <glyph glyph-name="section" unicode="&#xa7;" horiz-adv-x="510" 
d="M406 139c29.333 -28 44.001 -62.3291 44.001 -102.996c0 -42 -16.5 -77.167 -49.5 -105.5s-76.5 -42.5 -130.5 -42.5c-52.667 0 -96.667 11.667 -132 35s-61 56 -77 98l56 32c20.667 -67.333 71.667 -101 153 -101c33.333 0 60.666 7.33301 81.999 22
s32 35.334 32 62.001c0 19.333 -8 37 -24 53s-33.167 28.667 -51.5 38s-43.833 20.666 -76.5 33.999l-15 6c-22.667 9.33301 -42.167 18.666 -58.5 27.999s-32.666 20.833 -48.999 34.5s-28.666 29.667 -36.999 48s-12.5 38.833 -12.5 61.5c0 49.333 23.667 91 71 125
c-27.333 27.333 -41 60.666 -41 99.999c0 41.333 16 76.333 48 105s73 43 123 43c43.333 0 80.5 -10.5 111.5 -31.5s54.167 -50.5 69.5 -88.5l-54 -31c-22.667 58 -65 87 -127 87c-28.667 0 -53.334 -7.33301 -74.001 -22s-31 -35.334 -31 -62.001
c0 -18.667 7.5 -35.834 22.5 -51.501s30.5 -27.667 46.5 -36s40 -19.5 72 -33.5c7.33301 -3.33301 12.666 -5.66602 15.999 -6.99902c48.667 -22 87 -46 115 -72s42 -60.333 42 -103c0 -48.667 -21.333 -89.334 -64 -122.001zM126.001 339.004
c0 -27.333 10.167 -49.833 30.5 -67.5s48.833 -33.5 85.5 -47.5c51.333 -18.667 89 -35 113 -49c32.667 23.333 49 52 49 86c0 28 -10.333 50.833 -31 68.5s-50 34.167 -88 49.5c-46.667 18 -81.667 34 -105 48c-36 -22 -54 -51.333 -54 -88z" />
    <glyph glyph-name="dieresis" unicode="&#xa8;" horiz-adv-x="320" 
d="M65 575c-12.667 0 -23.334 4.33301 -32.001 13s-13 19.334 -13 32.001s4.33301 23.334 13 32.001s19.334 13 32.001 13s23.334 -4.33301 32.001 -13s13 -19.334 13 -32.001s-4.33301 -23.334 -13 -32.001s-19.334 -13 -32.001 -13zM255 575
c-12.667 0 -23.334 4.33301 -32.001 13s-13 19.334 -13 32.001s4.33301 23.334 13 32.001s19.334 13 32.001 13s23.334 -4.33301 32.001 -13s13 -19.334 13 -32.001s-4.33301 -23.334 -13 -32.001s-19.334 -13 -32.001 -13z" />
    <glyph glyph-name="copyright" unicode="&#xa9;" horiz-adv-x="804" 
d="M402 -12c-100 0 -185.333 35.333 -256 106s-106 156 -106 256s35.333 185.333 106 256s156 106 256 106s185.333 -35.333 256 -106s106 -156 106 -256s-35.333 -185.333 -106 -256s-156 -106 -256 -106zM402 16c91.333 0 169.5 32.5 234.5 97.5s97.5 143.833 97.5 236.5
s-32.5 171.5 -97.5 236.5s-143.167 97.5 -234.5 97.5s-169.5 -32.5 -234.5 -97.5s-97.5 -143.833 -97.5 -236.5s32.5 -171.5 97.5 -236.5s143.167 -97.5 234.5 -97.5zM405 158c-54.667 0 -100.668 18.6699 -138.001 56.0029s-56 82.666 -56 135.999
s18.667 98.666 56 135.999s83.333 56 138 56c35.333 0 67.5 -8.33301 96.5 -25s51.5 -39.334 67.5 -68.001l-55 -32c-9.33301 20.667 -24 36.334 -44 47.001s-41.667 16 -65 16c-38.667 0 -69.834 -12.833 -93.501 -38.5s-35.5 -56.167 -35.5 -91.5
s11.833 -65.833 35.5 -91.5s54.834 -38.5 93.501 -38.5c24 0 46 5.5 66 16.5s34.667 26.833 44 47.5l55 -33c-16 -28.667 -38.667 -51.334 -68 -68.001s-61.666 -25 -96.999 -25z" />
    <glyph glyph-name="guillemotleft" unicode="&#xab;" horiz-adv-x="492" 
d="M262 489l-110 -180l110 -180h-82l-110 180l110 180h82zM422 489l-110 -180l110 -180h-82l-110 180l110 180h82z" />
    <glyph glyph-name="logicalnot" unicode="&#xac;" horiz-adv-x="520" 
d="M60 382h400v-180h-66v116h-334v64z" />
    <glyph glyph-name="registered" unicode="&#xae;" horiz-adv-x="804" 
d="M402 712c100 0 185.333 -35.333 256 -106s106 -156 106 -256s-35.333 -185.333 -106 -256s-156 -106 -256 -106s-185.333 35.333 -256 106s-106 156 -106 256s35.333 185.333 106 256s156 106 256 106zM402 16c91.333 0 169.5 32.5 234.5 97.5s97.5 143.833 97.5 236.5
s-32.5 171.5 -97.5 236.5s-143.167 97.5 -234.5 97.5s-169.5 -32.5 -234.5 -97.5s-97.5 -143.833 -97.5 -236.5s32.5 -171.5 97.5 -236.5s143.167 -97.5 234.5 -97.5zM546 416c0 -53.333 -22.667 -89 -68 -107l78 -144h-69l-71 132h-10h-52v-132h-62v370h114
c44 0 78.333 -11.5 103 -34.5s37 -51.167 37 -84.5zM354 475v-118h56c23.333 0 41.5 5.33301 54.5 16s19.5 25 19.5 43s-6.5 32.333 -19.5 43s-31.167 16 -54.5 16h-56z" />
    <glyph glyph-name="macron" unicode="&#xaf;" horiz-adv-x="300" 
d="M20 580v58h260v-58h-260z" />
    <glyph glyph-name="degree" unicode="&#xb0;" horiz-adv-x="386" 
d="M193 510c-43.333 0 -79.6641 14.5 -108.997 43.5s-44 64.5 -44 106.5s14.667 77.5 44 106.5s65.666 43.5 108.999 43.5s79.666 -14.5 108.999 -43.5s44 -64.5 44 -106.5s-14.333 -77.5 -43 -106.5s-65.334 -43.5 -110.001 -43.5zM193.002 570c26 0 47.333 8.66699 64 26
s25 38.666 25 63.999s-8.33301 46.666 -25 63.999s-38 26 -64 26s-47.333 -8.66699 -64 -26s-25 -38.666 -25 -63.999s8.33301 -46.666 25 -63.999s38 -26 64 -26z" />
    <glyph glyph-name="plusminus" unicode="&#xb1;" horiz-adv-x="540" 
d="M302 447h178v-64h-178v-163h-64v163h-178v64h178v163h64v-163zM60 90v64h420v-64h-420z" />
    <glyph glyph-name="acute" unicode="&#xb4;" horiz-adv-x="200" 
d="M20 570h64l96 130h-80z" />
    <glyph glyph-name="uni00B5" unicode="&#xb5;" horiz-adv-x="606" 
d="M537 64l39 0.00195312v-64h-47c-25.333 0 -46.333 7.33301 -63 22s-27 34.334 -31 59.001c-36.667 -62 -93 -93 -169 -93c-56.667 0 -100 17 -130 51v-239h-66v700h66v-307c0 -44.667 11.833 -79.334 35.5 -104.001s57.167 -37 100.5 -37c48 0 87 15.167 117 45.5
s45 77.166 45 140.499v262h66v-400c0 -10.667 3.33301 -19.334 10 -26.001s15.667 -10 27 -10z" />
    <glyph glyph-name="paragraph" unicode="&#xb6;" horiz-adv-x="580" 
d="M540 700v-62h-60v-838h-64v838h-112v-838h-64v500c-55.333 0 -102.5 19.5 -141.5 58.5s-58.5 86.167 -58.5 141.5s19.5 102.5 58.5 141.5s86.167 58.5 141.5 58.5h300z" />
    <glyph glyph-name="periodcentered" unicode="&#xb7;" horiz-adv-x="230" 
d="M115 295c-15.333 0 -28.333 5.33301 -39 16s-16 23.667 -16 39s5.33301 28.333 16 39s23.667 16 39 16s28.333 -5.33301 39 -16s16 -23.667 16 -39s-5.33301 -28.333 -16 -39s-23.667 -16 -39 -16z" />
    <glyph glyph-name="cedilla" unicode="&#xb8;" horiz-adv-x="245" 
d="M132 -45c28.667 -5.33301 51.333 -15 68 -29s25 -31.333 25 -52c0 -68 -68.333 -98 -205 -90v54c98 -8 147 4 147 36c0 25.333 -31 39 -93 41v85h58v-45z" />
    <glyph glyph-name="guillemotright" unicode="&#xbb;" horiz-adv-x="492" 
d="M152 489l110 -180l-110 -180h-82l110 180l-110 180h82zM312 489l110 -180l-110 -180h-82l110 180l-110 180h82z" />
    <glyph glyph-name="onequarter" unicode="&#xbc;" horiz-adv-x="821" 
d="M179 300h-62v332l-91 -27l-16 53l116 42h53v-400zM527 700h60l-400 -700h-60zM801 133v-58h-51v-75h-62v75h-206v58l149 267h67l-148 -267h138v96h62v-96h51z" />
    <glyph glyph-name="onehalf" unicode="&#xbd;" horiz-adv-x="807" 
d="M179 300h-62v332l-91 -27l-16 53l116 42h53v-400zM527 700h60l-400 -700h-60zM590 60h188.001v-60h-280v51l168 154c28 24.667 42 53 42 85c0 18.667 -6.5 33.667 -19.5 45s-30.5 17 -52.5 17c-41.333 0 -70.333 -20.667 -87 -62l-52 29c25.333 62 71.666 93 138.999 93
c40 0 72.333 -11.667 97 -35s37 -52.333 37 -87c0 -46 -20.667 -87.667 -62 -125z" />
    <glyph glyph-name="threequarters" unicode="&#xbe;" horiz-adv-x="926" 
d="M313 417c0 -38.667 -13.334 -69.833 -40.001 -93.5s-62 -35.5 -106 -35.5c-68 0 -115.333 28 -142 84l52 30c16.667 -36 46.667 -54 90 -54c26.667 0 47.334 6.16699 62.001 18.5s22 29.166 22 50.499c0 20.667 -7.5 37.334 -22.5 50.001s-35.5 19 -61.5 19h-4l-31 47
l90 107h-184v60h258v-60l-89 -106c33.333 -6.66699 59.333 -20.167 78 -40.5s28 -45.833 28 -76.5zM631.999 700.001h60l-400 -700h-60zM905.999 133.001v-58h-51v-75h-62v75h-206v58l149 267h67l-148 -267h138v96h62v-96h51z" />
    <glyph glyph-name="questiondown" unicode="&#xbf;" horiz-adv-x="532" 
d="M287 510c15.333 0 28.333 -5.33301 39 -16s16 -23.667 16 -39s-5.33301 -28.333 -16 -39s-23.667 -16 -39 -16s-28.333 5.33301 -39 16s-16 23.667 -16 39s5.33301 28.333 16 39s23.667 16 39 16zM322 310c0 -32.667 -6.66699 -62.501 -20 -89.501
s-29.333 -49.833 -48 -68.5l-56 -54c-18.667 -17.333 -34.667 -36.5 -48 -57.5s-20 -43.5 -20 -67.5c0 -38.667 13.167 -67.834 39.5 -87.501s60.166 -29.5 101.499 -29.5c82 0 132.667 33.667 152 101l59 -33c-15.333 -44.667 -42.166 -78.5 -80.499 -101.5
s-81.833 -34.5 -130.5 -34.5c-58.667 0 -108.5 16.167 -149.5 48.5s-61.5 77.833 -61.5 136.5c0 28.667 6.66699 55.334 20 80.001s29.333 46.167 48 64.5l56 54.5c18.667 18 34.667 38.833 48 62.5s20 48.834 20 75.501h70z" />
    <glyph glyph-name="Agrave" unicode="&#xc0;" horiz-adv-x="630" 
d="M375 770h-64l-96 130h80zM546 0l-65 172h-332l-65 -172h-74l269 700h72l269 -700h-74zM174 238h282l-141 375z" />
    <glyph glyph-name="Aacute" unicode="&#xc1;" horiz-adv-x="630" 
d="M425 900l-96 -130h-64l80 130h80zM546 0l-65 172h-332l-65 -172h-74l269 700h72l269 -700h-74zM174 238h282l-141 375z" />
    <glyph glyph-name="Acircumflex" unicode="&#xc2;" horiz-adv-x="630" 
d="M315 857l-70 -87h-75l106 130h78l106 -130h-75zM546 0l-65 172h-332l-65 -172h-74l269 700h72l269 -700h-74zM174 238h282l-141 375z" />
    <glyph glyph-name="Atilde" unicode="&#xc3;" horiz-adv-x="630" 
d="M315 803c-15.333 11.333 -27.165 19.5 -35.498 24.5s-16.5 7.83301 -24.5 8.5s-13.667 -3.66602 -17 -12.999s-5 -23.666 -5 -42.999h-58c0 39.333 7 68.666 21 87.999s31.667 28.5 53 27.5s43.666 -10.5 66.999 -28.5c12 -9.33301 21.667 -16.333 29 -21
s14.666 -8.33398 21.999 -11.001s13 -2.33398 17 0.999023s7.16699 9.33301 9.5 18s3.5 20.667 3.5 36h58c0 -39.333 -7 -68.666 -21 -87.999s-31.5 -28.5 -52.5 -27.5s-43.167 10.5 -66.5 28.5zM546.001 0l-65 172h-332l-65 -172h-74l269 700h72l269 -700h-74zM174.001 238
h282l-141 375z" />
    <glyph glyph-name="Adieresis" unicode="&#xc4;" horiz-adv-x="630" 
d="M220 775c-12.667 0 -23.334 4.33301 -32.001 13s-13 19.334 -13 32.001s4.33301 23.334 13 32.001s19.334 13 32.001 13s23.334 -4.33301 32.001 -13s13 -19.334 13 -32.001s-4.33301 -23.334 -13 -32.001s-19.334 -13 -32.001 -13zM410 775
c-12.667 0 -23.334 4.33301 -32.001 13s-13 19.334 -13 32.001s4.33301 23.334 13 32.001s19.334 13 32.001 13s23.334 -4.33301 32.001 -13s13 -19.334 13 -32.001s-4.33301 -23.334 -13 -32.001s-19.334 -13 -32.001 -13zM546 0l-65 172h-332l-65 -172h-74l269 700h72
l269 -700h-74zM174 238h282l-141 375z" />
    <glyph glyph-name="Aring" unicode="&#xc5;" horiz-adv-x="630" 
d="M546 0l-65 172h-332l-65 -172h-74l257 669c-38.667 17.333 -58 47.666 -58 90.999c0 28.667 9.83301 52.5 29.5 71.5s45.167 28.5 76.5 28.5s56.833 -9.5 76.5 -28.5s29.5 -42.833 29.5 -71.5c0 -43.333 -19.333 -73.666 -58 -90.999l257 -669h-74zM315 809
c-16 0 -28.5 -4.5 -37.5 -13.5s-13.5 -20.833 -13.5 -35.5s4.5 -26.5 13.5 -35.5s21.5 -13.5 37.5 -13.5c16.667 0 29.5 4.5 38.5 13.5s13.5 20.833 13.5 35.5s-4.5 26.5 -13.5 35.5s-21.833 13.5 -38.5 13.5zM174 238h282l-141 375z" />
    <glyph glyph-name="AE" unicode="&#xc6;" horiz-adv-x="880" 
d="M520 66h320v-66h-390v172h-265l-105 -172h-80l145 237v1h1l283 462h406v-66h-315v-248h300v-66h-300v-254zM225 238h225v369z" />
    <glyph glyph-name="Ccedilla" unicode="&#xc7;" horiz-adv-x="745" 
d="M407 56c52 0 99.666 12.6709 142.999 38.0039s76 59.333 98 102l62 -35c-26.667 -48.667 -64.5 -88.334 -113.5 -119.001s-103.167 -48.334 -162.5 -53.001v-34c28.667 -5.33301 51.334 -15 68.001 -29s25 -31.333 25 -52c0 -68 -68.333 -98 -205 -90v54
c98 -8 147 4 147 36c0 25.333 -31 39 -93 41v74c-98 7.33301 -178.5 45.333 -241.5 114s-94.5 151 -94.5 247c0 101.333 34.667 187 104 257s157 105 263 105c64.667 0 124 -15.5 178 -46.5s95.667 -72.833 125 -125.5l-62 -36c-22 42.667 -54.667 76.667 -98 102
s-91 38 -143 38c-87.333 0 -158.666 -28.333 -213.999 -85s-83 -126.334 -83 -209.001s27.667 -152.334 83 -209.001s126.666 -85 213.999 -85z" />
    <glyph glyph-name="Egrave" unicode="&#xc8;" horiz-adv-x="530" 
d="M343 770h-64l-96 130h80zM150 66h340v-66h-410v700h405v-66h-335v-248h310v-66h-310v-254z" />
    <glyph glyph-name="Eacute" unicode="&#xc9;" horiz-adv-x="530" 
d="M393 900l-96 -130h-64l80 130h80zM150 66h340v-66h-410v700h405v-66h-335v-248h310v-66h-310v-254z" />
    <glyph glyph-name="Ecircumflex" unicode="&#xca;" horiz-adv-x="530" 
d="M283 857l-70 -87h-75l106 130h78l106 -130h-75zM150 66h340v-66h-410v700h405v-66h-335v-248h310v-66h-310v-254z" />
    <glyph glyph-name="Edieresis" unicode="&#xcb;" horiz-adv-x="530" 
d="M188 775c-12.667 0 -23.334 4.33301 -32.001 13s-13 19.334 -13 32.001s4.33301 23.334 13 32.001s19.334 13 32.001 13s23.334 -4.33301 32.001 -13s13 -19.334 13 -32.001s-4.33301 -23.334 -13 -32.001s-19.334 -13 -32.001 -13zM378 775
c-12.667 0 -23.334 4.33301 -32.001 13s-13 19.334 -13 32.001s4.33301 23.334 13 32.001s19.334 13 32.001 13s23.334 -4.33301 32.001 -13s13 -19.334 13 -32.001s-4.33301 -23.334 -13 -32.001s-19.334 -13 -32.001 -13zM150 66h340v-66h-410v700h405v-66h-335v-248h310
v-66h-310v-254z" />
    <glyph glyph-name="Igrave" unicode="&#xcc;" horiz-adv-x="230" 
d="M175 770l-80 130h-80l96 -130h64zM80 700h70v-700h-70v700z" />
    <glyph glyph-name="Iacute" unicode="&#xcd;" horiz-adv-x="230" 
d="M65 770h64l96 130h-80zM80 700h70v-700h-70v700z" />
    <glyph glyph-name="Icircumflex" unicode="&#xce;" horiz-adv-x="230" 
d="M154 900l106 -130h-75l-70 87l-70 -87h-75l106 130h78zM80 0v700h70v-700h-70z" />
    <glyph glyph-name="Idieresis" unicode="&#xcf;" horiz-adv-x="230" 
d="M20 775c-12.667 0 -23.334 4.33301 -32.001 13s-13 19.334 -13 32.001s4.33301 23.334 13 32.001s19.334 13 32.001 13s23.334 -4.33301 32.001 -13s13 -19.334 13 -32.001s-4.33301 -23.334 -13 -32.001s-19.334 -13 -32.001 -13zM210 775
c-12.667 0 -23.334 4.33301 -32.001 13s-13 19.334 -13 32.001s4.33301 23.334 13 32.001s19.334 13 32.001 13s23.334 -4.33301 32.001 -13s13 -19.334 13 -32.001s-4.33301 -23.334 -13 -32.001s-19.334 -13 -32.001 -13zM80 700h70v-700h-70v700z" />
    <glyph glyph-name="Eth" unicode="&#xd0;" horiz-adv-x="740" 
d="M370 700c95.333 0 174.166 -33.833 236.499 -101.5s93.5 -150.5 93.5 -248.5s-31.167 -180.833 -93.5 -248.5s-141.166 -101.5 -236.499 -101.5h-270v318h-70v64h70v318h270zM370 66c76.667 0 139.5 27.333 188.5 82s73.5 122 73.5 202s-24.5 147.333 -73.5 202
s-111.833 82 -188.5 82h-200v-252h220v-64h-220v-252h200z" />
    <glyph glyph-name="Ntilde" unicode="&#xd1;" horiz-adv-x="680" 
d="M200 780c0 39.333 7.00098 68.666 21.001 87.999s31.667 28.5 53 27.5s43.666 -10.5 66.999 -28.5c12 -9.33301 21.667 -16.333 29 -21s14.666 -8.33398 21.999 -11.001s13 -2.33398 17 0.999023s7.16699 9.33301 9.5 18s3.5 20.667 3.5 36h58
c0 -39.333 -7 -68.666 -21 -87.999s-31.5 -28.5 -52.5 -27.5s-43.167 10.5 -66.5 28.5c-15.333 11.333 -27.166 19.5 -35.499 24.5s-16.5 7.83301 -24.5 8.5s-13.667 -3.66602 -17 -12.999s-5 -23.666 -5 -42.999h-58zM530.001 700h70v-700h-60l-390 570v-570h-70v700h60
l390 -570v570z" />
    <glyph glyph-name="Ograve" unicode="&#xd2;" horiz-adv-x="804" 
d="M462 770l-80 130h-80l96 -130h64zM402 -12c-101.333 0 -187 35.167 -257 105.5s-105 155.833 -105 256.5s35 186.167 105 256.5s155.667 105.5 257 105.5s187 -35.167 257 -105.5s105 -155.833 105 -256.5s-35 -186.167 -105 -256.5s-155.667 -105.5 -257 -105.5zM402 56
c82.667 0 152 28.5 208 85.5s84 126.5 84 208.5s-28 151.5 -84 208.5s-125.333 85.5 -208 85.5s-152 -28.5 -208 -85.5s-84 -126.5 -84 -208.5s28 -151.5 84 -208.5s125.333 -85.5 208 -85.5z" />
    <glyph glyph-name="Oacute" unicode="&#xd3;" horiz-adv-x="804" 
d="M352 770h64l96 130h-80zM402 -12c-101.333 0 -187 35.167 -257 105.5s-105 155.833 -105 256.5s35 186.167 105 256.5s155.667 105.5 257 105.5s187 -35.167 257 -105.5s105 -155.833 105 -256.5s-35 -186.167 -105 -256.5s-155.667 -105.5 -257 -105.5zM402 56
c82.667 0 152 28.5 208 85.5s84 126.5 84 208.5s-28 151.5 -84 208.5s-125.333 85.5 -208 85.5s-152 -28.5 -208 -85.5s-84 -126.5 -84 -208.5s28 -151.5 84 -208.5s125.333 -85.5 208 -85.5z" />
    <glyph glyph-name="Ocircumflex" unicode="&#xd4;" horiz-adv-x="804" 
d="M402 857l-70 -87h-75l106 130h78l106 -130h-75zM402 712c101.333 0 187 -35.167 257 -105.5s105 -155.833 105 -256.5s-35 -186.167 -105 -256.5s-155.667 -105.5 -257 -105.5s-187 35.167 -257 105.5s-105 155.833 -105 256.5s35 186.167 105 256.5
s155.667 105.5 257 105.5zM402 56c82.667 0 152 28.5 208 85.5s84 126.5 84 208.5s-28 151.5 -84 208.5s-125.333 85.5 -208 85.5s-152 -28.5 -208 -85.5s-84 -126.5 -84 -208.5s28 -151.5 84 -208.5s125.333 -85.5 208 -85.5z" />
    <glyph glyph-name="Otilde" unicode="&#xd5;" horiz-adv-x="804" 
d="M262 780c0 39.333 7.00098 68.666 21.001 87.999s31.667 28.5 53 27.5s43.666 -10.5 66.999 -28.5c12 -9.33301 21.667 -16.333 29 -21s14.666 -8.33398 21.999 -11.001s13 -2.33398 17 0.999023s7.16699 9.33301 9.5 18s3.5 20.667 3.5 36h58
c0 -39.333 -7 -68.666 -21 -87.999s-31.5 -28.5 -52.5 -27.5s-43.167 10.5 -66.5 28.5c-15.333 11.333 -27.166 19.5 -35.499 24.5s-16.5 7.83301 -24.5 8.5s-13.667 -3.66602 -17 -12.999s-5 -23.666 -5 -42.999h-58zM402.001 -12c-101.333 0 -187 35.167 -257 105.5
s-105 155.833 -105 256.5s35 186.167 105 256.5s155.667 105.5 257 105.5s187 -35.167 257 -105.5s105 -155.833 105 -256.5s-35 -186.167 -105 -256.5s-155.667 -105.5 -257 -105.5zM402.001 56c82.667 0 152 28.5 208 85.5s84 126.5 84 208.5s-28 151.5 -84 208.5
s-125.333 85.5 -208 85.5s-152 -28.5 -208 -85.5s-84 -126.5 -84 -208.5s28 -151.5 84 -208.5s125.333 -85.5 208 -85.5z" />
    <glyph glyph-name="Odieresis" unicode="&#xd6;" horiz-adv-x="804" 
d="M307 775c-12.667 0 -23.334 4.33301 -32.001 13s-13 19.334 -13 32.001s4.33301 23.334 13 32.001s19.334 13 32.001 13s23.334 -4.33301 32.001 -13s13 -19.334 13 -32.001s-4.33301 -23.334 -13 -32.001s-19.334 -13 -32.001 -13zM497 775
c-12.667 0 -23.334 4.33301 -32.001 13s-13 19.334 -13 32.001s4.33301 23.334 13 32.001s19.334 13 32.001 13s23.334 -4.33301 32.001 -13s13 -19.334 13 -32.001s-4.33301 -23.334 -13 -32.001s-19.334 -13 -32.001 -13zM402 -12c-101.333 0 -187 35.167 -257 105.5
s-105 155.833 -105 256.5s35 186.167 105 256.5s155.667 105.5 257 105.5s187 -35.167 257 -105.5s105 -155.833 105 -256.5s-35 -186.167 -105 -256.5s-155.667 -105.5 -257 -105.5zM402 56c82.667 0 152 28.5 208 85.5s84 126.5 84 208.5s-28 151.5 -84 208.5
s-125.333 85.5 -208 85.5s-152 -28.5 -208 -85.5s-84 -126.5 -84 -208.5s28 -151.5 84 -208.5s125.333 -85.5 208 -85.5z" />
    <glyph glyph-name="multiply" unicode="&#xd7;" horiz-adv-x="471" 
d="M421 492l-142 -142l142 -142l-45 -42l-140 141l-141 -141l-45 42l142 142l-142 142l45 42l141 -140l140 140z" />
    <glyph glyph-name="Oslash" unicode="&#xd8;" horiz-adv-x="814" 
d="M668 608c70.667 -70.667 106 -156.667 106 -258c0 -100.667 -35 -186.167 -105 -256.5s-155.667 -105.5 -257 -105.5c-79.333 0 -151 23 -215 69l-49 -57l-47 27l56 65c-71.333 70 -107 156 -107 258c0 100.667 35 186.167 105 256.5s155.667 105.5 257 105.5
c80.667 0 152.667 -23.333 216 -70l49 58l47 -27zM120 350c0 -80 27 -148.667 81 -206l382 446c-50.667 36 -107.667 54 -171 54c-82.667 0 -152 -28.5 -208 -85.5s-84 -126.5 -84 -208.5zM412 56c82.667 0 152 28.5 208 85.5s84 126.5 84 208.5c0 80.667 -27 149 -81 205
l-381 -446c50 -35.333 106.667 -53 170 -53z" />
    <glyph glyph-name="Ugrave" unicode="&#xd9;" horiz-adv-x="660" 
d="M390 770l-80 130h-80l96 -130h64zM330 -12c-77.333 0 -140 22.667 -188 68s-72 106 -72 182v462h70v-462c0 -56 16.667 -100.333 50 -133s80 -49 140 -49s106.667 16.333 140 49s50 77 50 133v462h70v-462c0 -76 -24 -136.667 -72 -182s-110.667 -68 -188 -68z" />
    <glyph glyph-name="Uacute" unicode="&#xda;" horiz-adv-x="660" 
d="M280 770h64l96 130h-80zM330 -12c-77.333 0 -140 22.667 -188 68s-72 106 -72 182v462h70v-462c0 -56 16.667 -100.333 50 -133s80 -49 140 -49s106.667 16.333 140 49s50 77 50 133v462h70v-462c0 -76 -24 -136.667 -72 -182s-110.667 -68 -188 -68z" />
    <glyph glyph-name="Ucircumflex" unicode="&#xdb;" horiz-adv-x="660" 
d="M330 857l-70 -87h-75l106 130h78l106 -130h-75zM520 700h70v-462c0 -76 -24 -136.667 -72 -182s-110.667 -68 -188 -68s-140 22.667 -188 68s-72 106 -72 182v462h70v-462c0 -56 16.667 -100.333 50 -133s80 -49 140 -49s106.667 16.333 140 49s50 77 50 133v462z" />
    <glyph glyph-name="Udieresis" unicode="&#xdc;" horiz-adv-x="660" 
d="M235 775c-12.667 0 -23.334 4.33301 -32.001 13s-13 19.334 -13 32.001s4.33301 23.334 13 32.001s19.334 13 32.001 13s23.334 -4.33301 32.001 -13s13 -19.334 13 -32.001s-4.33301 -23.334 -13 -32.001s-19.334 -13 -32.001 -13zM425 775
c-12.667 0 -23.334 4.33301 -32.001 13s-13 19.334 -13 32.001s4.33301 23.334 13 32.001s19.334 13 32.001 13s23.334 -4.33301 32.001 -13s13 -19.334 13 -32.001s-4.33301 -23.334 -13 -32.001s-19.334 -13 -32.001 -13zM330 -12c-77.333 0 -140 22.667 -188 68
s-72 106 -72 182v462h70v-462c0 -56 16.667 -100.333 50 -133s80 -49 140 -49s106.667 16.333 140 49s50 77 50 133v462h70v-462c0 -76 -24 -136.667 -72 -182s-110.667 -68 -188 -68z" />
    <glyph glyph-name="Yacute" unicode="&#xdd;" horiz-adv-x="595" 
d="M404 900l-96 -130h-64l80 130h80zM585 700l-253 -413v-287h-70v289l-252 411h79l209 -343l208 343h79z" />
    <glyph glyph-name="Thorn" unicode="&#xde;" horiz-adv-x="590" 
d="M330 570c62.667 0 115 -21 157 -63s63 -94.333 63 -157s-21 -115 -63 -157s-94.333 -63 -157 -63h-180v-130h-70v700h70v-130h180zM330 196c43.333 0 79.166 14.5 107.499 43.5s42.5 65.833 42.5 110.5s-14.167 81.5 -42.5 110.5s-64.166 43.5 -107.499 43.5h-180v-308
h180z" />
    <glyph glyph-name="germandbls" unicode="&#xdf;" horiz-adv-x="516" 
d="M289 -3l0.000976562 60.001c94 -5.33301 141 22.667 141 84c0 21.333 -7.5 44 -22.5 68s-31.5 44.833 -49.5 62.5s-34.5 37.667 -49.5 60s-22.5 43.166 -22.5 62.499c0 16.667 7.33301 34.167 22 52.5l44 55.5c14.667 18.667 22 36.334 22 53.001
c0 29.333 -10 52.166 -30 68.499s-46.333 24.5 -79 24.5c-36 0 -66.5 -10.667 -91.5 -32s-37.5 -55 -37.5 -101v-515h-66v515c0 61.333 18.167 109.5 54.5 144.5s83.166 52.5 140.499 52.5c54 0 96.667 -15 128 -45s47 -67.333 47 -112c0 -22 -7.33301 -43.5 -22 -64.5
s-29.334 -39.5 -44.001 -55.5s-22 -29.667 -22 -41c0 -14.667 7.5 -31.5 22.5 -50.5s31.5 -36.833 49.5 -53.5s34.5 -38.5 49.5 -65.5s22.5 -54.833 22.5 -83.5c0 -47.333 -18.167 -84.333 -54.5 -111s-87.166 -37.667 -152.499 -33z" />
    <glyph glyph-name="agrave" unicode="&#xe0;" 
d="M365 570h-64l-96 130h80zM500 500h66v-500h-66v98c-46 -73.333 -113.333 -110 -202 -110c-71.333 0 -132.166 25.333 -182.499 76s-75.5 112.667 -75.5 186s25.167 135.333 75.5 186s111.166 76 182.499 76c88.667 0 156 -36.667 202 -110v98zM303 52
c55.333 0 102 19.167 140 57.5s57 85.166 57 140.499s-19 102.166 -57 140.499s-84.667 57.5 -140 57.5s-102 -19.167 -140 -57.5s-57 -85.166 -57 -140.499s19 -102.166 57 -140.499s84.667 -57.5 140 -57.5z" />
    <glyph glyph-name="aacute" unicode="&#xe1;" 
d="M415 700l-96 -130h-64l80 130h80zM500 500h66v-500h-66v98c-46 -73.333 -113.333 -110 -202 -110c-71.333 0 -132.166 25.333 -182.499 76s-75.5 112.667 -75.5 186s25.167 135.333 75.5 186s111.166 76 182.499 76c88.667 0 156 -36.667 202 -110v98zM303 52
c55.333 0 102 19.167 140 57.5s57 85.166 57 140.499s-19 102.166 -57 140.499s-84.667 57.5 -140 57.5s-102 -19.167 -140 -57.5s-57 -85.166 -57 -140.499s19 -102.166 57 -140.499s84.667 -57.5 140 -57.5z" />
    <glyph glyph-name="acircumflex" unicode="&#xe2;" 
d="M305 657l-70 -87h-75l106 130h78l106 -130h-75zM500 500h66v-500h-66v98c-46 -73.333 -113.333 -110 -202 -110c-71.333 0 -132.166 25.333 -182.499 76s-75.5 112.667 -75.5 186s25.167 135.333 75.5 186s111.166 76 182.499 76c88.667 0 156 -36.667 202 -110v98z
M303 52c55.333 0 102 19.167 140 57.5s57 85.166 57 140.499s-19 102.166 -57 140.499s-84.667 57.5 -140 57.5s-102 -19.167 -140 -57.5s-57 -85.166 -57 -140.499s19 -102.166 57 -140.499s84.667 -57.5 140 -57.5z" />
    <glyph glyph-name="atilde" unicode="&#xe3;" 
d="M305 603c-15.333 11.333 -27.165 19.5 -35.498 24.5s-16.5 7.83301 -24.5 8.5s-13.667 -3.66602 -17 -12.999s-5 -23.666 -5 -42.999h-58c0 39.333 7 68.666 21 87.999s31.667 28.5 53 27.5s43.666 -10.5 66.999 -28.5c12 -9.33301 21.667 -16.333 29 -21
s14.666 -8.33398 21.999 -11.001s13 -2.33398 17 0.999023s7.16699 9.33301 9.5 18s3.5 20.667 3.5 36h58c0 -39.333 -7 -68.666 -21 -87.999s-31.5 -28.5 -52.5 -27.5s-43.167 10.5 -66.5 28.5zM500.001 500h66v-500h-66v98c-46 -73.333 -113.333 -110 -202 -110
c-71.333 0 -132.166 25.333 -182.499 76s-75.5 112.667 -75.5 186s25.167 135.333 75.5 186s111.166 76 182.499 76c88.667 0 156 -36.667 202 -110v98zM303.001 52c55.333 0 102 19.167 140 57.5s57 85.166 57 140.499s-19 102.166 -57 140.499s-84.667 57.5 -140 57.5
s-102 -19.167 -140 -57.5s-57 -85.166 -57 -140.499s19 -102.166 57 -140.499s84.667 -57.5 140 -57.5z" />
    <glyph glyph-name="adieresis" unicode="&#xe4;" 
d="M210 575c-12.667 0 -23.334 4.33301 -32.001 13s-13 19.334 -13 32.001s4.33301 23.334 13 32.001s19.334 13 32.001 13s23.334 -4.33301 32.001 -13s13 -19.334 13 -32.001s-4.33301 -23.334 -13 -32.001s-19.334 -13 -32.001 -13zM400 575
c-12.667 0 -23.334 4.33301 -32.001 13s-13 19.334 -13 32.001s4.33301 23.334 13 32.001s19.334 13 32.001 13s23.334 -4.33301 32.001 -13s13 -19.334 13 -32.001s-4.33301 -23.334 -13 -32.001s-19.334 -13 -32.001 -13zM500 500h66v-500h-66v98
c-46 -73.333 -113.333 -110 -202 -110c-71.333 0 -132.166 25.333 -182.499 76s-75.5 112.667 -75.5 186s25.167 135.333 75.5 186s111.166 76 182.499 76c88.667 0 156 -36.667 202 -110v98zM303 52c55.333 0 102 19.167 140 57.5s57 85.166 57 140.499
s-19 102.166 -57 140.499s-84.667 57.5 -140 57.5s-102 -19.167 -140 -57.5s-57 -85.166 -57 -140.499s19 -102.166 57 -140.499s84.667 -57.5 140 -57.5z" />
    <glyph glyph-name="aring" unicode="&#xe5;" 
d="M305 550c-31.333 0 -56.833 9.5 -76.5 28.5s-29.5 42.833 -29.5 71.5s9.83301 52.5 29.5 71.5s45.167 28.5 76.5 28.5s56.833 -9.5 76.5 -28.5s29.5 -42.833 29.5 -71.5s-9.83301 -52.5 -29.5 -71.5s-45.167 -28.5 -76.5 -28.5zM305 699c-16 0 -28.5 -4.5 -37.5 -13.5
s-13.5 -20.833 -13.5 -35.5s4.5 -26.5 13.5 -35.5s21.5 -13.5 37.5 -13.5c16.667 0 29.5 4.5 38.5 13.5s13.5 20.833 13.5 35.5s-4.5 26.5 -13.5 35.5s-21.833 13.5 -38.5 13.5zM500 500h66v-500h-66v98c-46 -73.333 -113.333 -110 -202 -110
c-71.333 0 -132.166 25.333 -182.499 76s-75.5 112.667 -75.5 186s25.167 135.333 75.5 186s111.166 76 182.499 76c88.667 0 156 -36.667 202 -110v98zM303 52c55.333 0 102 19.167 140 57.5s57 85.166 57 140.499s-19 102.166 -57 140.499s-84.667 57.5 -140 57.5
s-102 -19.167 -140 -57.5s-57 -85.166 -57 -140.499s19 -102.166 57 -140.499s84.667 -57.5 140 -57.5z" />
    <glyph glyph-name="ae" unicode="&#xe6;" horiz-adv-x="1042" 
d="M763 512c75.333 0 134.831 -25.832 178.498 -77.499s65.5 -113.834 65.5 -186.501c0 -7.33301 -0.666992 -17.666 -2 -30.999h-437c6.66699 -50.667 27.334 -90.834 62.001 -120.501s78.334 -44.5 131.001 -44.5c78 0 133 28.333 165 85l58 -34
c-21.333 -35.333 -50.833 -63.333 -88.5 -84s-79.5 -31 -125.5 -31c-94 0 -162 36.333 -204 109v-97h-66v98c-46 -73.333 -113.333 -110 -202 -110c-71.333 0 -132.166 25.333 -182.499 76s-75.5 112.667 -75.5 186s25.167 135.333 75.5 186s111.166 76 182.499 76
c88.667 0 156 -36.667 202 -110v98h66v-100c42 74.667 107.667 112 197 112zM302.998 52.001c55.333 0 102 19.167 140 57.5s57 85.166 57 140.499s-19 102.166 -57 140.499s-84.667 57.5 -140 57.5s-102 -19.167 -140 -57.5s-57 -85.166 -57 -140.499
s19 -102.166 57 -140.499s84.667 -57.5 140 -57.5zM759.998 448.001c-53.333 0 -97.167 -15.333 -131.5 -46s-54.5 -71 -60.5 -121h371c-6 52.667 -25.667 93.667 -59 123s-73.333 44 -120 44z" />
    <glyph glyph-name="ccedilla" unicode="&#xe7;" horiz-adv-x="552" 
d="M527 118c-18.667 -36 -45.5 -65.5029 -80.5 -88.5029s-74.167 -36.5 -117.5 -40.5v-34c28.667 -5.33301 51.334 -15 68.001 -29s25 -31.333 25 -52c0 -68 -68.333 -98 -205 -90v54c98 -8 147 4 147 36c0 25.333 -31 39 -93 41v75
c-67.333 7.33301 -122.666 35.333 -165.999 84s-65 107.334 -65 176.001c0 74 25 136.167 75 186.5s112.667 75.5 188 75.5c49.333 0 93.666 -11.833 132.999 -35.5s68 -55.5 86 -95.5l-54 -31c-13.333 30 -34.833 53.833 -64.5 71.5s-63.167 26.5 -100.5 26.5
c-55.333 0 -102 -19.167 -140 -57.5s-57 -85.166 -57 -140.499s19 -102.166 57 -140.499s84.667 -57.5 140 -57.5c37.333 0 70.666 8.83301 99.999 26.5s52.333 41.5 69 71.5z" />
    <glyph glyph-name="egrave" unicode="&#xe8;" horiz-adv-x="584" 
d="M355 570h-64l-96 130h80zM301 512c74 0 133.833 -26.168 179.5 -78.501s68.5 -114.166 68.5 -185.499c0 -7.33301 -0.666992 -17.666 -2 -30.999h-439c6.66699 -50.667 28.167 -90.834 64.5 -120.501s81.166 -44.5 134.499 -44.5c38 0 70.833 7.83301 98.5 23.5
s48.5 36.167 62.5 61.5l58 -34c-22 -35.333 -52 -63.333 -90 -84s-81.333 -31 -130 -31c-78.667 0 -142.667 24.667 -192 74s-74 112 -74 188c0 74.667 24.333 137 73 187s111.334 75 188.001 75zM301 447.999c-52 0 -95.5 -15.5 -130.5 -46.5s-55.833 -71.167 -62.5 -120.5
h373c-6.66699 52.667 -27 93.667 -61 123s-73.667 44 -119 44z" />
    <glyph glyph-name="eacute" unicode="&#xe9;" horiz-adv-x="584" 
d="M405 700l-96 -130h-64l80 130h80zM301 512c74 0 133.833 -26.168 179.5 -78.501s68.5 -114.166 68.5 -185.499c0 -7.33301 -0.666992 -17.666 -2 -30.999h-439c6.66699 -50.667 28.167 -90.834 64.5 -120.501s81.166 -44.5 134.499 -44.5c38 0 70.833 7.83301 98.5 23.5
s48.5 36.167 62.5 61.5l58 -34c-22 -35.333 -52 -63.333 -90 -84s-81.333 -31 -130 -31c-78.667 0 -142.667 24.667 -192 74s-74 112 -74 188c0 74.667 24.333 137 73 187s111.334 75 188.001 75zM301 447.999c-52 0 -95.5 -15.5 -130.5 -46.5s-55.833 -71.167 -62.5 -120.5
h373c-6.66699 52.667 -27 93.667 -61 123s-73.667 44 -119 44z" />
    <glyph glyph-name="ecircumflex" unicode="&#xea;" horiz-adv-x="584" 
d="M295 657l-70 -87h-75l106 130h78l106 -130h-75zM301 512c74 0 133.833 -26.168 179.5 -78.501s68.5 -114.166 68.5 -185.499c0 -7.33301 -0.666992 -17.666 -2 -30.999h-439c6.66699 -50.667 28.167 -90.834 64.5 -120.501s81.166 -44.5 134.499 -44.5
c38 0 70.833 7.83301 98.5 23.5s48.5 36.167 62.5 61.5l58 -34c-22 -35.333 -52 -63.333 -90 -84s-81.333 -31 -130 -31c-78.667 0 -142.667 24.667 -192 74s-74 112 -74 188c0 74.667 24.333 137 73 187s111.334 75 188.001 75zM301 447.999
c-52 0 -95.5 -15.5 -130.5 -46.5s-55.833 -71.167 -62.5 -120.5h373c-6.66699 52.667 -27 93.667 -61 123s-73.667 44 -119 44z" />
    <glyph glyph-name="edieresis" unicode="&#xeb;" horiz-adv-x="584" 
d="M200 575c-12.667 0 -23.334 4.33301 -32.001 13s-13 19.334 -13 32.001s4.33301 23.334 13 32.001s19.334 13 32.001 13s23.334 -4.33301 32.001 -13s13 -19.334 13 -32.001s-4.33301 -23.334 -13 -32.001s-19.334 -13 -32.001 -13zM390 575
c-12.667 0 -23.334 4.33301 -32.001 13s-13 19.334 -13 32.001s4.33301 23.334 13 32.001s19.334 13 32.001 13s23.334 -4.33301 32.001 -13s13 -19.334 13 -32.001s-4.33301 -23.334 -13 -32.001s-19.334 -13 -32.001 -13zM301 512c74 0 133.833 -26.168 179.5 -78.501
s68.5 -114.166 68.5 -185.499c0 -7.33301 -0.666992 -17.666 -2 -30.999h-439c6.66699 -50.667 28.167 -90.834 64.5 -120.501s81.166 -44.5 134.499 -44.5c38 0 70.833 7.83301 98.5 23.5s48.5 36.167 62.5 61.5l58 -34c-22 -35.333 -52 -63.333 -90 -84
s-81.333 -31 -130 -31c-78.667 0 -142.667 24.667 -192 74s-74 112 -74 188c0 74.667 24.333 137 73 187s111.334 75 188.001 75zM301 447.999c-52 0 -95.5 -15.5 -130.5 -46.5s-55.833 -71.167 -62.5 -120.5h373c-6.66699 52.667 -27 93.667 -61 123s-73.667 44 -119 44z
" />
    <glyph glyph-name="igrave" unicode="&#xec;" horiz-adv-x="206" 
d="M134 570l-50 130h-80l66 -130h64zM136 0h-66v500h66v-500z" />
    <glyph glyph-name="iacute" unicode="&#xed;" horiz-adv-x="206" 
d="M73 570h64l66 130h-80zM70 0v500h66v-500h-66z" />
    <glyph glyph-name="icircumflex" unicode="&#xee;" horiz-adv-x="206" 
d="M142 700l86 -130h-75l-50 76l-50 -76h-75l86 130h78zM70 0v500h66v-500h-66z" />
    <glyph glyph-name="idieresis" unicode="&#xef;" horiz-adv-x="206" 
d="M33 575c-12.667 0 -23.334 4.33301 -32.001 13s-13 19.334 -13 32.001s4.33301 23.334 13 32.001s19.334 13 32.001 13s23.334 -4.33301 32.001 -13s13 -19.334 13 -32.001s-4.33301 -23.334 -13 -32.001s-19.334 -13 -32.001 -13zM173 575
c-12.667 0 -23.334 4.33301 -32.001 13s-13 19.334 -13 32.001s4.33301 23.334 13 32.001s19.334 13 32.001 13s23.334 -4.33301 32.001 -13s13 -19.334 13 -32.001s-4.33301 -23.334 -13 -32.001s-19.334 -13 -32.001 -13zM70 0v500h66v-500h-66z" />
    <glyph glyph-name="eth" unicode="&#xf0;" horiz-adv-x="586" 
d="M500 370c30.667 -41.333 46 -88 46 -140c0 -72 -24.833 -130.333 -74.5 -175s-109.167 -67 -178.5 -67s-128.833 22.333 -178.5 67s-74.5 103 -74.5 175c0 69.333 24.167 126 72.5 170s105.166 66 170.499 66c28.667 0 55.334 -5.33301 80.001 -16l-89 119l-112 -69v60
l82 50l-67 90h77l43 -57l112 69v-60l-82 -50zM293 52c51.333 0 95.334 16.333 132.001 49s55 75.667 55 129c0 42 -10 76.333 -30 103c-35.333 47.333 -87 71 -155 71c-54.667 0 -99.834 -16 -135.501 -48s-53.5 -74 -53.5 -126c0 -53.333 18.333 -96.333 55 -129
s80.667 -49 132 -49z" />
    <glyph glyph-name="ntilde" unicode="&#xf1;" horiz-adv-x="558" 
d="M290 603c-15.333 11.333 -27.165 19.5 -35.498 24.5s-16.5 7.83301 -24.5 8.5s-13.667 -3.66602 -17 -12.999s-5 -23.666 -5 -42.999h-58c0 39.333 7 68.666 21 87.999s31.667 28.5 53 27.5s43.666 -10.5 66.999 -28.5c12 -9.33301 21.667 -16.333 29 -21
s14.666 -8.33398 21.999 -11.001s13 -2.33398 17 0.999023s7.16699 9.33301 9.5 18s3.5 20.667 3.5 36h58c0 -39.333 -7 -68.666 -21 -87.999s-31.5 -28.5 -52.5 -27.5s-43.167 10.5 -66.5 28.5zM304.001 512c60.667 0 108.5 -18.502 143.5 -55.502
s52.5 -86.833 52.5 -149.5v-307h-66v307c0 44.667 -11.833 79.334 -35.5 104.001s-57.167 37 -100.5 37c-48 0 -87 -15.167 -117 -45.5s-45 -77.166 -45 -140.499v-262h-66v500h66v-78c37.333 60 93.333 90 168 90z" />
    <glyph glyph-name="ograve" unicode="&#xf2;" horiz-adv-x="606" 
d="M363 570l-80 130h-80l96 -130h64zM303 -12c-73.333 0 -135.5 25.167 -186.5 75.5s-76.5 112.5 -76.5 186.5s25.5 136.167 76.5 186.5s113.167 75.5 186.5 75.5s135.5 -25.167 186.5 -75.5s76.5 -112.5 76.5 -186.5s-25.5 -136.167 -76.5 -186.5
s-113.167 -75.5 -186.5 -75.5zM303 52c55.333 0 102 19.167 140 57.5s57 85.166 57 140.499s-19 102.166 -57 140.499s-84.667 57.5 -140 57.5s-102 -19.167 -140 -57.5s-57 -85.166 -57 -140.499s19 -102.166 57 -140.499s84.667 -57.5 140 -57.5z" />
    <glyph glyph-name="oacute" unicode="&#xf3;" horiz-adv-x="606" 
d="M253 570h64l96 130h-80zM303 -12c-73.333 0 -135.5 25.167 -186.5 75.5s-76.5 112.5 -76.5 186.5s25.5 136.167 76.5 186.5s113.167 75.5 186.5 75.5s135.5 -25.167 186.5 -75.5s76.5 -112.5 76.5 -186.5s-25.5 -136.167 -76.5 -186.5s-113.167 -75.5 -186.5 -75.5z
M303 52c55.333 0 102 19.167 140 57.5s57 85.166 57 140.499s-19 102.166 -57 140.499s-84.667 57.5 -140 57.5s-102 -19.167 -140 -57.5s-57 -85.166 -57 -140.499s19 -102.166 57 -140.499s84.667 -57.5 140 -57.5z" />
    <glyph glyph-name="ocircumflex" unicode="&#xf4;" horiz-adv-x="606" 
d="M303 657l-70 -87h-75l106 130h78l106 -130h-75zM303 512c73.333 0 135.5 -25.167 186.5 -75.5s76.5 -112.5 76.5 -186.5s-25.5 -136.167 -76.5 -186.5s-113.167 -75.5 -186.5 -75.5s-135.5 25.167 -186.5 75.5s-76.5 112.5 -76.5 186.5s25.5 136.167 76.5 186.5
s113.167 75.5 186.5 75.5zM303 52c55.333 0 102 19.167 140 57.5s57 85.166 57 140.499s-19 102.166 -57 140.499s-84.667 57.5 -140 57.5s-102 -19.167 -140 -57.5s-57 -85.166 -57 -140.499s19 -102.166 57 -140.499s84.667 -57.5 140 -57.5z" />
    <glyph glyph-name="otilde" unicode="&#xf5;" horiz-adv-x="606" 
d="M163 580c0 39.333 7.00098 68.666 21.001 87.999s31.667 28.5 53 27.5s43.666 -10.5 66.999 -28.5c12 -9.33301 21.667 -16.333 29 -21s14.666 -8.33398 21.999 -11.001s13 -2.33398 17 0.999023s7.16699 9.33301 9.5 18s3.5 20.667 3.5 36h58
c0 -39.333 -7 -68.666 -21 -87.999s-31.5 -28.5 -52.5 -27.5s-43.167 10.5 -66.5 28.5c-15.333 11.333 -27.166 19.5 -35.499 24.5s-16.5 7.83301 -24.5 8.5s-13.667 -3.66602 -17 -12.999s-5 -23.666 -5 -42.999h-58zM303.001 -12c-73.333 0 -135.5 25.167 -186.5 75.5
s-76.5 112.5 -76.5 186.5s25.5 136.167 76.5 186.5s113.167 75.5 186.5 75.5s135.5 -25.167 186.5 -75.5s76.5 -112.5 76.5 -186.5s-25.5 -136.167 -76.5 -186.5s-113.167 -75.5 -186.5 -75.5zM303.001 52c55.333 0 102 19.167 140 57.5s57 85.166 57 140.499
s-19 102.166 -57 140.499s-84.667 57.5 -140 57.5s-102 -19.167 -140 -57.5s-57 -85.166 -57 -140.499s19 -102.166 57 -140.499s84.667 -57.5 140 -57.5z" />
    <glyph glyph-name="odieresis" unicode="&#xf6;" horiz-adv-x="606" 
d="M208 575c-12.667 0 -23.334 4.33301 -32.001 13s-13 19.334 -13 32.001s4.33301 23.334 13 32.001s19.334 13 32.001 13s23.334 -4.33301 32.001 -13s13 -19.334 13 -32.001s-4.33301 -23.334 -13 -32.001s-19.334 -13 -32.001 -13zM398 575
c-12.667 0 -23.334 4.33301 -32.001 13s-13 19.334 -13 32.001s4.33301 23.334 13 32.001s19.334 13 32.001 13s23.334 -4.33301 32.001 -13s13 -19.334 13 -32.001s-4.33301 -23.334 -13 -32.001s-19.334 -13 -32.001 -13zM303 -12c-73.333 0 -135.5 25.167 -186.5 75.5
s-76.5 112.5 -76.5 186.5s25.5 136.167 76.5 186.5s113.167 75.5 186.5 75.5s135.5 -25.167 186.5 -75.5s76.5 -112.5 76.5 -186.5s-25.5 -136.167 -76.5 -186.5s-113.167 -75.5 -186.5 -75.5zM303 52c55.333 0 102 19.167 140 57.5s57 85.166 57 140.499
s-19 102.166 -57 140.499s-84.667 57.5 -140 57.5s-102 -19.167 -140 -57.5s-57 -85.166 -57 -140.499s19 -102.166 57 -140.499s84.667 -57.5 140 -57.5z" />
    <glyph glyph-name="divide" unicode="&#xf7;" horiz-adv-x="580" 
d="M290 482c-15.333 0 -28.333 5.33301 -39 16s-16 23.667 -16 39s5.33301 28.333 16 39s23.667 16 39 16s28.333 -5.33301 39 -16s16 -23.667 16 -39s-5.33301 -28.333 -16 -39s-23.667 -16 -39 -16zM60 318v64h460v-64h-460zM290 108c-15.333 0 -28.333 5.33301 -39 16
s-16 23.667 -16 39s5.33301 28.333 16 39s23.667 16 39 16s28.333 -5.33301 39 -16s16 -23.667 16 -39s-5.33301 -28.333 -16 -39s-23.667 -16 -39 -16z" />
    <glyph glyph-name="oslash" unicode="&#xf8;" horiz-adv-x="606" 
d="M495 431c47.333 -50.667 71 -111 71 -181c0 -74 -25.5 -136.167 -76.5 -186.5s-113.167 -75.5 -186.5 -75.5c-58.667 0 -111.334 17 -158.001 51l-39 -44l-40 23l45 51c-47.333 50.667 -71 111 -71 181c0 74 25.5 136.167 76.5 186.5s113.167 75.5 186.5 75.5
c58.667 0 111.334 -17 158.001 -51l39 44l40 -23zM106 250c0 -51.333 16.333 -95.334 49 -132.001l262 294c-33.333 24 -71.333 36 -114 36c-55.333 0 -102 -19.167 -140 -57.5s-57 -85.166 -57 -140.499zM303 51.999c55.333 0 102 19.168 140 57.501s57 85.166 57 140.499
c0 51.333 -16.333 95.333 -49 132l-262 -294c33.333 -24 71.333 -36 114 -36z" />
    <glyph glyph-name="ugrave" unicode="&#xf9;" horiz-adv-x="558" 
d="M331 570h-64l-96 130h80zM422 500l66 0.00195312v-500h-66v78c-37.333 -60 -93.333 -90 -168 -90c-60.667 0 -108.5 18.5 -143.5 55.5s-52.5 86.833 -52.5 149.5v307h66v-307c0 -44.667 11.833 -79.334 35.5 -104.001s57.167 -37 100.5 -37c48 0 87 15.167 117 45.5
s45 77.166 45 140.499v262z" />
    <glyph glyph-name="uacute" unicode="&#xfa;" horiz-adv-x="558" 
d="M381 700l-96 -130h-64l80 130h80zM422 500l66 0.00195312v-500h-66v78c-37.333 -60 -93.333 -90 -168 -90c-60.667 0 -108.5 18.5 -143.5 55.5s-52.5 86.833 -52.5 149.5v307h66v-307c0 -44.667 11.833 -79.334 35.5 -104.001s57.167 -37 100.5 -37
c48 0 87 15.167 117 45.5s45 77.166 45 140.499v262z" />
    <glyph glyph-name="ucircumflex" unicode="&#xfb;" horiz-adv-x="558" 
d="M271 657l-70 -87h-75l106 130h78l106 -130h-75zM422 500l66 0.00195312v-500h-66v78c-37.333 -60 -93.333 -90 -168 -90c-60.667 0 -108.5 18.5 -143.5 55.5s-52.5 86.833 -52.5 149.5v307h66v-307c0 -44.667 11.833 -79.334 35.5 -104.001s57.167 -37 100.5 -37
c48 0 87 15.167 117 45.5s45 77.166 45 140.499v262z" />
    <glyph glyph-name="udieresis" unicode="&#xfc;" horiz-adv-x="558" 
d="M176 575c-12.667 0 -23.334 4.33301 -32.001 13s-13 19.334 -13 32.001s4.33301 23.334 13 32.001s19.334 13 32.001 13s23.334 -4.33301 32.001 -13s13 -19.334 13 -32.001s-4.33301 -23.334 -13 -32.001s-19.334 -13 -32.001 -13zM366 575
c-12.667 0 -23.334 4.33301 -32.001 13s-13 19.334 -13 32.001s4.33301 23.334 13 32.001s19.334 13 32.001 13s23.334 -4.33301 32.001 -13s13 -19.334 13 -32.001s-4.33301 -23.334 -13 -32.001s-19.334 -13 -32.001 -13zM422 500l66 0.00195312v-500h-66v78
c-37.333 -60 -93.333 -90 -168 -90c-60.667 0 -108.5 18.5 -143.5 55.5s-52.5 86.833 -52.5 149.5v307h66v-307c0 -44.667 11.833 -79.334 35.5 -104.001s57.167 -37 100.5 -37c48 0 87 15.167 117 45.5s45 77.166 45 140.499v262z" />
    <glyph glyph-name="yacute" unicode="&#xfd;" horiz-adv-x="510" 
d="M363 700l-96 -130h-64l80 130h80zM430 500l70 -0.000976562l-214 -546c-19.333 -49.333 -46.833 -88.166 -82.5 -116.499s-75.5 -40.833 -119.5 -37.5v62c60 -6.66699 105.667 28 137 104l13 31l-224 503h70l188 -419z" />
    <glyph glyph-name="thorn" unicode="&#xfe;" 
d="M338 512c71.333 0 132.166 -25.333 182.499 -76s75.5 -112.667 75.5 -186s-25.167 -135.333 -75.5 -186s-111.166 -76 -182.499 -76c-88.667 0 -156 36.667 -202 110v-298h-66v900h66v-298c46 73.333 113.333 110 202 110zM333 52c55.333 0 102 19.167 140 57.5
s57 85.166 57 140.499s-19 102.166 -57 140.499s-84.667 57.5 -140 57.5s-102 -19.167 -140 -57.5s-57 -85.166 -57 -140.499s19 -102.166 57 -140.499s84.667 -57.5 140 -57.5z" />
    <glyph glyph-name="ydieresis" unicode="&#xff;" horiz-adv-x="510" 
d="M158 575c-12.667 0 -23.334 4.33301 -32.001 13s-13 19.334 -13 32.001s4.33301 23.334 13 32.001s19.334 13 32.001 13s23.334 -4.33301 32.001 -13s13 -19.334 13 -32.001s-4.33301 -23.334 -13 -32.001s-19.334 -13 -32.001 -13zM348 575
c-12.667 0 -23.334 4.33301 -32.001 13s-13 19.334 -13 32.001s4.33301 23.334 13 32.001s19.334 13 32.001 13s23.334 -4.33301 32.001 -13s13 -19.334 13 -32.001s-4.33301 -23.334 -13 -32.001s-19.334 -13 -32.001 -13zM430 500l70 -0.000976562l-214 -546
c-19.333 -49.333 -46.833 -88.166 -82.5 -116.499s-75.5 -40.833 -119.5 -37.5v62c60 -6.66699 105.667 28 137 104l13 31l-224 503h70l188 -419z" />
    <glyph glyph-name="Amacron" unicode="&#x100;" horiz-adv-x="630" 
d="M445 838v-58h-260v58h260zM546 0l-65 172h-332l-65 -172h-74l269 700h72l269 -700h-74zM174 238h282l-141 375z" />
    <glyph glyph-name="amacron" unicode="&#x101;" 
d="M435 638v-58h-260v58h260zM500 500h66v-500h-66v98c-46 -73.333 -113.333 -110 -202 -110c-71.333 0 -132.166 25.333 -182.499 76s-75.5 112.667 -75.5 186s25.167 135.333 75.5 186s111.166 76 182.499 76c88.667 0 156 -36.667 202 -110v98zM303 52
c55.333 0 102 19.167 140 57.5s57 85.166 57 140.499s-19 102.166 -57 140.499s-84.667 57.5 -140 57.5s-102 -19.167 -140 -57.5s-57 -85.166 -57 -140.499s19 -102.166 57 -140.499s84.667 -57.5 140 -57.5z" />
    <glyph glyph-name="Abreve" unicode="&#x102;" horiz-adv-x="630" 
d="M315 762c-42.667 0 -76.667 11.5 -102 34.5s-38 54.833 -38 95.5h64c0 -48 25.333 -72 76 -72s76 24 76 72h64c0 -41.333 -12.5 -73.333 -37.5 -96s-59.167 -34 -102.5 -34zM546 0l-65 172h-332l-65 -172h-74l269 700h72l269 -700h-74zM174 238h282l-141 375z" />
    <glyph glyph-name="abreve" unicode="&#x103;" 
d="M305 562c-42.667 0 -76.667 11.5 -102 34.5s-38 54.833 -38 95.5h64c0 -48 25.333 -72 76 -72s76 24 76 72h64c0 -41.333 -12.5 -73.333 -37.5 -96s-59.167 -34 -102.5 -34zM500 500h66v-500h-66v98c-46 -73.333 -113.333 -110 -202 -110
c-71.333 0 -132.166 25.333 -182.499 76s-75.5 112.667 -75.5 186s25.167 135.333 75.5 186s111.166 76 182.499 76c88.667 0 156 -36.667 202 -110v98zM303 52c55.333 0 102 19.167 140 57.5s57 85.166 57 140.499s-19 102.166 -57 140.499s-84.667 57.5 -140 57.5
s-102 -19.167 -140 -57.5s-57 -85.166 -57 -140.499s19 -102.166 57 -140.499s84.667 -57.5 140 -57.5z" />
    <glyph glyph-name="Aogonek" unicode="&#x104;" horiz-adv-x="630" 
d="M544 -124c0 -20.667 11.333 -30.998 34 -30.998c14 0 28 3 42 9v-55c-18 -7.33301 -37.667 -11 -59 -11c-26 0 -46.167 7 -60.5 21s-21.5 32.333 -21.5 55c0 44 24 89.333 72 136h-5l-65 172h-332l-65 -172h-74l269 700h72l269 -700
c-22.667 -20.667 -41 -42.334 -55 -65.001s-21 -42.334 -21 -59.001zM174 238.002h282l-141 375z" />
    <glyph glyph-name="aogonek" unicode="&#x105;" 
d="M566 0c-22.667 -20.667 -41 -42.332 -55 -64.999s-21 -42.334 -21 -59.001c0 -20.667 11.333 -31 34 -31c14 0 28 3 42 9v-55c-18 -7.33301 -37.667 -11 -59 -11c-26 0 -46.167 7 -60.5 21s-21.5 32.333 -21.5 55c0 42.667 25 92 75 148v86
c-46 -73.333 -113.333 -110 -202 -110c-71.333 0 -132.166 25.333 -182.499 76s-75.5 112.667 -75.5 186s25.167 135.333 75.5 186s111.166 76 182.499 76c88.667 0 156 -36.667 202 -110v98h66v-500zM303 52.002c55.333 0 102 19.167 140 57.5s57 85.166 57 140.499
s-19 102.166 -57 140.499s-84.667 57.5 -140 57.5s-102 -19.167 -140 -57.5s-57 -85.166 -57 -140.499s19 -102.166 57 -140.499s84.667 -57.5 140 -57.5z" />
    <glyph glyph-name="Cacute" unicode="&#x106;" horiz-adv-x="745" 
d="M357 770h64l96 130h-80zM407 -12c-106 0 -193.667 35.002 -263 105.002s-104 155.667 -104 257s34.667 187 104 257s157 105 263 105c64.667 0 124 -15.5 178 -46.5s95.667 -72.833 125 -125.5l-62 -36c-22 42.667 -54.667 76.667 -98 102s-91 38 -143 38
c-87.333 0 -158.666 -28.333 -213.999 -85s-83 -126.334 -83 -209.001s27.667 -152.334 83 -209.001s126.666 -85 213.999 -85c52 0 99.667 12.667 143 38s76 59.333 98 102l62 -35c-28.667 -52.667 -70.167 -94.667 -124.5 -126s-113.833 -47 -178.5 -47z" />
    <glyph glyph-name="cacute" unicode="&#x107;" horiz-adv-x="552" 
d="M242 570h64l96 130h-80zM303 -12c-75.333 0 -137.998 25.165 -187.998 75.498s-75 112.5 -75 186.5s25 136.167 75 186.5s112.667 75.5 188 75.5c49.333 0 93.666 -11.833 132.999 -35.5s68 -55.5 86 -95.5l-54 -31c-13.333 30 -34.833 53.833 -64.5 71.5
s-63.167 26.5 -100.5 26.5c-55.333 0 -102 -19.167 -140 -57.5s-57 -85.166 -57 -140.499s19 -102.166 57 -140.499s84.667 -57.5 140 -57.5c37.333 0 70.666 8.83301 99.999 26.5s52.333 41.5 69 71.5l55 -32c-20.667 -40 -51 -71.667 -91 -95s-84.333 -35 -133 -35z" />
    <glyph glyph-name="Cdotaccent" unicode="&#x10a;" horiz-adv-x="745" 
d="M407 770c-15.333 0 -28.333 5.33301 -39 16s-16 23.667 -16 39s5.33301 28.333 16 39s23.667 16 39 16s28.333 -5.33301 39 -16s16 -23.667 16 -39s-5.33301 -28.333 -16 -39s-23.667 -16 -39 -16zM407 -12c-106 0 -193.667 35.002 -263 105.002s-104 155.667 -104 257
s34.667 187 104 257s157 105 263 105c64.667 0 124 -15.5 178 -46.5s95.667 -72.833 125 -125.5l-62 -36c-22 42.667 -54.667 76.667 -98 102s-91 38 -143 38c-87.333 0 -158.666 -28.333 -213.999 -85s-83 -126.334 -83 -209.001s27.667 -152.334 83 -209.001
s126.666 -85 213.999 -85c52 0 99.667 12.667 143 38s76 59.333 98 102l62 -35c-28.667 -52.667 -70.167 -94.667 -124.5 -126s-113.833 -47 -178.5 -47z" />
    <glyph glyph-name="cdotaccent" unicode="&#x10b;" horiz-adv-x="552" 
d="M292 570c-15.333 0 -28.333 5.33301 -39 16s-16 23.667 -16 39s5.33301 28.333 16 39s23.667 16 39 16s28.333 -5.33301 39 -16s16 -23.667 16 -39s-5.33301 -28.333 -16 -39s-23.667 -16 -39 -16zM303 -12c-75.333 0 -137.998 25.165 -187.998 75.498
s-75 112.5 -75 186.5s25 136.167 75 186.5s112.667 75.5 188 75.5c49.333 0 93.666 -11.833 132.999 -35.5s68 -55.5 86 -95.5l-54 -31c-13.333 30 -34.833 53.833 -64.5 71.5s-63.167 26.5 -100.5 26.5c-55.333 0 -102 -19.167 -140 -57.5s-57 -85.166 -57 -140.499
s19 -102.166 57 -140.499s84.667 -57.5 140 -57.5c37.333 0 70.666 8.83301 99.999 26.5s52.333 41.5 69 71.5l55 -32c-20.667 -40 -51 -71.667 -91 -95s-84.333 -35 -133 -35z" />
    <glyph glyph-name="Ccaron" unicode="&#x10c;" horiz-adv-x="745" 
d="M368 770l-106 130h75l70 -87l70 87h75l-106 -130h-78zM407 56c52 0 99.667 12.6689 143 38.002s76 59.333 98 102l62 -35c-28.667 -52.667 -70.167 -94.667 -124.5 -126s-113.833 -47 -178.5 -47c-106 0 -193.667 35 -263 105s-104 155.667 -104 257s34.667 187 104 257
s157 105 263 105c64.667 0 124 -15.5 178 -46.5s95.667 -72.833 125 -125.5l-62 -36c-22 42.667 -54.667 76.667 -98 102s-91 38 -143 38c-87.333 0 -158.666 -28.333 -213.999 -85s-83 -126.334 -83 -209.001s27.667 -152.334 83 -209.001s126.666 -85 213.999 -85z" />
    <glyph glyph-name="ccaron" unicode="&#x10d;" horiz-adv-x="552" 
d="M253 570l-106 130h75l70 -87l70 87h75l-106 -130h-78zM472 150l55.002 -32.002c-20.667 -40 -51 -71.667 -91 -95s-84.333 -35 -133 -35c-75.333 0 -138 25.167 -188 75.5s-75 112.5 -75 186.5s25 136.167 75 186.5s112.667 75.5 188 75.5
c49.333 0 93.666 -11.833 132.999 -35.5s68 -55.5 86 -95.5l-54 -31c-13.333 30 -34.833 53.833 -64.5 71.5s-63.167 26.5 -100.5 26.5c-55.333 0 -102 -19.167 -140 -57.5s-57 -85.166 -57 -140.499s19 -102.166 57 -140.499s84.667 -57.5 140 -57.5
c37.333 0 70.666 8.83301 99.999 26.5s52.333 41.5 69 71.5z" />
    <glyph glyph-name="Dcaron" unicode="&#x10e;" horiz-adv-x="720" 
d="M311 770l-106 130h75l70 -87l70 87h75l-106 -130h-78zM350 700c95.333 0 174.166 -33.833 236.499 -101.5s93.5 -150.5 93.5 -248.5s-31.167 -180.833 -93.5 -248.5s-141.166 -101.5 -236.499 -101.5h-270v700h270zM350 66c76.667 0 139.5 27.333 188.5 82
s73.5 122 73.5 202s-24.5 147.333 -73.5 202s-111.833 82 -188.5 82h-200v-568h200z" />
    <glyph glyph-name="dcaron" unicode="&#x10f;" horiz-adv-x="702" 
d="M500 402v298h66v-700h-66v98c-46 -73.333 -113.333 -110 -202 -110c-71.333 0 -132.166 25.333 -182.499 76s-75.5 112.667 -75.5 186s25.167 135.333 75.5 186s111.166 76 182.499 76c88.667 0 156 -36.667 202 -110zM646 700h66l-30 -170h-46zM303 52
c55.333 0 102 19.167 140 57.5s57 85.166 57 140.499s-19 102.166 -57 140.499s-84.667 57.5 -140 57.5s-102 -19.167 -140 -57.5s-57 -85.166 -57 -140.499s19 -102.166 57 -140.499s84.667 -57.5 140 -57.5z" />
    <glyph glyph-name="Dcroat" unicode="&#x110;" horiz-adv-x="740" 
d="M370 700c95.333 0 174.166 -33.833 236.499 -101.5s93.5 -150.5 93.5 -248.5s-31.167 -180.833 -93.5 -248.5s-141.166 -101.5 -236.499 -101.5h-270v318h-70v64h70v318h270zM370 66c76.667 0 139.5 27.333 188.5 82s73.5 122 73.5 202s-24.5 147.333 -73.5 202
s-111.833 82 -188.5 82h-200v-252h220v-64h-220v-252h200z" />
    <glyph glyph-name="dcroat" unicode="&#x111;" horiz-adv-x="646" 
d="M636 630v-54h-70v-576h-66v98c-46 -73.333 -113.333 -110 -202 -110c-71.333 0 -132.166 25.333 -182.499 76s-75.5 112.667 -75.5 186s25.167 135.333 75.5 186s111.166 76 182.499 76c88.667 0 156 -36.667 202 -110v174h-184v54h184v70h66v-70h70zM303 52
c55.333 0 102 19.167 140 57.5s57 85.166 57 140.499s-19 102.166 -57 140.499s-84.667 57.5 -140 57.5s-102 -19.167 -140 -57.5s-57 -85.166 -57 -140.499s19 -102.166 57 -140.499s84.667 -57.5 140 -57.5z" />
    <glyph glyph-name="Emacron" unicode="&#x112;" horiz-adv-x="530" 
d="M413 838v-58h-260v58h260zM150 66h340v-66h-410v700h405v-66h-335v-248h310v-66h-310v-254z" />
    <glyph glyph-name="emacron" unicode="&#x113;" horiz-adv-x="584" 
d="M425 638v-58h-260v58h260zM301 512c74 0 133.833 -26.168 179.5 -78.501s68.5 -114.166 68.5 -185.499c0 -7.33301 -0.666992 -17.666 -2 -30.999h-439c6.66699 -50.667 28.167 -90.834 64.5 -120.501s81.166 -44.5 134.499 -44.5c38 0 70.833 7.83301 98.5 23.5
s48.5 36.167 62.5 61.5l58 -34c-22 -35.333 -52 -63.333 -90 -84s-81.333 -31 -130 -31c-78.667 0 -142.667 24.667 -192 74s-74 112 -74 188c0 74.667 24.333 137 73 187s111.334 75 188.001 75zM301 447.999c-52 0 -95.5 -15.5 -130.5 -46.5s-55.833 -71.167 -62.5 -120.5
h373c-6.66699 52.667 -27 93.667 -61 123s-73.667 44 -119 44z" />
    <glyph glyph-name="Edotaccent" unicode="&#x116;" horiz-adv-x="530" 
d="M283 770c-15.333 0 -28.333 5.33301 -39 16s-16 23.667 -16 39s5.33301 28.333 16 39s23.667 16 39 16s28.333 -5.33301 39 -16s16 -23.667 16 -39s-5.33301 -28.333 -16 -39s-23.667 -16 -39 -16zM150 66h340v-66h-410v700h405v-66h-335v-248h310v-66h-310v-254z" />
    <glyph glyph-name="edotaccent" unicode="&#x117;" horiz-adv-x="584" 
d="M295 570c-15.333 0 -28.333 5.33301 -39 16s-16 23.667 -16 39s5.33301 28.333 16 39s23.667 16 39 16s28.333 -5.33301 39 -16s16 -23.667 16 -39s-5.33301 -28.333 -16 -39s-23.667 -16 -39 -16zM301 512c74 0 133.833 -26.168 179.5 -78.501
s68.5 -114.166 68.5 -185.499c0 -7.33301 -0.666992 -17.666 -2 -30.999h-439c6.66699 -50.667 28.167 -90.834 64.5 -120.501s81.166 -44.5 134.499 -44.5c38 0 70.833 7.83301 98.5 23.5s48.5 36.167 62.5 61.5l58 -34c-22 -35.333 -52 -63.333 -90 -84
s-81.333 -31 -130 -31c-78.667 0 -142.667 24.667 -192 74s-74 112 -74 188c0 74.667 24.333 137 73 187s111.334 75 188.001 75zM301 447.999c-52 0 -95.5 -15.5 -130.5 -46.5s-55.833 -71.167 -62.5 -120.5h373c-6.66699 52.667 -27 93.667 -61 123s-73.667 44 -119 44z
" />
    <glyph glyph-name="Eogonek" unicode="&#x118;" horiz-adv-x="530" 
d="M490 0c-22.667 -20.667 -41 -42.332 -55 -64.999s-21 -42.334 -21 -59.001c0 -20.667 11.333 -31 34 -31c14 0 28 3 42 9v-55c-18 -7.33301 -37.667 -11 -59 -11c-26 0 -46.167 7 -60.5 21s-21.5 32.333 -21.5 55c0 44 24 89.333 72 136h-341v700h405v-66h-335v-248h310
v-66h-310v-254h340v-66z" />
    <glyph glyph-name="eogonek" unicode="&#x119;" horiz-adv-x="584" 
d="M301 512c74 0 133.833 -26.1689 179.5 -78.502s68.5 -114.166 68.5 -185.499c0 -7.33301 -0.666992 -17.666 -2 -30.999h-439c6.66699 -50.667 28.167 -90.834 64.5 -120.501s81.166 -44.5 134.499 -44.5c38 0 70.833 7.83301 98.5 23.5s48.5 36.167 62.5 61.5l58 -34
c-9.33301 -15.333 -22.666 -31.666 -39.999 -48.999c-76.667 -82.667 -115 -142 -115 -178c0 -20.667 11.333 -31 34 -31c14 0 28 3 42 9v-55c-18 -7.33301 -37.667 -11 -59 -11c-26 0 -46.167 7 -60.5 21s-21.5 32.333 -21.5 55c0 43.333 21.667 87 65 131
c-18.667 -4.66699 -40.334 -7 -65.001 -7c-78.667 0 -142.667 24.667 -192 74s-74 112 -74 188c0 74.667 24.333 137 73 187s111.334 75 188.001 75zM301 447.998c-52 0 -95.5 -15.5 -130.5 -46.5s-55.833 -71.167 -62.5 -120.5h373c-6.66699 52.667 -27 93.667 -61 123
s-73.667 44 -119 44z" />
    <glyph glyph-name="Ecaron" unicode="&#x11a;" horiz-adv-x="530" 
d="M244 770l-106 130h75l70 -87l70 87h75l-106 -130h-78zM150 66h340v-66h-410v700h405v-66h-335v-248h310v-66h-310v-254z" />
    <glyph glyph-name="ecaron" unicode="&#x11b;" horiz-adv-x="584" 
d="M256 570l-106 130h75l70 -87l70 87h75l-106 -130h-78zM301 512c74 0 133.833 -26.168 179.5 -78.501s68.5 -114.166 68.5 -185.499c0 -7.33301 -0.666992 -17.666 -2 -30.999h-439c6.66699 -50.667 28.167 -90.834 64.5 -120.501s81.166 -44.5 134.499 -44.5
c38 0 70.833 7.83301 98.5 23.5s48.5 36.167 62.5 61.5l58 -34c-22 -35.333 -52 -63.333 -90 -84s-81.333 -31 -130 -31c-78.667 0 -142.667 24.667 -192 74s-74 112 -74 188c0 74.667 24.333 137 73 187s111.334 75 188.001 75zM301 447.999
c-52 0 -95.5 -15.5 -130.5 -46.5s-55.833 -71.167 -62.5 -120.5h373c-6.66699 52.667 -27 93.667 -61 123s-73.667 44 -119 44z" />
    <glyph glyph-name="Gbreve" unicode="&#x11e;" horiz-adv-x="789" 
d="M392 762c-42.667 0 -76.667 11.5 -102 34.5s-38 54.833 -38 95.5h64c0 -48 25.333 -72 76 -72s76 24 76 72h64c0 -41.333 -12.5 -73.333 -37.5 -96s-59.167 -34 -102.5 -34zM749 333v-35.9971c0 -86.667 -31 -159.834 -93 -219.501s-145 -89.5 -249 -89.5
c-106 0 -193.667 35 -263 105s-104 155.667 -104 257s34.667 187 104 257s157 105 263 105c64.667 0 124 -15.667 178 -47s95.667 -73 125 -125l-62 -36c-22 42.667 -54.667 76.667 -98 102s-91 38 -143 38c-87.333 0 -158.666 -28.333 -213.999 -85
s-83 -126.334 -83 -209.001s27.667 -152.334 83 -209.001s126.666 -85 213.999 -85c78.667 0 141.667 19.833 189 59.5s74.333 90.167 81 151.5h-278v66h350z" />
    <glyph glyph-name="gbreve" unicode="&#x11f;" 
d="M308 562c-42.667 0 -76.667 11.5 -102 34.5s-38 54.833 -38 95.5h64c0 -48 25.333 -72 76 -72s76 24 76 72h64c0 -41.333 -12.5 -73.333 -37.5 -96s-59.167 -34 -102.5 -34zM500 500l66 0.000976562v-480c0 -72 -24.667 -128.667 -74 -170s-108.333 -62 -177 -62
c-117.333 0 -196.333 40.667 -237 122l58 33c30 -60.667 89.667 -91 179 -91c57.333 0 102.5 15.167 135.5 45.5s49.5 71.166 49.5 122.499v78c-46 -73.333 -113.333 -110 -202 -110c-71.333 0 -132.166 25.333 -182.499 76s-75.5 112.667 -75.5 186
s25.167 135.333 75.5 186s111.166 76 182.499 76c88.667 0 156 -36.667 202 -110v98zM303 52.001c55.333 0 102 19.167 140 57.5s57 85.166 57 140.499s-19 102.166 -57 140.499s-84.667 57.5 -140 57.5s-102 -19.167 -140 -57.5s-57 -85.166 -57 -140.499
s19 -102.166 57 -140.499s84.667 -57.5 140 -57.5z" />
    <glyph glyph-name="Gdotaccent" unicode="&#x120;" horiz-adv-x="789" 
d="M392 770c-15.333 0 -28.333 5.33301 -39 16s-16 23.667 -16 39s5.33301 28.333 16 39s23.667 16 39 16s28.333 -5.33301 39 -16s16 -23.667 16 -39s-5.33301 -28.333 -16 -39s-23.667 -16 -39 -16zM749 333v-35.9971c0 -86.667 -31 -159.834 -93 -219.501
s-145 -89.5 -249 -89.5c-106 0 -193.667 35 -263 105s-104 155.667 -104 257s34.667 187 104 257s157 105 263 105c64.667 0 124 -15.667 178 -47s95.667 -73 125 -125l-62 -36c-22 42.667 -54.667 76.667 -98 102s-91 38 -143 38c-87.333 0 -158.666 -28.333 -213.999 -85
s-83 -126.334 -83 -209.001s27.667 -152.334 83 -209.001s126.666 -85 213.999 -85c78.667 0 141.667 19.833 189 59.5s74.333 90.167 81 151.5h-278v66h350z" />
    <glyph glyph-name="gdotaccent" unicode="&#x121;" 
d="M308 570c-15.333 0 -28.333 5.33301 -39 16s-16 23.667 -16 39s5.33301 28.333 16 39s23.667 16 39 16s28.333 -5.33301 39 -16s16 -23.667 16 -39s-5.33301 -28.333 -16 -39s-23.667 -16 -39 -16zM500 500l66 0.000976562v-480c0 -72 -24.667 -128.667 -74 -170
s-108.333 -62 -177 -62c-117.333 0 -196.333 40.667 -237 122l58 33c30 -60.667 89.667 -91 179 -91c57.333 0 102.5 15.167 135.5 45.5s49.5 71.166 49.5 122.499v78c-46 -73.333 -113.333 -110 -202 -110c-71.333 0 -132.166 25.333 -182.499 76s-75.5 112.667 -75.5 186
s25.167 135.333 75.5 186s111.166 76 182.499 76c88.667 0 156 -36.667 202 -110v98zM303 52.001c55.333 0 102 19.167 140 57.5s57 85.166 57 140.499s-19 102.166 -57 140.499s-84.667 57.5 -140 57.5s-102 -19.167 -140 -57.5s-57 -85.166 -57 -140.499
s19 -102.166 57 -140.499s84.667 -57.5 140 -57.5z" />
    <glyph glyph-name="Gcommaaccent" unicode="&#x122;" horiz-adv-x="789" 
d="M749 333v-35.9971c0 -86.667 -31 -159.834 -93 -219.501s-145 -89.5 -249 -89.5c-106 0 -193.667 35 -263 105s-104 155.667 -104 257s34.667 187 104 257s157 105 263 105c64.667 0 124 -15.667 178 -47s95.667 -73 125 -125l-62 -36c-22 42.667 -54.667 76.667 -98 102
s-91 38 -143 38c-87.333 0 -158.666 -28.333 -213.999 -85s-83 -126.334 -83 -209.001s27.667 -152.334 83 -209.001s126.666 -85 213.999 -85c78.667 0 141.667 19.833 189 59.5s74.333 90.167 81 151.5h-278v66h350zM385 -239.997l10 170h66l-30 -170h-46z" />
    <glyph glyph-name="gcommaaccent" unicode="&#x123;" 
d="M345 760l-10 -170h-66l30 170h46zM500 500l66 0.000976562v-480c0 -72 -24.667 -128.667 -74 -170s-108.333 -62 -177 -62c-117.333 0 -196.333 40.667 -237 122l58 33c30 -60.667 89.667 -91 179 -91c57.333 0 102.5 15.167 135.5 45.5s49.5 71.166 49.5 122.499v78
c-46 -73.333 -113.333 -110 -202 -110c-71.333 0 -132.166 25.333 -182.499 76s-75.5 112.667 -75.5 186s25.167 135.333 75.5 186s111.166 76 182.499 76c88.667 0 156 -36.667 202 -110v98zM303 52.001c55.333 0 102 19.167 140 57.5s57 85.166 57 140.499
s-19 102.166 -57 140.499s-84.667 57.5 -140 57.5s-102 -19.167 -140 -57.5s-57 -85.166 -57 -140.499s19 -102.166 57 -140.499s84.667 -57.5 140 -57.5z" />
    <glyph glyph-name="Hbar" unicode="&#x126;" horiz-adv-x="730" 
d="M690 568v-56h-65v-512h-70v327h-380v-327h-70v512h-65v56h65v132h70v-132h380v132h70v-132h65zM555 393v119h-380v-119h380z" />
    <glyph glyph-name="hbar" unicode="&#x127;" horiz-adv-x="568" 
d="M314 512c60.667 0 108.5 -18.502 143.5 -55.502s52.5 -86.833 52.5 -149.5v-307h-66v307c0 44.667 -11.833 79.334 -35.5 104.001s-57.167 37 -100.5 37c-48 0 -87 -15.167 -117 -45.5s-45 -77.166 -45 -140.499v-262h-66v576h-70v54h70v70h66v-70h144v-54h-144v-154
c37.333 60 93.333 90 168 90z" />
    <glyph glyph-name="Imacron" unicode="&#x12a;" horiz-adv-x="230" 
d="M-15 780v58h260v-58h-260zM80 700h70v-700h-70v700z" />
    <glyph glyph-name="imacron" unicode="&#x12b;" horiz-adv-x="206" 
d="M3 580v58h200v-58h-200zM70 0v500h66v-500h-66z" />
    <glyph glyph-name="Iogonek" unicode="&#x12e;" horiz-adv-x="230" 
d="M139 -155c14 0 28.001 2.99805 42.001 8.99805v-55c-18 -7.33301 -37.667 -11 -59 -11c-26 0 -46.167 7 -60.5 21s-21.5 32.333 -21.5 55c0 40.667 13.333 86.334 40 137.001v699h70v-700l-24 -44.5c-4.66699 -9 -9.33398 -21.167 -14.001 -36.5s-7 -29.666 -7 -42.999
c0 -20.667 11.333 -31 34 -31z" />
    <glyph glyph-name="iogonek" unicode="&#x12f;" horiz-adv-x="206" 
d="M103 606c-13.333 0 -24.666 4.66699 -33.999 14s-14 20.666 -14 33.999s4.66699 24.666 14 33.999s20.666 14 33.999 14s24.666 -4.66699 33.999 -14s14 -20.666 14 -33.999s-4.66699 -24.666 -14 -33.999s-20.666 -14 -33.999 -14zM129 -155c14 0 28 3 42 9v-55
c-18 -7.33301 -37.667 -11 -59 -11c-25.333 0 -45.333 8.5 -60 25.5s-22 37.167 -22 60.5c0 37.333 13.333 81 40 131v495h66v-500c-27.333 -44 -41 -82 -41 -114c0 -11.333 3.16699 -21 9.5 -29s14.5 -12 24.5 -12z" />
    <glyph glyph-name="Idotaccent" unicode="&#x130;" horiz-adv-x="230" 
d="M115 770c-15.333 0 -28.333 5.33301 -39 16s-16 23.667 -16 39s5.33301 28.333 16 39s23.667 16 39 16s28.333 -5.33301 39 -16s16 -23.667 16 -39s-5.33301 -28.333 -16 -39s-23.667 -16 -39 -16zM80 700h70v-700h-70v700z" />
    <glyph glyph-name="dotlessi" unicode="&#x131;" horiz-adv-x="206" 
d="M70 0v500h66v-500h-66z" />
    <glyph glyph-name="Kcommaaccent" unicode="&#x136;" horiz-adv-x="580" 
d="M224 360l346 -360h-92l-328 339v-339h-70v700h70v-320l318 320h92zM265 -240l10 170h66l-30 -170h-46z" />
    <glyph glyph-name="kcommaaccent" unicode="&#x137;" horiz-adv-x="494" 
d="M206 260l268 -260h-88l-250 241v-241h-66v700h66v-421l238 221h90zM223 -240l10 170h66l-30 -170h-46z" />
    <glyph glyph-name="Lacute" unicode="&#x139;" horiz-adv-x="490" 
d="M242 900l-96 -130h-64l80 130h80zM150 66h320v-66h-390v700h70v-634z" />
    <glyph glyph-name="lacute" unicode="&#x13a;" horiz-adv-x="206" 
d="M70 770h64l96 130h-80zM70 0v730h66v-730h-66z" />
    <glyph glyph-name="Lcommaaccent" unicode="&#x13b;" horiz-adv-x="490" 
d="M150 66h320v-66h-390v700h70v-634zM243 -240l10 170h66l-30 -170h-46z" />
    <glyph glyph-name="lcommaaccent" unicode="&#x13c;" horiz-adv-x="206" 
d="M70 0v730h66v-730h-66zM107 -240l30 170h-66l-10 -170h46z" />
    <glyph glyph-name="Lcaron" unicode="&#x13d;" horiz-adv-x="490" 
d="M150 66h320v-66h-390v700h70v-634zM332 700l-30 -170h-46l10 170h66z" />
    <glyph glyph-name="lcaron" unicode="&#x13e;" horiz-adv-x="272" 
d="M70 0v730h66v-730h-66zM252 560l30 170h-66l-10 -170h46z" />
    <glyph glyph-name="Lslash" unicode="&#x141;" horiz-adv-x="510" 
d="M170 66h320v-66h-390v244l-60 -35v63l60 35v393h70v-351l170 100v-63l-170 -100v-220z" />
    <glyph glyph-name="lslash" unicode="&#x142;" horiz-adv-x="240" 
d="M220 460v-63l-67 -46v-351h-66v306l-67 -46v63l67 46v361h66v-316z" />
    <glyph glyph-name="Nacute" unicode="&#x143;" horiz-adv-x="680" 
d="M290 770h64l96 130h-80zM530 700h70v-700h-60l-390 570v-570h-70v700h60l390 -570v570z" />
    <glyph glyph-name="nacute" unicode="&#x144;" horiz-adv-x="558" 
d="M400 700l-96 -130h-64l80 130h80zM304 512c60.667 0 108.5 -18.502 143.5 -55.502s52.5 -86.833 52.5 -149.5v-307h-66v307c0 44.667 -11.833 79.334 -35.5 104.001s-57.167 37 -100.5 37c-48 0 -87 -15.167 -117 -45.5s-45 -77.166 -45 -140.499v-262h-66v500h66v-78
c37.333 60 93.333 90 168 90z" />
    <glyph glyph-name="Ncommaaccent" unicode="&#x145;" horiz-adv-x="680" 
d="M530 700h70v-700h-60l-390 570v-570h-70v700h60l390 -570v570zM344 -240l30 170h-66l-10 -170h46z" />
    <glyph glyph-name="ncommaaccent" unicode="&#x146;" horiz-adv-x="558" 
d="M304 512c60.667 0 108.5 -18.502 143.5 -55.502s52.5 -86.833 52.5 -149.5v-307h-66v307c0 44.667 -11.833 79.334 -35.5 104.001s-57.167 37 -100.5 37c-48 0 -87 -15.167 -117 -45.5s-45 -77.166 -45 -140.499v-262h-66v500h66v-78c37.333 60 93.333 90 168 90z
M251 -240.002l10 170h66l-30 -170h-46z" />
    <glyph glyph-name="Ncaron" unicode="&#x147;" horiz-adv-x="680" 
d="M301 770l-106 130h75l70 -87l70 87h75l-106 -130h-78zM530 700h70v-700h-60l-390 570v-570h-70v700h60l390 -570v570z" />
    <glyph glyph-name="ncaron" unicode="&#x148;" horiz-adv-x="558" 
d="M251 570l-106 130h75l70 -87l70 87h75l-106 -130h-78zM304 512c60.667 0 108.5 -18.502 143.5 -55.502s52.5 -86.833 52.5 -149.5v-307h-66v307c0 44.667 -11.833 79.334 -35.5 104.001s-57.167 37 -100.5 37c-48 0 -87 -15.167 -117 -45.5s-45 -77.166 -45 -140.499
v-262h-66v500h66v-78c37.333 60 93.333 90 168 90z" />
    <glyph glyph-name="Eng" unicode="&#x14a;" horiz-adv-x="680" 
d="M530 700h70v-700c0 -133.333 -70 -200 -210 -200v68c46 0 80.833 9 104.5 27s35.5 53 35.5 105v15l-380 555v-570h-70v700h60l390 -570v570z" />
    <glyph glyph-name="eng" unicode="&#x14b;" horiz-adv-x="558" 
d="M304 512c60.667 0 108.5 -18.5029 143.5 -55.5029s52.5 -86.833 52.5 -149.5v-347c0 -60 -15.667 -105 -47 -135s-75.666 -42.333 -132.999 -37v64c39.333 -4 68.166 2.33301 86.499 19s27.5 46.334 27.5 89.001v347c0 44.667 -11.833 79.334 -35.5 104.001
s-57.167 37 -100.5 37c-48 0 -87 -15.167 -117 -45.5s-45 -77.166 -45 -140.499v-262h-66v500h66v-78c37.333 60 93.333 90 168 90z" />
    <glyph glyph-name="Omacron" unicode="&#x14c;" horiz-adv-x="804" 
d="M272 780v58h260v-58h-260zM402 -12c-101.333 0 -187 35.167 -257 105.5s-105 155.833 -105 256.5s35 186.167 105 256.5s155.667 105.5 257 105.5s187 -35.167 257 -105.5s105 -155.833 105 -256.5s-35 -186.167 -105 -256.5s-155.667 -105.5 -257 -105.5zM402 56
c82.667 0 152 28.5 208 85.5s84 126.5 84 208.5s-28 151.5 -84 208.5s-125.333 85.5 -208 85.5s-152 -28.5 -208 -85.5s-84 -126.5 -84 -208.5s28 -151.5 84 -208.5s125.333 -85.5 208 -85.5z" />
    <glyph glyph-name="omacron" unicode="&#x14d;" horiz-adv-x="606" 
d="M173 580v58h260v-58h-260zM303 -12c-73.333 0 -135.5 25.167 -186.5 75.5s-76.5 112.5 -76.5 186.5s25.5 136.167 76.5 186.5s113.167 75.5 186.5 75.5s135.5 -25.167 186.5 -75.5s76.5 -112.5 76.5 -186.5s-25.5 -136.167 -76.5 -186.5s-113.167 -75.5 -186.5 -75.5z
M303 52c55.333 0 102 19.167 140 57.5s57 85.166 57 140.499s-19 102.166 -57 140.499s-84.667 57.5 -140 57.5s-102 -19.167 -140 -57.5s-57 -85.166 -57 -140.499s19 -102.166 57 -140.499s84.667 -57.5 140 -57.5z" />
    <glyph glyph-name="Ohungarumlaut" unicode="&#x150;" horiz-adv-x="804" 
d="M272 770h68l76 130h-74zM415 770h68l86 130h-74zM402 -12c-101.333 0 -187 35.167 -257 105.5s-105 155.833 -105 256.5s35 186.167 105 256.5s155.667 105.5 257 105.5s187 -35.167 257 -105.5s105 -155.833 105 -256.5s-35 -186.167 -105 -256.5
s-155.667 -105.5 -257 -105.5zM402 56c82.667 0 152 28.5 208 85.5s84 126.5 84 208.5s-28 151.5 -84 208.5s-125.333 85.5 -208 85.5s-152 -28.5 -208 -85.5s-84 -126.5 -84 -208.5s28 -151.5 84 -208.5s125.333 -85.5 208 -85.5z" />
    <glyph glyph-name="ohungarumlaut" unicode="&#x151;" horiz-adv-x="606" 
d="M173 570h68l76 130h-74zM316 570h68l86 130h-74zM303 -12c-73.333 0 -135.5 25.167 -186.5 75.5s-76.5 112.5 -76.5 186.5s25.5 136.167 76.5 186.5s113.167 75.5 186.5 75.5s135.5 -25.167 186.5 -75.5s76.5 -112.5 76.5 -186.5s-25.5 -136.167 -76.5 -186.5
s-113.167 -75.5 -186.5 -75.5zM303 52c55.333 0 102 19.167 140 57.5s57 85.166 57 140.499s-19 102.166 -57 140.499s-84.667 57.5 -140 57.5s-102 -19.167 -140 -57.5s-57 -85.166 -57 -140.499s19 -102.166 57 -140.499s84.667 -57.5 140 -57.5z" />
    <glyph glyph-name="OE" unicode="&#x152;" horiz-adv-x="915" 
d="M555 66h320v-66h-390c-28.667 -8 -59.667 -12 -93 -12c-100.667 0 -184.5 35 -251.5 105s-100.5 155.667 -100.5 257s33.5 187 100.5 257s150.833 105 251.5 105c33.333 0 64.333 -4 93 -12h385v-66h-315v-248h300v-66h-300v-254zM485 71v558.002
c-28.667 10 -59.667 15 -93 15c-82 0 -149.5 -28.333 -202.5 -85s-79.5 -126.334 -79.5 -209.001s26.5 -152.334 79.5 -209.001s120.5 -85 202.5 -85c33.333 0 64.333 5 93 15z" />
    <glyph glyph-name="oe" unicode="&#x153;" horiz-adv-x="1044" 
d="M763 512c72.667 0 131.832 -26.166 177.499 -78.499s68.5 -114.166 68.5 -185.499c0 -7.33301 -0.666992 -17.666 -2 -30.999h-439c6.66699 -50.667 28.167 -90.834 64.5 -120.501s81.166 -44.5 134.499 -44.5c38 0 70.833 7.83301 98.5 23.5s48.5 36.167 62.5 61.5
l58 -34c-22 -35.333 -51.833 -63.333 -89.5 -84s-80.5 -31 -128.5 -31c-55.333 0 -103.666 13.167 -144.999 39.5s-71.666 62.166 -90.999 107.499c-20 -44.667 -50.167 -80.334 -90.5 -107.001s-86.5 -40 -138.5 -40c-75.333 0 -138 25 -188 75s-75 112.333 -75 187
s25 137 75 187s112.667 75 188 75c52 0 98.167 -13.333 138.5 -40s70.833 -62.667 91.5 -108c18.667 45.333 48.167 81.333 88.5 108s87.5 40 141.5 40zM302.998 52.001c55.333 0 102 19.1689 140 57.502s57 85.166 57 140.499s-19 102.166 -57 140.499
s-84.667 57.5 -140 57.5c-58 0 -105.333 -19 -142 -57s-55 -85 -55 -141s18.333 -103 55 -141s84 -57 142 -57zM760.998 448.003c-52 0 -95.5 -15.5 -130.5 -46.5s-55.833 -71.167 -62.5 -120.5h373c-6.66699 52.667 -27 93.667 -61 123s-73.667 44 -119 44z" />
    <glyph glyph-name="Racute" unicode="&#x154;" horiz-adv-x="610" 
d="M420 900l-96 -130h-64l80 130h80zM510 0l-164 280h-196v-280h-70v700h280c58 0 107.5 -20.5 148.5 -61.5s61.5 -90.5 61.5 -148.5c0 -47.333 -14.167 -89.5 -42.5 -126.5s-64.5 -61.833 -108.5 -74.5l171 -289h-80zM150 634v-287.999h210c38.667 0 71.667 14.167 99 42.5
s41 62.166 41 101.499c0 40 -13.667 74 -41 102s-60.333 42 -99 42h-210z" />
    <glyph glyph-name="racute" unicode="&#x155;" horiz-adv-x="314" 
d="M292 700l-96 -130h-64l80 130h80zM136 417c30.667 60.667 83.333 91 158 91v-64c-45.333 0 -83 -13.333 -113 -40s-45 -68.667 -45 -126v-278h-66v500h66v-83z" />
    <glyph glyph-name="Rcommaaccent" unicode="&#x156;" horiz-adv-x="610" 
d="M419 289l171 -289h-80l-164 280h-196v-280h-70v700h280c58 0 107.5 -20.5 148.5 -61.5s61.5 -90.5 61.5 -148.5c0 -47.333 -14.167 -89.5 -42.5 -126.5s-64.5 -61.833 -108.5 -74.5zM150 634v-287.999h210c38.667 0 71.667 14.167 99 42.5s41 62.166 41 101.499
c0 40 -13.667 74 -41 102s-60.333 42 -99 42h-210zM288 -239.999l10 170h66l-30 -170h-46z" />
    <glyph glyph-name="rcommaaccent" unicode="&#x157;" horiz-adv-x="314" 
d="M136 417c30.667 60.667 83.333 91 158 91v-64c-45.333 0 -83 -13.333 -113 -40s-45 -68.667 -45 -126v-278h-66v500h66v-83zM60.999 -240l10 170h66l-30 -170h-46z" />
    <glyph glyph-name="Rcaron" unicode="&#x158;" horiz-adv-x="610" 
d="M271 770l-106 130h75l70 -87l70 87h75l-106 -130h-78zM510 0l-164 280h-196v-280h-70v700h280c58 0 107.5 -20.5 148.5 -61.5s61.5 -90.5 61.5 -148.5c0 -47.333 -14.167 -89.5 -42.5 -126.5s-64.5 -61.833 -108.5 -74.5l171 -289h-80zM150 634v-287.999h210
c38.667 0 71.667 14.167 99 42.5s41 62.166 41 101.499c0 40 -13.667 74 -41 102s-60.333 42 -99 42h-210z" />
    <glyph glyph-name="rcaron" unicode="&#x159;" horiz-adv-x="314" 
d="M143 570l-106 130h75l70 -87l70 87h75l-106 -130h-78zM136 417c30.667 60.667 83.333 91 158 91v-64c-45.333 0 -83 -13.333 -113 -40s-45 -68.667 -45 -126v-278h-66v500h66v-83z" />
    <glyph glyph-name="Sacute" unicode="&#x15a;" horiz-adv-x="576" 
d="M232 770h64l96 130h-80zM300 -12c-64 0 -118.832 15.166 -164.499 45.499s-77.5 72.166 -95.5 125.499l60 35c12.667 -43.333 36 -77.166 70 -101.499s77.667 -36.5 131 -36.5c52 0 92.5 11.5 121.5 34.5s43.5 53.5 43.5 91.5c0 36.667 -13.333 64.334 -40 83.001
s-70.667 38 -132 58c-72.667 24 -120.667 43.333 -144 58c-53.333 32 -80 78.333 -80 139c0 59.333 20.667 106.166 62 140.499s92.333 51.5 153 51.5c54.667 0 102 -14.167 142 -42.5s69.667 -64.5 89 -108.5l-59 -33c-32 77.333 -89.333 116 -172 116
c-43.333 0 -78.333 -10.667 -105 -32s-40 -51 -40 -89c0 -34.667 12 -60.667 36 -78s63.667 -35 119 -53l54.5 -18.5c11 -3.66699 27 -9.66699 48 -18s36.5 -15.666 46.5 -21.999s22.167 -15 36.5 -26s24.666 -22 30.999 -33s12 -24.333 17 -40s7.5 -32.5 7.5 -50.5
c0 -59.333 -21.667 -106.833 -65 -142.5s-100.333 -53.5 -171 -53.5z" />
    <glyph glyph-name="sacute" unicode="&#x15b;" horiz-adv-x="454" 
d="M339 700l-96 -130h-64l80 130h80zM122 369c0 -22.667 10.002 -40.667 30.002 -54s44.333 -23.666 73 -30.999s57.334 -15.5 86.001 -24.5s53 -24 73 -45s30 -48.5 30 -82.5c0 -42.667 -16.833 -77.334 -50.5 -104.001s-77.167 -40 -130.5 -40
c-48 0 -88.833 10.667 -122.5 32s-57.167 49 -70.5 83l56 33c9.33301 -26 26.166 -46.5 50.499 -61.5s53.166 -22.5 86.499 -22.5c32.667 0 60 6.5 82 19.5s33 33.167 33 60.5c0 22.667 -10 40.667 -30 54s-44.333 23.666 -73 30.999s-57.334 15.5 -86.001 24.5
s-53 24 -73 45s-30 48.5 -30 82.5c0 40.667 16.167 74.667 48.5 102s73.166 41 122.499 41c40.667 0 76.334 -9.16699 107.001 -27.5s53.334 -43.166 68.001 -74.499l-55 -32c-19.333 46.667 -59.333 70 -120 70c-28.667 0 -53.334 -6.83301 -74.001 -20.5
s-31 -33.167 -31 -58.5z" />
    <glyph glyph-name="Scedilla" unicode="&#x15e;" horiz-adv-x="576" 
d="M536 184c0 -57.333 -20 -103.501 -60 -138.501s-93 -54.167 -159 -57.5v-33c28.667 -5.33301 51.334 -15 68.001 -29s25 -31.333 25 -52c0 -68 -68.333 -98 -205 -90v54c98 -8 147 4 147 36c0 25.333 -31 39 -93 41v75c-54 6.66699 -100 24.667 -138 54
s-65 67.666 -81 114.999l60 35c12.667 -43.333 36 -77.166 70 -101.499s77.667 -36.5 131 -36.5c52 0 92.5 11.5 121.5 34.5s43.5 53.5 43.5 91.5c0 36.667 -13.333 64.334 -40 83.001s-70.667 38 -132 58c-72.667 24 -120.667 43.333 -144 58
c-53.333 32 -80 78.333 -80 139c0 59.333 20.667 106.166 62 140.499s92.333 51.5 153 51.5c54.667 0 102 -14.167 142 -42.5s69.667 -64.5 89 -108.5l-59 -33c-32 77.333 -89.333 116 -172 116c-43.333 0 -78.333 -10.667 -105 -32s-40 -51 -40 -89
c0 -34.667 12 -60.667 36 -78s63.667 -35 119 -53l54.5 -18.5c11 -3.66699 27 -9.66699 48 -18s36.5 -15.666 46.5 -21.999s22.167 -15 36.5 -26s24.666 -22 30.999 -33s12 -24.333 17 -40s7.5 -32.5 7.5 -50.5z" />
    <glyph glyph-name="scedilla" unicode="&#x15f;" horiz-adv-x="454" 
d="M414 132c0 -38.667 -14.3311 -71.002 -42.998 -97.002s-66.334 -41.333 -113.001 -46v-34c28.667 -5.33301 51.334 -15 68.001 -29s25 -31.333 25 -52c0 -68 -68.333 -98 -205 -90v54c98 -8 147 4 147 36c0 25.333 -31 39 -93 41v75
c-40 4.66699 -73.833 17.334 -101.5 38.001s-47.167 45.667 -58.5 75l56 33c9.33301 -26 26.166 -46.5 50.499 -61.5s53.166 -22.5 86.499 -22.5c32.667 0 60 6.5 82 19.5s33 33.167 33 60.5c0 22.667 -10 40.667 -30 54s-44.333 23.666 -73 30.999
s-57.334 15.5 -86.001 24.5s-53 24 -73 45s-30 48.5 -30 82.5c0 40.667 16.167 74.667 48.5 102s73.166 41 122.499 41c40.667 0 76.334 -9.16699 107.001 -27.5s53.334 -43.166 68.001 -74.499l-55 -32c-19.333 46.667 -59.333 70 -120 70
c-28.667 0 -53.334 -6.83301 -74.001 -20.5s-31 -33.167 -31 -58.5c0 -22.667 10 -40.667 30 -54s44.333 -23.666 73 -30.999s57.334 -15.5 86.001 -24.5s53 -24 73 -45s30 -48.5 30 -82.5z" />
    <glyph glyph-name="Scaron" unicode="&#x160;" horiz-adv-x="576" 
d="M243 770l-106 130h75l70 -87l70 87h75l-106 -130h-78zM295 392l54.501 -18.501c11 -3.66699 27 -9.66699 48 -18s36.5 -15.666 46.5 -21.999s22.167 -15 36.5 -26s24.666 -22 30.999 -33s12 -24.333 17 -40s7.5 -32.5 7.5 -50.5c0 -59.333 -21.667 -106.833 -65 -142.5
s-100.333 -53.5 -171 -53.5c-64 0 -118.833 15.167 -164.5 45.5s-77.5 72.166 -95.5 125.499l60 35c12.667 -43.333 36 -77.166 70 -101.499s77.667 -36.5 131 -36.5c52 0 92.5 11.5 121.5 34.5s43.5 53.5 43.5 91.5c0 36.667 -13.333 64.334 -40 83.001s-70.667 38 -132 58
c-72.667 24 -120.667 43.333 -144 58c-53.333 32 -80 78.333 -80 139c0 59.333 20.667 106.166 62 140.499s92.333 51.5 153 51.5c54.667 0 102 -14.167 142 -42.5s69.667 -64.5 89 -108.5l-59 -33c-32 77.333 -89.333 116 -172 116c-43.333 0 -78.333 -10.667 -105 -32
s-40 -51 -40 -89c0 -34.667 12 -60.667 36 -78s63.667 -35 119 -53z" />
    <glyph glyph-name="scaron" unicode="&#x161;" horiz-adv-x="454" 
d="M190 570l-106 130h75l70 -87l70 87h75l-106 -130h-78zM122 369c0 -22.667 10.002 -40.667 30.002 -54s44.333 -23.666 73 -30.999s57.334 -15.5 86.001 -24.5s53 -24 73 -45s30 -48.5 30 -82.5c0 -42.667 -16.833 -77.334 -50.5 -104.001s-77.167 -40 -130.5 -40
c-48 0 -88.833 10.667 -122.5 32s-57.167 49 -70.5 83l56 33c9.33301 -26 26.166 -46.5 50.499 -61.5s53.166 -22.5 86.499 -22.5c32.667 0 60 6.5 82 19.5s33 33.167 33 60.5c0 22.667 -10 40.667 -30 54s-44.333 23.666 -73 30.999s-57.334 15.5 -86.001 24.5
s-53 24 -73 45s-30 48.5 -30 82.5c0 40.667 16.167 74.667 48.5 102s73.166 41 122.499 41c40.667 0 76.334 -9.16699 107.001 -27.5s53.334 -43.166 68.001 -74.499l-55 -32c-19.333 46.667 -59.333 70 -120 70c-28.667 0 -53.334 -6.83301 -74.001 -20.5
s-31 -33.167 -31 -58.5z" />
    <glyph glyph-name="uni0162" unicode="&#x162;" horiz-adv-x="540" 
d="M520 700v-66h-215v-634h-70v634h-215v66h500zM228 -240l10 170h66l-30 -170h-46z" />
    <glyph glyph-name="uni0163" unicode="&#x163;" horiz-adv-x="375" 
d="M335 436h-144v-303c0 -27.333 5.33301 -46.833 16 -58.5s26.667 -17.667 48 -18s48 0.166992 80 1.5v-58c-70 -10.667 -122.5 -5.66699 -157.5 15s-52.5 60 -52.5 118v303h-105v64h105v120l66 20v-140h144v-64zM194 -240l10 170h66l-30 -170h-46z" />
    <glyph glyph-name="Tcaron" unicode="&#x164;" horiz-adv-x="540" 
d="M231 770l-106 130h75l70 -87l70 87h75l-106 -130h-78zM520 700v-66h-215v-634h-70v634h-215v66h500z" />
    <glyph glyph-name="tcaron" unicode="&#x165;" horiz-adv-x="375" 
d="M322 715l-30 -160h-46l10 160h66zM335 436h-144v-303c0 -27.333 5.33301 -46.833 16 -58.5s26.667 -17.667 48 -18s48 0.166992 80 1.5v-58c-70 -10.667 -122.5 -5.66699 -157.5 15s-52.5 60 -52.5 118v303h-105v64h105v120l66 20v-140h144v-64z" />
    <glyph glyph-name="Tbar" unicode="&#x166;" horiz-adv-x="540" 
d="M520 634h-215v-252h145v-64h-145v-318h-70v318h-145v64h145v252h-215v66h500v-66z" />
    <glyph glyph-name="tbar" unicode="&#x167;" horiz-adv-x="375" 
d="M335 436h-144v-149h97v-54h-97v-100c0 -27.333 5.33301 -46.833 16 -58.5s26.667 -17.667 48 -18s48 0.166992 80 1.5v-58c-70 -10.667 -122.5 -5.66699 -157.5 15s-52.5 60 -52.5 118v100h-67v54h67v149h-105v64h105v120l66 20v-140h144v-64z" />
    <glyph glyph-name="Umacron" unicode="&#x16a;" horiz-adv-x="660" 
d="M200 780v58h260v-58h-260zM330 -12c-77.333 0 -140 22.667 -188 68s-72 106 -72 182v462h70v-462c0 -56 16.667 -100.333 50 -133s80 -49 140 -49s106.667 16.333 140 49s50 77 50 133v462h70v-462c0 -76 -24 -136.667 -72 -182s-110.667 -68 -188 -68z" />
    <glyph glyph-name="umacron" unicode="&#x16b;" horiz-adv-x="558" 
d="M401 638v-58h-260v58h260zM422 500l66 0.00195312v-500h-66v78c-37.333 -60 -93.333 -90 -168 -90c-60.667 0 -108.5 18.5 -143.5 55.5s-52.5 86.833 -52.5 149.5v307h66v-307c0 -44.667 11.833 -79.334 35.5 -104.001s57.167 -37 100.5 -37c48 0 87 15.167 117 45.5
s45 77.166 45 140.499v262z" />
    <glyph glyph-name="Uring" unicode="&#x16e;" horiz-adv-x="660" 
d="M330 720c-31.333 0 -56.833 9.5 -76.5 28.5s-29.5 42.833 -29.5 71.5s9.83301 52.5 29.5 71.5s45.167 28.5 76.5 28.5s56.833 -9.5 76.5 -28.5s29.5 -42.833 29.5 -71.5s-9.83301 -52.5 -29.5 -71.5s-45.167 -28.5 -76.5 -28.5zM330 771c16.667 0 29.5 4.5 38.5 13.5
s13.5 20.833 13.5 35.5s-4.5 26.5 -13.5 35.5s-21.833 13.5 -38.5 13.5c-16 0 -28.5 -4.5 -37.5 -13.5s-13.5 -20.833 -13.5 -35.5s4.5 -26.5 13.5 -35.5s21.5 -13.5 37.5 -13.5zM330 -12c-77.333 0 -140 22.667 -188 68s-72 106 -72 182v462h70v-462
c0 -56 16.667 -100.333 50 -133s80 -49 140 -49s106.667 16.333 140 49s50 77 50 133v462h70v-462c0 -76 -24 -136.667 -72 -182s-110.667 -68 -188 -68z" />
    <glyph glyph-name="uring" unicode="&#x16f;" horiz-adv-x="558" 
d="M271 550c-31.333 0 -56.833 9.5 -76.5 28.5s-29.5 42.833 -29.5 71.5s9.83301 52.5 29.5 71.5s45.167 28.5 76.5 28.5s56.833 -9.5 76.5 -28.5s29.5 -42.833 29.5 -71.5s-9.83301 -52.5 -29.5 -71.5s-45.167 -28.5 -76.5 -28.5zM271 699c-16 0 -28.5 -4.5 -37.5 -13.5
s-13.5 -20.833 -13.5 -35.5s4.5 -26.5 13.5 -35.5s21.5 -13.5 37.5 -13.5c16.667 0 29.5 4.5 38.5 13.5s13.5 20.833 13.5 35.5s-4.5 26.5 -13.5 35.5s-21.833 13.5 -38.5 13.5zM422 500l66 0.00195312v-500h-66v78c-37.333 -60 -93.333 -90 -168 -90
c-60.667 0 -108.5 18.5 -143.5 55.5s-52.5 86.833 -52.5 149.5v307h66v-307c0 -44.667 11.833 -79.334 35.5 -104.001s57.167 -37 100.5 -37c48 0 87 15.167 117 45.5s45 77.166 45 140.499v262z" />
    <glyph glyph-name="Uhungarumlaut" unicode="&#x170;" horiz-adv-x="660" 
d="M200 770h68l76 130h-74zM343 770h68l86 130h-74zM330 -12c-77.333 0 -140 22.667 -188 68s-72 106 -72 182v462h70v-462c0 -56 16.667 -100.333 50 -133s80 -49 140 -49s106.667 16.333 140 49s50 77 50 133v462h70v-462c0 -76 -24 -136.667 -72 -182
s-110.667 -68 -188 -68z" />
    <glyph glyph-name="uhungarumlaut" unicode="&#x171;" horiz-adv-x="558" 
d="M285 700l-76 -130h-68l70 130h74zM352 570h-68l80 130h74zM422 500l66 0.00195312v-500h-66v78c-37.333 -60 -93.333 -90 -168 -90c-60.667 0 -108.5 18.5 -143.5 55.5s-52.5 86.833 -52.5 149.5v307h66v-307c0 -44.667 11.833 -79.334 35.5 -104.001
s57.167 -37 100.5 -37c48 0 87 15.167 117 45.5s45 77.166 45 140.499v262z" />
    <glyph glyph-name="Uogonek" unicode="&#x172;" horiz-adv-x="660" 
d="M520 700l70 0.000976562v-462c0 -86.667 -30.667 -152.667 -92 -198c-43.333 -40.667 -73.833 -72.834 -91.5 -96.501s-26.5 -46.167 -26.5 -67.5c0 -20.667 11.333 -31 34 -31c14 0 28 3 42 9v-55c-18 -7.33301 -37.667 -11 -59 -11c-26 0 -46.167 7 -60.5 21
s-21.5 32.333 -21.5 55c0 40.667 21.333 83 64 127c-16 -2 -32.333 -3 -49 -3c-77.333 0 -140 22.667 -188 68s-72 106 -72 182v462h70v-462c0 -56 16.667 -100.333 50 -133s80 -49 140 -49s106.667 16.333 140 49s50 77 50 133v462z" />
    <glyph glyph-name="uogonek" unicode="&#x173;" horiz-adv-x="558" 
d="M488 0c-22.667 -20.667 -41 -42.3301 -55 -64.9971s-21 -42.334 -21 -59.001c0 -20.667 11.333 -31 34 -31c14 0 28 3 42 9v-55c-18 -7.33301 -37.667 -11 -59 -11c-26 0 -46.167 7 -60.5 21s-21.5 32.333 -21.5 55c0 40 25 89 75 147v67
c-37.333 -60 -93.333 -90 -168 -90c-60.667 0 -108.5 18.5 -143.5 55.5s-52.5 86.833 -52.5 149.5v307h66v-307c0 -44.667 11.833 -79.334 35.5 -104.001s57.167 -37 100.5 -37c48 0 87 15.167 117 45.5s45 77.166 45 140.499v262h66v-500z" />
    <glyph glyph-name="Wcircumflex" unicode="&#x174;" horiz-adv-x="1000" 
d="M500 857l-70 -87h-75l106 130h78l106 -130h-75zM896 700h74l-203 -700h-84l-183 608l-183 -608h-84l-203 700h74l173 -605l182 605h82l182 -605z" />
    <glyph glyph-name="wcircumflex" unicode="&#x175;" horiz-adv-x="770" 
d="M385 657l-70 -87h-75l106 130h78l106 -130h-75zM672 500h68l-154 -500h-72l-129 403l-129 -403h-72l-154 500h68l123 -415l131 415h66l131 -415z" />
    <glyph glyph-name="Ycircumflex" unicode="&#x176;" horiz-adv-x="595" 
d="M294 857l-70 -87h-75l106 130h78l106 -130h-75zM585 700l-253 -413v-287h-70v289l-252 411h79l209 -343l208 343h79z" />
    <glyph glyph-name="ycircumflex" unicode="&#x177;" horiz-adv-x="510" 
d="M253 657l-70 -87h-75l106 130h78l106 -130h-75zM430 500l70 -0.000976562l-214 -546c-19.333 -49.333 -46.833 -88.166 -82.5 -116.499s-75.5 -40.833 -119.5 -37.5v62c60 -6.66699 105.667 28 137 104l13 31l-224 503h70l188 -419z" />
    <glyph glyph-name="Ydieresis" unicode="&#x178;" horiz-adv-x="595" 
d="M199 775c-12.667 0 -23.334 4.33301 -32.001 13s-13 19.334 -13 32.001s4.33301 23.334 13 32.001s19.334 13 32.001 13s23.334 -4.33301 32.001 -13s13 -19.334 13 -32.001s-4.33301 -23.334 -13 -32.001s-19.334 -13 -32.001 -13zM389 775
c-12.667 0 -23.334 4.33301 -32.001 13s-13 19.334 -13 32.001s4.33301 23.334 13 32.001s19.334 13 32.001 13s23.334 -4.33301 32.001 -13s13 -19.334 13 -32.001s-4.33301 -23.334 -13 -32.001s-19.334 -13 -32.001 -13zM585 700l-253 -413v-287h-70v289l-252 411h79
l209 -343l208 343h79z" />
    <glyph glyph-name="Zacute" unicode="&#x179;" horiz-adv-x="520" 
d="M375 900l-96 -130h-64l80 130h80zM118 66h372v-66h-450v66l362 568h-352v66h430v-66z" />
    <glyph glyph-name="zacute" unicode="&#x17a;" horiz-adv-x="470" 
d="M352 700l-96 -130h-64l80 130h80zM142 64h288v-64h-380v44l278 392h-268v64h360v-44z" />
    <glyph glyph-name="Zdotaccent" unicode="&#x17b;" horiz-adv-x="520" 
d="M265 770c-15.333 0 -28.333 5.33301 -39 16s-16 23.667 -16 39s5.33301 28.333 16 39s23.667 16 39 16s28.333 -5.33301 39 -16s16 -23.667 16 -39s-5.33301 -28.333 -16 -39s-23.667 -16 -39 -16zM118 66h372v-66h-450v66l362 568h-352v66h430v-66z" />
    <glyph glyph-name="zdotaccent" unicode="&#x17c;" horiz-adv-x="470" 
d="M242 570c-15.333 0 -28.333 5.33301 -39 16s-16 23.667 -16 39s5.33301 28.333 16 39s23.667 16 39 16s28.333 -5.33301 39 -16s16 -23.667 16 -39s-5.33301 -28.333 -16 -39s-23.667 -16 -39 -16zM142 64h288v-64h-380v44l278 392h-268v64h360v-44z" />
    <glyph glyph-name="Zcaron" unicode="&#x17d;" horiz-adv-x="520" 
d="M226 770l-106 130h75l70 -87l70 87h75l-106 -130h-78zM118 66h372v-66h-450v66l362 568h-352v66h430v-66z" />
    <glyph glyph-name="zcaron" unicode="&#x17e;" horiz-adv-x="470" 
d="M203 570l-106 130h75l70 -87l70 87h75l-106 -130h-78zM142 64h288v-64h-380v44l278 392h-268v64h360v-44z" />
    <glyph glyph-name="florin" unicode="&#x192;" horiz-adv-x="439" 
d="M439 639c-36 13.333 -65.667 13.666 -89 0.999023s-37.666 -35.667 -42.999 -69l-32 -188h115v-64h-126l-66 -388c-10 -58.667 -32.833 -99.167 -68.5 -121.5s-78.834 -25.833 -129.501 -10.5v64c36 -13.333 65.667 -13.666 89 -0.999023s37.666 35.667 42.999 69l66 388
h-109v64h120l32 188c10 58.667 32.833 99.167 68.5 121.5s78.834 25.833 129.501 10.5v-64z" />
    <glyph glyph-name="Scommaaccent" unicode="&#x218;" horiz-adv-x="576" 
d="M300 -12c-64 0 -118.832 15.166 -164.499 45.499s-77.5 72.166 -95.5 125.499l60 35c12.667 -43.333 36 -77.166 70 -101.499s77.667 -36.5 131 -36.5c52 0 92.5 11.5 121.5 34.5s43.5 53.5 43.5 91.5c0 36.667 -13.333 64.334 -40 83.001s-70.667 38 -132 58
c-72.667 24 -120.667 43.333 -144 58c-53.333 32 -80 78.333 -80 139c0 59.333 20.667 106.166 62 140.499s92.333 51.5 153 51.5c54.667 0 102 -14.167 142 -42.5s69.667 -64.5 89 -108.5l-59 -33c-32 77.333 -89.333 116 -172 116c-43.333 0 -78.333 -10.667 -105 -32
s-40 -51 -40 -89c0 -34.667 12 -60.667 36 -78s63.667 -35 119 -53l54.5 -18.5c11 -3.66699 27 -9.66699 48 -18s36.5 -15.666 46.5 -21.999s22.167 -15 36.5 -26s24.666 -22 30.999 -33s12 -24.333 17 -40s7.5 -32.5 7.5 -50.5c0 -59.333 -21.667 -106.833 -65 -142.5
s-100.333 -53.5 -171 -53.5zM309.001 -240.001l30 170h-66l-10 -170h46z" />
    <glyph glyph-name="scommaaccent" unicode="&#x219;" horiz-adv-x="454" 
d="M122 369c0 -22.667 10.002 -40.667 30.002 -54s44.333 -23.666 73 -30.999s57.334 -15.5 86.001 -24.5s53 -24 73 -45s30 -48.5 30 -82.5c0 -42.667 -16.833 -77.334 -50.5 -104.001s-77.167 -40 -130.5 -40c-48 0 -88.833 10.667 -122.5 32s-57.167 49 -70.5 83l56 33
c9.33301 -26 26.166 -46.5 50.499 -61.5s53.166 -22.5 86.499 -22.5c32.667 0 60 6.5 82 19.5s33 33.167 33 60.5c0 22.667 -10 40.667 -30 54s-44.333 23.666 -73 30.999s-57.334 15.5 -86.001 24.5s-53 24 -73 45s-30 48.5 -30 82.5c0 40.667 16.167 74.667 48.5 102
s73.166 41 122.499 41c40.667 0 76.334 -9.16699 107.001 -27.5s53.334 -43.166 68.001 -74.499l-55 -32c-19.333 46.667 -59.333 70 -120 70c-28.667 0 -53.334 -6.83301 -74.001 -20.5s-31 -33.167 -31 -58.5zM204.002 -240l10 170h66l-30 -170h-46z" />
    <glyph glyph-name="uni021A" unicode="&#x21a;" horiz-adv-x="540" 
d="M520 700v-66h-215v-634h-70v634h-215v66h500zM228 -240l10 170h66l-30 -170h-46z" />
    <glyph glyph-name="uni021B" unicode="&#x21b;" horiz-adv-x="375" 
d="M335 436h-144v-303c0 -27.333 5.33301 -46.833 16 -58.5s26.667 -17.667 48 -18s48 0.166992 80 1.5v-58c-70 -10.667 -122.5 -5.66699 -157.5 15s-52.5 60 -52.5 118v303h-105v64h105v120l66 20v-140h144v-64zM194 -240l10 170h66l-30 -170h-46z" />
    <glyph glyph-name="circumflex" unicode="&#x2c6;" horiz-adv-x="330" 
d="M310 570h-75l-70 87l-70 -87h-75l106 130h78z" />
    <glyph glyph-name="caron" unicode="&#x2c7;" horiz-adv-x="330" 
d="M235 700h75l-106 -130h-78l-106 130h75l70 -87z" />
    <glyph glyph-name="breve" unicode="&#x2d8;" horiz-adv-x="320" 
d="M160 562c-42.667 0 -76.667 11.5 -102 34.5s-38 54.833 -38 95.5h64c0 -48 25.333 -72 76 -72s76 24 76 72h64c0 -41.333 -12.5 -73.333 -37.5 -96s-59.167 -34 -102.5 -34z" />
    <glyph glyph-name="dotaccent" unicode="&#x2d9;" horiz-adv-x="150" 
d="M75 570c-15.333 0 -28.333 5.33301 -39 16s-16 23.667 -16 39s5.33301 28.333 16 39s23.667 16 39 16s28.333 -5.33301 39 -16s16 -23.667 16 -39s-5.33301 -28.333 -16 -39s-23.667 -16 -39 -16z" />
    <glyph glyph-name="ring" unicode="&#x2da;" horiz-adv-x="252" 
d="M126 550c-31.333 0 -56.833 9.5 -76.5 28.5s-29.5 42.833 -29.5 71.5s9.83301 52.5 29.5 71.5s45.167 28.5 76.5 28.5s56.833 -9.5 76.5 -28.5s29.5 -42.833 29.5 -71.5s-9.83301 -52.5 -29.5 -71.5s-45.167 -28.5 -76.5 -28.5zM126 601c16.667 0 29.5 4.5 38.5 13.5
s13.5 20.833 13.5 35.5s-4.5 26.5 -13.5 35.5s-21.833 13.5 -38.5 13.5c-16 0 -28.5 -4.5 -37.5 -13.5s-13.5 -20.833 -13.5 -35.5s4.5 -26.5 13.5 -35.5s21.5 -13.5 37.5 -13.5z" />
    <glyph glyph-name="ogonek" unicode="&#x2db;" horiz-adv-x="181" 
d="M102 -212c-26 0 -46.167 7.00195 -60.5 21.002s-21.5 32.333 -21.5 55c0 44 24 89.333 72 136h69c-22.667 -20.667 -41 -42.334 -55 -65.001s-21 -42.334 -21 -59.001c0 -20.667 11.333 -31 34 -31c14 0 28 3 42 9v-55c-18 -7.33301 -37.667 -11 -59 -11z" />
    <glyph glyph-name="tilde" unicode="&#x2dc;" horiz-adv-x="320" 
d="M20 580c0 39.333 7.00098 68.666 21.001 87.999s31.667 28.5 53 27.5s43.666 -10.5 66.999 -28.5c12 -9.33301 21.667 -16.333 29 -21s14.666 -8.33398 21.999 -11.001s13 -2.33398 17 0.999023s7.16699 9.33301 9.5 18s3.5 20.667 3.5 36h58
c0 -39.333 -7 -68.666 -21 -87.999s-31.5 -28.5 -52.5 -27.5s-43.167 10.5 -66.5 28.5c-15.333 11.333 -27.166 19.5 -35.499 24.5s-16.5 7.83301 -24.5 8.5s-13.667 -3.66602 -17 -12.999s-5 -23.666 -5 -42.999h-58z" />
    <glyph glyph-name="hungarumlaut" unicode="&#x2dd;" horiz-adv-x="337" 
d="M20 570h68l76 130h-74zM163 570h68l86 130h-74z" />
    <glyph glyph-name="gravecomb" unicode="&#x300;" horiz-adv-x="0" 
d="M-20 570l-80 130h-80l96 -130h64z" />
    <glyph glyph-name="acutecomb" unicode="&#x301;" horiz-adv-x="0" 
d="M-180 570h64l96 130h-80z" />
    <glyph glyph-name="uni0302" unicode="&#x302;" horiz-adv-x="0" 
d="M-20 570h-75l-70 87l-70 -87h-75l106 130h78z" />
    <glyph glyph-name="tildecomb" unicode="&#x303;" horiz-adv-x="0" 
d="M-300 580c0 39.333 7.00098 68.666 21.001 87.999s31.667 28.5 53 27.5s43.666 -10.5 66.999 -28.5c12 -9.33301 21.667 -16.333 29 -21s14.666 -8.33398 21.999 -11.001s13 -2.33398 17 0.999023s7.16699 9.33301 9.5 18s3.5 20.667 3.5 36h58
c0 -39.333 -7 -68.666 -21 -87.999s-31.5 -28.5 -52.5 -27.5s-43.167 10.5 -66.5 28.5c-15.333 11.333 -27.166 19.5 -35.499 24.5s-16.5 7.83301 -24.5 8.5s-13.667 -3.66602 -17 -12.999s-5 -23.666 -5 -42.999h-58z" />
    <glyph glyph-name="uni0304" unicode="&#x304;" horiz-adv-x="0" 
d="M-280 580v58h260v-58h-260z" />
    <glyph glyph-name="uni0306" unicode="&#x306;" horiz-adv-x="0" 
d="M-160 562c-42.667 0 -76.667 11.5 -102 34.5s-38 54.833 -38 95.5h64c0 -48 25.333 -72 76 -72s76 24 76 72h64c0 -41.333 -12.5 -73.333 -37.5 -96s-59.167 -34 -102.5 -34z" />
    <glyph glyph-name="uni0307" unicode="&#x307;" horiz-adv-x="0" 
d="M-75 570c-15.333 0 -28.333 5.33301 -39 16s-16 23.667 -16 39s5.33301 28.333 16 39s23.667 16 39 16s28.333 -5.33301 39 -16s16 -23.667 16 -39s-5.33301 -28.333 -16 -39s-23.667 -16 -39 -16z" />
    <glyph glyph-name="uni0308" unicode="&#x308;" horiz-adv-x="0" 
d="M-255 575c-12.667 0 -23.334 4.33301 -32.001 13s-13 19.334 -13 32.001s4.33301 23.334 13 32.001s19.334 13 32.001 13s23.334 -4.33301 32.001 -13s13 -19.334 13 -32.001s-4.33301 -23.334 -13 -32.001s-19.334 -13 -32.001 -13zM-65 575
c-12.667 0 -23.334 4.33301 -32.001 13s-13 19.334 -13 32.001s4.33301 23.334 13 32.001s19.334 13 32.001 13s23.334 -4.33301 32.001 -13s13 -19.334 13 -32.001s-4.33301 -23.334 -13 -32.001s-19.334 -13 -32.001 -13z" />
    <glyph glyph-name="uni030A" unicode="&#x30a;" horiz-adv-x="0" 
d="M-126 550c-31.333 0 -56.833 9.5 -76.5 28.5s-29.5 42.833 -29.5 71.5s9.83301 52.5 29.5 71.5s45.167 28.5 76.5 28.5s56.833 -9.5 76.5 -28.5s29.5 -42.833 29.5 -71.5s-9.83301 -52.5 -29.5 -71.5s-45.167 -28.5 -76.5 -28.5zM-126 601c16.667 0 29.5 4.5 38.5 13.5
s13.5 20.833 13.5 35.5s-4.5 26.5 -13.5 35.5s-21.833 13.5 -38.5 13.5c-16 0 -28.5 -4.5 -37.5 -13.5s-13.5 -20.833 -13.5 -35.5s4.5 -26.5 13.5 -35.5s21.5 -13.5 37.5 -13.5z" />
    <glyph glyph-name="uni030B" unicode="&#x30b;" horiz-adv-x="0" 
d="M-317 570h68l76 130h-74zM-174 570h68l86 130h-74z" />
    <glyph glyph-name="uni030C" unicode="&#x30c;" horiz-adv-x="0" 
d="M-95 700h75l-106 -130h-78l-106 130h75l70 -87z" />
    <glyph glyph-name="uni0312" unicode="&#x312;" horiz-adv-x="0" 
d="M-66 960l-30 -170h66l10 170h-46z" />
    <glyph glyph-name="uni0326" unicode="&#x326;" horiz-adv-x="0" 
d="M-50 -240l30 170h-66l-10 -170h46z" />
    <glyph glyph-name="uni0327" unicode="&#x327;" horiz-adv-x="0" 
d="M-113 -45c28.667 -5.33301 51.333 -15 68 -29s25 -31.333 25 -52c0 -68 -68.333 -98 -205 -90v54c98 -8 147 4 147 36c0 25.333 -31 39 -93 41v85h58v-45z" />
    <glyph glyph-name="uni0328" unicode="&#x328;" horiz-adv-x="0" 
d="M-79 -212c-26 0 -46.167 7.00195 -60.5 21.002s-21.5 32.333 -21.5 55c0 44 24 89.333 72 136h69c-22.667 -20.667 -41 -42.334 -55 -65.001s-21 -42.334 -21 -59.001c0 -20.667 11.333 -31 34 -31c14 0 28 3 42 9v-55c-18 -7.33301 -37.667 -11 -59 -11z" />
    <glyph glyph-name="uni0394" unicode="&#x394;" horiz-adv-x="630" 
d="M351 700l269 -700h-610l269 700h72zM109 66h412l-206 547z" />
    <glyph glyph-name="uni03A9" unicode="&#x3a9;" horiz-adv-x="804" 
d="M764 350c0 -60 -13.5 -114.833 -40.5 -164.5s-63.833 -89.5 -110.5 -119.5h139v-66h-273v66c63.333 16.667 115 51.167 155 103.5s60 112.5 60 180.5c0 82 -28 151.5 -84 208.5s-125.333 85.5 -208 85.5s-152 -28.5 -208 -85.5s-84 -126.5 -84 -208.5
c0 -68 19.833 -128.167 59.5 -180.5s91.5 -86.833 155.5 -103.5v-66h-273v66h139c-47.333 30 -84.333 69.833 -111 119.5s-40 104.5 -40 164.5c0 100.667 35 186.167 105 256.5s155.667 105.5 257 105.5s187 -35.167 257 -105.5s105 -155.833 105 -256.5z" />
    <glyph glyph-name="pi" unicode="&#x3c0;" horiz-adv-x="650" 
d="M620 500v-64h-83v-436h-66v436h-288v-436h-66v436h-87v64h590z" />
    <glyph glyph-name="uni0401" unicode="&#x401;" horiz-adv-x="530" 
d="M188 775c-12.667 0 -23.334 4.33301 -32.001 13s-13 19.334 -13 32.001s4.33301 23.334 13 32.001s19.334 13 32.001 13s23.334 -4.33301 32.001 -13s13 -19.334 13 -32.001s-4.33301 -23.334 -13 -32.001s-19.334 -13 -32.001 -13zM378 775
c-12.667 0 -23.334 4.33301 -32.001 13s-13 19.334 -13 32.001s4.33301 23.334 13 32.001s19.334 13 32.001 13s23.334 -4.33301 32.001 -13s13 -19.334 13 -32.001s-4.33301 -23.334 -13 -32.001s-19.334 -13 -32.001 -13zM150 66h340v-66h-410v700h405v-66h-335v-248h310
v-66h-310v-254z" />
    <glyph glyph-name="uni0402" unicode="&#x402;" horiz-adv-x="698" 
d="M444 472c56 0 101.498 -16.334 136.498 -49.001s52.5 -79.667 52.5 -141v-118c0 -60 -15.667 -105 -47 -135s-75.666 -42.333 -132.999 -37v64c38.667 -4 66.667 2.33301 84 19s26 46.334 26 89.001v118c0 84 -39.333 126 -118 126c-55.333 0 -108.666 -11 -159.999 -33
v-375h-70v634h-195v66h490v-66h-225v-196c47.333 22.667 100.333 34 159 34z" />
    <glyph glyph-name="uni0403" unicode="&#x403;" horiz-adv-x="490" 
d="M386 899l-96 -130h-64l80 130h80zM470 700v-66h-320v-634h-70v700h390z" />
    <glyph glyph-name="uni0404" unicode="&#x404;" horiz-adv-x="740" 
d="M402 56c52 0 99.667 12.665 143 37.998s76 59.333 98 102l62 -35c-28.667 -52.667 -70.167 -94.667 -124.5 -126s-113.833 -47 -178.5 -47c-106 0 -192.833 34.833 -260.5 104.5s-101.5 155.5 -101.5 257.5s33.833 187.833 101.5 257.5s154.5 104.5 260.5 104.5
c64.667 0 124 -15.5 178 -46.5s95.667 -72.833 125 -125.5l-62 -36c-22 42.667 -54.667 76.667 -98 102s-91 38 -143 38c-80.667 0 -147.334 -24.667 -200.001 -74s-82.667 -111.666 -90 -186.999h383v-66h-383c7.33301 -75.333 37.333 -137.666 90 -186.999
s119.334 -74 200.001 -74z" />
    <glyph glyph-name="uni0405" unicode="&#x405;" horiz-adv-x="576" 
d="M300 -12c-64 0 -118.832 15.166 -164.499 45.499s-77.5 72.166 -95.5 125.499l60 35c12.667 -43.333 36 -77.166 70 -101.499s77.667 -36.5 131 -36.5c52 0 92.5 11.5 121.5 34.5s43.5 53.5 43.5 91.5c0 36.667 -13.333 64.334 -40 83.001s-70.667 38 -132 58
c-72.667 24 -120.667 43.333 -144 58c-53.333 32 -80 78.333 -80 139c0 59.333 20.667 106.166 62 140.499s92.333 51.5 153 51.5c54.667 0 102 -14.167 142 -42.5s69.667 -64.5 89 -108.5l-59 -33c-32 77.333 -89.333 116 -172 116c-43.333 0 -78.333 -10.667 -105 -32
s-40 -51 -40 -89c0 -34.667 12 -60.667 36 -78s63.667 -35 119 -53l54.5 -18.5c11 -3.66699 27 -9.66699 48 -18s36.5 -15.666 46.5 -21.999s22.167 -15 36.5 -26s24.666 -22 30.999 -33s12 -24.333 17 -40s7.5 -32.5 7.5 -50.5c0 -59.333 -21.667 -106.833 -65 -142.5
s-100.333 -53.5 -171 -53.5z" />
    <glyph glyph-name="uni0406" unicode="&#x406;" horiz-adv-x="230" 
d="M80 700h70v-700h-70v700z" />
    <glyph glyph-name="uni0407" unicode="&#x407;" horiz-adv-x="230" 
d="M20 775c-12.667 0 -23.334 4.33301 -32.001 13s-13 19.334 -13 32.001s4.33301 23.334 13 32.001s19.334 13 32.001 13s23.334 -4.33301 32.001 -13s13 -19.334 13 -32.001s-4.33301 -23.334 -13 -32.001s-19.334 -13 -32.001 -13zM210 775
c-12.667 0 -23.334 4.33301 -32.001 13s-13 19.334 -13 32.001s4.33301 23.334 13 32.001s19.334 13 32.001 13s23.334 -4.33301 32.001 -13s13 -19.334 13 -32.001s-4.33301 -23.334 -13 -32.001s-19.334 -13 -32.001 -13zM80 700h70v-700h-70v700z" />
    <glyph glyph-name="uni0408" unicode="&#x408;" horiz-adv-x="553" 
d="M253 -12c-48.667 0 -92.167 10.168 -130.5 30.501s-65.833 50.166 -82.5 89.499l59 35c22 -58 73.333 -87 154 -87c48.667 0 87.5 11.667 116.5 35s43.5 59 43.5 107v502h70v-502c0 -68 -21.833 -120 -65.5 -156s-98.5 -54 -164.5 -54z" />
    <glyph glyph-name="uni0409" unicode="&#x409;" horiz-adv-x="995" 
d="M745 400c58.667 0 108.333 -19.166 149 -57.499s61 -85.833 61 -142.5c0 -57.333 -20.333 -105 -61 -143s-90.334 -57 -149.001 -57h-230v634h-284v-325c0 -122.667 -18.167 -206.5 -54.5 -251.5s-90.166 -64.5 -161.499 -58.5v62
c48.667 -6.66699 85.167 8.66602 109.5 45.999s36.5 105.333 36.5 204v389h424v-300h160zM744.999 66.001c39.333 0 72.5 12.5 99.5 37.5s40.5 57.167 40.5 96.5c0 38.667 -13.5 70.667 -40.5 96s-60.167 38 -99.5 38h-160v-268h160z" />
    <glyph glyph-name="uni040A" unicode="&#x40a;" horiz-adv-x="980" 
d="M730 400c58.667 0 108.334 -19.167 149.001 -57.5s61 -85.833 61 -142.5c0 -57.333 -20.333 -105 -61 -143s-90.334 -57 -149.001 -57h-230v334h-350v-334h-70v700h70v-300h350v300h70v-300h160zM730 66c39.333 0 72.5 12.5 99.5 37.5s40.5 57.167 40.5 96.5
c0 38.667 -13.5 70.667 -40.5 96s-60.167 38 -99.5 38h-160v-268h160z" />
    <glyph glyph-name="uni040B" unicode="&#x40b;" horiz-adv-x="703" 
d="M444 472c56 0 101.499 -16.333 136.499 -49s52.5 -79.667 52.5 -141v-282h-70v282c0 84 -39.333 126 -118 126c-55.333 0 -108.666 -11 -159.999 -33v-375h-70v634h-195v66h490v-66h-225v-196c47.333 22.667 100.333 34 159 34z" />
    <glyph glyph-name="uni040C" unicode="&#x40c;" horiz-adv-x="580" 
d="M396 899l-96 -130h-64l80 130h80zM570 0h-92l-328 339v-339h-70v700h70v-320l318 320h92l-336 -340z" />
    <glyph glyph-name="uni040E" unicode="&#x40e;" horiz-adv-x="570" 
d="M421 837v-58h-260v58h260zM488 700l72.001 0.000976562l-233 -547c-23.333 -56 -53 -96.333 -89 -121s-80.667 -35.334 -134 -32.001v64c37.333 -4 68.166 1.5 92.499 16.5s44.5 41.167 60.5 78.5l14 33l-241 508h72l202 -430z" />
    <glyph glyph-name="uni040F" unicode="&#x40f;" horiz-adv-x="660" 
d="M510 700h70v-700h-215v-134h-70v134h-215v700h70v-634h360v634z" />
    <glyph glyph-name="uni0410" unicode="&#x410;" horiz-adv-x="630" 
d="M546 0l-65 172h-332l-65 -172h-74l269 700h72l269 -700h-74zM174 238h282l-141 375z" />
    <glyph glyph-name="uni0411" unicode="&#x411;" horiz-adv-x="585" 
d="M340 420c58 0 107.5 -20.668 148.5 -62.001s61.5 -90.666 61.5 -147.999c0 -58 -20.5 -107.5 -61.5 -148.5s-90.5 -61.5 -148.5 -61.5h-260v700h410v-66h-340v-214h190zM340 65.999c38.667 0 71.667 14.001 99 42.001s41 62 41 102c0 39.333 -13.667 73.166 -41 101.499
s-60.333 42.5 -99 42.5h-190v-288h190z" />
    <glyph glyph-name="uni0412" unicode="&#x412;" horiz-adv-x="620" 
d="M468 363c34 -14.667 61.167 -36.833 81.5 -66.5s30.5 -63.5 30.5 -101.5c0 -54 -19 -100 -57 -138s-84 -57 -138 -57h-305v700h282c52 0 96.333 -18.5 133 -55.5s55 -81.167 55 -132.5c0 -65.333 -27.333 -115 -82 -149zM362 634.001h-212v-244h212
c32.667 0 60.5 11.833 83.5 35.5s34.5 52.5 34.5 86.5c0 33.333 -11.5 62 -34.5 86s-50.833 36 -83.5 36zM385 66.001c34.667 0 64.167 12.501 88.5 37.501s36.5 55.5 36.5 91.5c0 35.333 -12.167 65.666 -36.5 90.999s-53.833 38 -88.5 38h-235v-258h235z" />
    <glyph glyph-name="uni0413" unicode="&#x413;" horiz-adv-x="490" 
d="M470 700v-66h-320v-634h-70v700h390z" />
    <glyph glyph-name="uni0414" unicode="&#x414;" horiz-adv-x="690" 
d="M580 66h75v-200h-70v134h-500v-134h-70v200h57c46 54 69 137.333 69 250v384h439v-634zM155 66l355 0.000976562v568h-299v-320c0 -110.667 -18.667 -193.334 -56 -248.001z" />
    <glyph glyph-name="uni0415" unicode="&#x415;" horiz-adv-x="530" 
d="M150 66h340v-66h-410v700h405v-66h-335v-248h310v-66h-310v-254z" />
    <glyph glyph-name="uni0416" unicode="&#x416;" horiz-adv-x="850" 
d="M830 0h-82l-288 342v-342h-70v342l-288 -342h-82l301 360l-291 340h82l278 -323v323h70v-323l278 323h82l-291 -340z" />
    <glyph glyph-name="uni0417" unicode="&#x417;" horiz-adv-x="565" 
d="M403 362c38.667 -14.667 68.668 -37 90.001 -67s32 -65.333 32 -106c0 -58.667 -21.833 -106.834 -65.5 -144.501s-102.5 -56.5 -176.5 -56.5c-66.667 0 -120 15 -160 45s-67.667 67.667 -83 113l60 34c8.66699 -35.333 27.5 -65.166 56.5 -89.499
s71.167 -36.5 126.5 -36.5c54.667 0 97 12.5 127 37.5s45 57.5 45 97.5s-13.833 72.5 -41.5 97.5s-65.834 37.5 -114.501 37.5h-80v66h55c47.333 0 85 12 113 36s42 55 42 93c0 37.333 -13.5 67.833 -40.5 91.5s-63.833 35.5 -110.5 35.5c-86 0 -142.667 -36.667 -170 -110
l-58 34c17.333 42.667 44.833 77 82.5 103s86.167 39 145.5 39c66 0 119.333 -18.5 160 -55.5s61 -83.167 61 -138.5c0 -70 -32 -122 -96 -156z" />
    <glyph glyph-name="uni0418" unicode="&#x418;" horiz-adv-x="680" 
d="M530 0v570l-390 -570h-60v700h70v-570l390 570h60v-700h-70z" />
    <glyph glyph-name="uni0419" unicode="&#x419;" horiz-adv-x="680" 
d="M210 780v58h260v-58h-260zM530 0v570l-390 -570h-60v700h70v-570l390 570h60v-700h-70z" />
    <glyph glyph-name="uni041A" unicode="&#x41a;" horiz-adv-x="580" 
d="M570 0h-92l-328 339v-339h-70v700h70v-320l318 320h92l-336 -340z" />
    <glyph glyph-name="uni041B" unicode="&#x41b;" horiz-adv-x="695" 
d="M15 0v62c48.667 -6.66699 85.167 8.5 109.5 45.5s36.5 104.833 36.5 203.5v389h454v-700h-70v634h-314v-325c0 -63.333 -5 -116.333 -15 -159s-24.833 -75.167 -44.5 -97.5s-42 -37.333 -67 -45s-54.833 -10.167 -89.5 -7.5z" />
    <glyph glyph-name="uni041C" unicode="&#x41c;" horiz-adv-x="800" 
d="M720 700v-700h-70v594l-245 -410h-10l-245 410v-594h-70v700h87l233 -390l233 390h87z" />
    <glyph glyph-name="uni041D" unicode="&#x41d;" horiz-adv-x="680" 
d="M530 700h70v-700h-70v327h-380v-327h-70v700h70v-307h380v307z" />
    <glyph glyph-name="uni041E" unicode="&#x41e;" horiz-adv-x="804" 
d="M402 -12c-101.333 0 -187 35.167 -257 105.5s-105 155.833 -105 256.5s35 186.167 105 256.5s155.667 105.5 257 105.5s187 -35.167 257 -105.5s105 -155.833 105 -256.5s-35 -186.167 -105 -256.5s-155.667 -105.5 -257 -105.5zM402 56c82.667 0 152 28.5 208 85.5
s84 126.5 84 208.5s-28 151.5 -84 208.5s-125.333 85.5 -208 85.5s-152 -28.5 -208 -85.5s-84 -126.5 -84 -208.5s28 -151.5 84 -208.5s125.333 -85.5 208 -85.5z" />
    <glyph glyph-name="uni041F" unicode="&#x41f;" horiz-adv-x="660" 
d="M580 700v-700h-70v634h-360v-634h-70v700h500z" />
    <glyph glyph-name="uni0420" unicode="&#x420;" horiz-adv-x="590" 
d="M330 700c62.667 0 115 -21 157 -63s63 -94.333 63 -157s-21 -115 -63 -157s-94.333 -63 -157 -63h-180v-260h-70v700h250zM330 326c43.333 0 79.166 14.5 107.499 43.5s42.5 65.833 42.5 110.5s-14.167 81.5 -42.5 110.5s-64.166 43.5 -107.499 43.5h-180v-308h180z" />
    <glyph glyph-name="uni0421" unicode="&#x421;" horiz-adv-x="745" 
d="M407 -12c-106 0 -193.667 35.002 -263 105.002s-104 155.667 -104 257s34.667 187 104 257s157 105 263 105c64.667 0 124 -15.5 178 -46.5s95.667 -72.833 125 -125.5l-62 -36c-22 42.667 -54.667 76.667 -98 102s-91 38 -143 38
c-87.333 0 -158.666 -28.333 -213.999 -85s-83 -126.334 -83 -209.001s27.667 -152.334 83 -209.001s126.666 -85 213.999 -85c52 0 99.667 12.667 143 38s76 59.333 98 102l62 -35c-28.667 -52.667 -70.167 -94.667 -124.5 -126s-113.833 -47 -178.5 -47z" />
    <glyph glyph-name="uni0422" unicode="&#x422;" horiz-adv-x="540" 
d="M520 700v-66h-215v-634h-70v634h-215v66h500z" />
    <glyph glyph-name="uni0423" unicode="&#x423;" horiz-adv-x="570" 
d="M488 700l72.001 0.000976562l-233 -547c-23.333 -56 -53 -96.333 -89 -121s-80.667 -35.334 -134 -32.001v64c37.333 -4 68.166 1.5 92.499 16.5s44.5 41.167 60.5 78.5l14 33l-241 508h72l202 -430z" />
    <glyph glyph-name="uni0424" unicode="&#x424;" horiz-adv-x="804" 
d="M774 350c0 -82.667 -30.833 -147.334 -92.5 -194.001s-143.167 -72.334 -244.5 -77.001v-79h-70v79c-101.333 4.66699 -182.833 30.334 -244.5 77.001s-92.5 111.334 -92.5 194.001s30.833 147.334 92.5 194.001s143.167 72.334 244.5 77.001v79h70v-79
c101.333 -4.66699 182.833 -30.334 244.5 -77.001s92.5 -111.334 92.5 -194.001zM100 350c0 -64 24 -113.5 72 -148.5s113 -54.5 195 -58.5v414c-82 -4 -147 -23.5 -195 -58.5s-72 -84.5 -72 -148.5zM437 143c82 4 147 23.5 195 58.5s72 84.5 72 148.5s-24 113.5 -72 148.5
s-113 54.5 -195 58.5v-414z" />
    <glyph glyph-name="uni0425" unicode="&#x425;" horiz-adv-x="580" 
d="M560 0h-80l-190 299l-190 -299h-80l230 361l-215 339h79l176 -276l176 276h79l-215 -339z" />
    <glyph glyph-name="uni0426" unicode="&#x426;" horiz-adv-x="690" 
d="M580 66h75v-200h-70v134h-505v700h70v-634h360v634h70v-634z" />
    <glyph glyph-name="uni0427" unicode="&#x427;" horiz-adv-x="625" 
d="M475 700h70.001v-700h-70v295c-60.667 -30 -124 -45 -190 -45c-66.667 0 -120 18.667 -160 56s-60 85.333 -60 144v250h70v-250c0 -40.667 13.167 -73.167 39.5 -97.5s63.166 -36.5 110.499 -36.5c66 0 129.333 15 190 45v339z" />
    <glyph glyph-name="uni0428" unicode="&#x428;" horiz-adv-x="950" 
d="M800 700h70v-700h-790v700h70v-634h290v634h70v-634h290v634z" />
    <glyph glyph-name="uni0429" unicode="&#x429;" horiz-adv-x="980" 
d="M870 66h75v-200h-70v134h-795v700h70v-634h290v634h70v-634h290v634h70v-634z" />
    <glyph glyph-name="uni042A" unicode="&#x42a;" horiz-adv-x="700" 
d="M190 0v634h-190v66h260v-260h180c62.667 0 115 -21 157 -63s63 -94.333 63 -157s-21 -115 -63 -157s-94.333 -63 -157 -63h-250zM260 66h180c43.333 0 79.166 14.5 107.499 43.5s42.5 65.833 42.5 110.5s-14.167 81.5 -42.5 110.5s-64.166 43.5 -107.499 43.5h-180v-308z
" />
    <glyph glyph-name="uni042B" unicode="&#x42b;" horiz-adv-x="775" 
d="M80 0v700h70v-260h180c62.667 0 115 -21 157 -63s63 -94.333 63 -157s-21 -115 -63 -157s-94.333 -63 -157 -63h-250zM625 0v700h70v-700h-70zM150 66h180c43.333 0 79.166 14.5 107.499 43.5s42.5 65.833 42.5 110.5s-14.167 81.5 -42.5 110.5
s-64.166 43.5 -107.499 43.5h-180v-308z" />
    <glyph glyph-name="uni042C" unicode="&#x42c;" horiz-adv-x="590" 
d="M330 440c62.667 0 115 -21 157 -63s63 -94.333 63 -157s-21 -115 -63 -157s-94.333 -63 -157 -63h-250v700h70v-260h180zM330 66c43.333 0 79.166 14.5 107.499 43.5s42.5 65.833 42.5 110.5s-14.167 81.5 -42.5 110.5s-64.166 43.5 -107.499 43.5h-180v-308h180z" />
    <glyph glyph-name="uni042D" unicode="&#x42d;" horiz-adv-x="740" 
d="M338 712c106 0 192.833 -34.8311 260.5 -104.498s101.5 -155.5 101.5 -257.5s-33.833 -187.833 -101.5 -257.5s-154.5 -104.5 -260.5 -104.5c-64.667 0 -124.167 15.667 -178.5 47s-95.833 73.333 -124.5 126l62 35c22 -42.667 54.667 -76.667 98 -102s91 -38 143 -38
c80.667 0 147.334 24.667 200.001 74s82.667 111.666 90 186.999h-383v66h383c-7.33301 75.333 -37.333 137.666 -90 186.999s-119.334 74 -200.001 74c-52 0 -99.667 -12.667 -143 -38s-76 -59.333 -98 -102l-62 36c29.333 52.667 71 94.5 125 125.5s113.333 46.5 178 46.5
z" />
    <glyph glyph-name="uni042E" unicode="&#x42e;" horiz-adv-x="1040" 
d="M638 712c101.333 0 186.999 -35.166 256.999 -105.499s105 -155.833 105 -256.5s-35 -186.167 -105 -256.5s-155.667 -105.5 -257 -105.5c-97.333 0 -179.833 32.667 -247.5 98s-104.167 145.666 -109.5 240.999h-131v-327h-70v700h70v-307h132
c10.667 91.333 49.334 167.333 116.001 228s146.667 91 240 91zM637.999 56.001c82.667 0 152 28.5 208 85.5s84 126.5 84 208.5s-28 151.5 -84 208.5s-125.333 85.5 -208 85.5s-152 -28.5 -208 -85.5s-84 -126.5 -84 -208.5s28 -151.5 84 -208.5s125.333 -85.5 208 -85.5z
" />
    <glyph glyph-name="uni042F" unicode="&#x42f;" horiz-adv-x="620" 
d="M540 700v-700h-70v280h-168l-192 -280h-80l195 283c-50 8.66699 -91.667 32.5 -125 71.5s-50 84.167 -50 135.5c0 58 20.5 107.5 61.5 148.5s90.5 61.5 148.5 61.5h280zM260 346l210 -0.000976562v288h-210c-38.667 0 -71.667 -14 -99 -42s-41 -62 -41 -102
c0 -39.333 13.667 -73.166 41 -101.499s60.333 -42.5 99 -42.5z" />
    <glyph glyph-name="uni0430" unicode="&#x430;" 
d="M500 500h66v-500h-66v98c-46 -73.333 -113.333 -110 -202 -110c-71.333 0 -132.166 25.333 -182.499 76s-75.5 112.667 -75.5 186s25.167 135.333 75.5 186s111.166 76 182.499 76c88.667 0 156 -36.667 202 -110v98zM303 52c55.333 0 102 19.167 140 57.5
s57 85.166 57 140.499s-19 102.166 -57 140.499s-84.667 57.5 -140 57.5s-102 -19.167 -140 -57.5s-57 -85.166 -57 -140.499s19 -102.166 57 -140.499s84.667 -57.5 140 -57.5z" />
    <glyph glyph-name="uni0431" unicode="&#x431;" horiz-adv-x="567" 
d="M292 -12c-72 0 -131.998 23.832 -179.998 71.499s-72 109.5 -72 185.5c0 85.333 12.667 150.833 38 196.5s76.666 87.167 153.999 124.5c14.667 7.33301 34.167 16 58.5 26s42.666 18 54.999 24s25.833 13.833 40.5 23.5s25.667 20.5 33 32.5s12 26.333 14 43l52 -30
c-2.66699 -16 -8 -31 -16 -45s-16.167 -25.333 -24.5 -34s-21.333 -18.167 -39 -28.5s-31.334 -17.666 -41.001 -21.999l-50 -21.5l-47.5 -20c-46.667 -20 -81 -40.833 -103 -62.5s-37.667 -49.834 -47 -84.501c22.667 30 51.5 52.167 86.5 66.5s69.167 21.5 102.5 21.5
c66.667 0 121.834 -21.833 165.501 -65.5s65.5 -99.5 65.5 -167.5c0 -67.333 -23.167 -123.166 -69.5 -167.499s-104.833 -66.5 -175.5 -66.5zM292.002 53.999c52 0 94.834 15.833 128.501 47.5s50.5 71.834 50.5 120.501c0 49.333 -15.833 89.833 -47.5 121.5
s-73.834 47.5 -126.501 47.5c-47.333 0 -90.333 -14.833 -129 -44.5s-58 -69.167 -58 -118.5c0 -50.667 17.5 -92.334 52.5 -125.001s78.167 -49 129.5 -49z" />
    <glyph glyph-name="uni0432" unicode="&#x432;" horiz-adv-x="500" 
d="M388 257c54.667 -20 81.999 -59 81.999 -117c0 -40.667 -13.5 -74.167 -40.5 -100.5s-65.833 -39.5 -116.5 -39.5h-243v500h223c48.667 0 86.334 -12.5 113.001 -37.5s40 -57.167 40 -96.5c0 -50 -19.333 -86.333 -58 -109zM292.999 436h-157v-152h157c58 0 87 26 87 78
c0 23.333 -7.5 41.5 -22.5 54.5s-36.5 19.5 -64.5 19.5zM312.999 64c29.333 0 51.833 7 67.5 21s23.5 33.667 23.5 59c0 23.333 -7.83301 41.833 -23.5 55.5s-38.167 20.5 -67.5 20.5h-177v-156h177z" />
    <glyph glyph-name="uni0433" unicode="&#x433;" horiz-adv-x="400" 
d="M390 500v-64h-254v-436h-66v500h320z" />
    <glyph glyph-name="uni0434" unicode="&#x434;" horiz-adv-x="590" 
d="M490 64h70v-198h-66v134h-408v-134h-66v198h61c34 44.667 51 107.667 51 189v247h358v-436zM161 64h263v372h-226v-183c0 -76.667 -12.333 -139.667 -37 -189z" />
    <glyph glyph-name="uni0435" unicode="&#x435;" horiz-adv-x="584" 
d="M301 512c74 0 133.833 -26.168 179.5 -78.501s68.5 -114.166 68.5 -185.499c0 -7.33301 -0.666992 -17.666 -2 -30.999h-439c6.66699 -50.667 28.167 -90.834 64.5 -120.501s81.166 -44.5 134.499 -44.5c38 0 70.833 7.83301 98.5 23.5s48.5 36.167 62.5 61.5l58 -34
c-22 -35.333 -52 -63.333 -90 -84s-81.333 -31 -130 -31c-78.667 0 -142.667 24.667 -192 74s-74 112 -74 188c0 74.667 24.333 137 73 187s111.334 75 188.001 75zM301 447.999c-52 0 -95.5 -15.5 -130.5 -46.5s-55.833 -71.167 -62.5 -120.5h373
c-6.66699 52.667 -27 93.667 -61 123s-73.667 44 -119 44z" />
    <glyph glyph-name="uni0436" unicode="&#x436;" horiz-adv-x="674" 
d="M654 0h-80l-204 241v-241h-66v241l-204 -241h-80l224 260l-214 240h80l194 -222v222h66v-222l194 222h80l-214 -240z" />
    <glyph glyph-name="uni0437" unicode="&#x437;" horiz-adv-x="445" 
d="M328 257c58 -22 87 -62 87 -120c0 -41.333 -16.167 -76.5 -48.5 -105.5s-78.5 -43.5 -138.5 -43.5c-100.667 0 -166.667 40 -198 120l56 33c20.667 -59.333 68 -89 142 -89c38.667 0 68.5 8.33301 89.5 25s31.5 38 31.5 64c0 23.333 -8.66699 42.333 -26 57
s-40.666 22 -69.999 22h-73v64h53c28.667 0 51.167 7.16699 67.5 21.5s24.5 34.166 24.5 59.499c0 24 -9.66699 43.833 -29 59.5s-45.333 23.5 -78 23.5c-62.667 0 -104.334 -25 -125.001 -75l-55 32c33.333 71.333 93.333 107 180 107c52.667 0 94.667 -13.833 126 -41.5
s47 -61.5 47 -101.5c0 -51.333 -21 -88.666 -63 -111.999z" />
    <glyph glyph-name="uni0438" unicode="&#x438;" horiz-adv-x="560" 
d="M434 500h56v-500h-66v385l-298 -385h-56v500h66v-385z" />
    <glyph glyph-name="uni0439" unicode="&#x439;" horiz-adv-x="560" 
d="M150 580v58h260v-58h-260zM434 500h56v-500h-66v385l-298 -385h-56v500h66v-385z" />
    <glyph glyph-name="uni043A" unicode="&#x43a;" horiz-adv-x="494" 
d="M474 0h-88l-250 241v-241h-66v500h66v-221l238 221h90l-258 -240z" />
    <glyph glyph-name="uni043B" unicode="&#x43b;" horiz-adv-x="550" 
d="M480 500v-500.001h-66v436h-226v-223c0 -83.333 -15.833 -140.666 -47.5 -171.999s-75.167 -45 -130.5 -41v62c38 -4 66.167 5 84.5 27s27.5 63.333 27.5 124v287h358z" />
    <glyph glyph-name="uni043C" unicode="&#x43c;" horiz-adv-x="630" 
d="M560 500v-500h-66v399l-175 -284h-8l-175 284v-399h-66v500h76l169 -274l169 274h76z" />
    <glyph glyph-name="uni043D" unicode="&#x43d;" horiz-adv-x="560" 
d="M424 500h66v-500h-66v218h-288v-218h-66v500h66v-218h288v218z" />
    <glyph glyph-name="uni043E" unicode="&#x43e;" horiz-adv-x="606" 
d="M303 -12c-73.333 0 -135.5 25.167 -186.5 75.5s-76.5 112.5 -76.5 186.5s25.5 136.167 76.5 186.5s113.167 75.5 186.5 75.5s135.5 -25.167 186.5 -75.5s76.5 -112.5 76.5 -186.5s-25.5 -136.167 -76.5 -186.5s-113.167 -75.5 -186.5 -75.5zM303 52
c55.333 0 102 19.167 140 57.5s57 85.166 57 140.499s-19 102.166 -57 140.499s-84.667 57.5 -140 57.5s-102 -19.167 -140 -57.5s-57 -85.166 -57 -140.499s19 -102.166 57 -140.499s84.667 -57.5 140 -57.5z" />
    <glyph glyph-name="uni043F" unicode="&#x43f;" horiz-adv-x="560" 
d="M490 500v-500h-66v436h-288v-436h-66v500h420z" />
    <glyph glyph-name="uni0440" unicode="&#x440;" 
d="M338 512c71.333 0 132.166 -25.333 182.499 -76s75.5 -112.667 75.5 -186s-25.167 -135.333 -75.5 -186s-111.166 -76 -182.499 -76c-88.667 0 -156 36.667 -202 110v-298h-66v700h66v-98c46 73.333 113.333 110 202 110zM333 52c55.333 0 102 19.167 140 57.5
s57 85.166 57 140.499s-19 102.166 -57 140.499s-84.667 57.5 -140 57.5s-102 -19.167 -140 -57.5s-57 -85.166 -57 -140.499s19 -102.166 57 -140.499s84.667 -57.5 140 -57.5z" />
    <glyph glyph-name="uni0441" unicode="&#x441;" horiz-adv-x="552" 
d="M303 -12c-75.333 0 -137.998 25.165 -187.998 75.498s-75 112.5 -75 186.5s25 136.167 75 186.5s112.667 75.5 188 75.5c49.333 0 93.666 -11.833 132.999 -35.5s68 -55.5 86 -95.5l-54 -31c-13.333 30 -34.833 53.833 -64.5 71.5s-63.167 26.5 -100.5 26.5
c-55.333 0 -102 -19.167 -140 -57.5s-57 -85.166 -57 -140.499s19 -102.166 57 -140.499s84.667 -57.5 140 -57.5c37.333 0 70.666 8.83301 99.999 26.5s52.333 41.5 69 71.5l55 -32c-20.667 -40 -51 -71.667 -91 -95s-84.333 -35 -133 -35z" />
    <glyph glyph-name="uni0442" unicode="&#x442;" horiz-adv-x="440" 
d="M430 500v-64h-177v-436h-66v436h-177v64h420z" />
    <glyph glyph-name="uni0443" unicode="&#x443;" horiz-adv-x="510" 
d="M430 500l70 -0.000976562l-214 -546c-19.333 -49.333 -46.833 -88.166 -82.5 -116.499s-75.5 -40.833 -119.5 -37.5v62c60 -6.66699 105.667 28 137 104l13 31l-224 503h70l188 -419z" />
    <glyph glyph-name="uni0444" unicode="&#x444;" horiz-adv-x="670" 
d="M630 250c0 -70 -24 -129.333 -72 -178s-111.333 -76.334 -190 -83.001v-189h-66v189c-78.667 6.66699 -142 34.334 -190 83.001s-72 108 -72 178s24 129.333 72 178s111.333 76.334 190 83.001v189h66v-189c78.667 -6.66699 142 -34.334 190 -83.001s72 -108 72 -178z
M106 250c0 -52 17.667 -96.167 53 -132.5s83 -57.5 143 -63.5v392c-60 -6 -107.667 -27.167 -143 -63.5s-53 -80.5 -53 -132.5zM368 54c60 6 107.667 27.167 143 63.5s53 80.5 53 132.5s-17.667 96.167 -53 132.5s-83 57.5 -143 63.5v-392z" />
    <glyph glyph-name="uni0445" unicode="&#x445;" horiz-adv-x="510" 
d="M490 0h-79l-156 206l-156 -206h-79l196 259l-183 241h79l143 -189l143 189h79l-182 -241z" />
    <glyph glyph-name="uni0446" unicode="&#x446;" horiz-adv-x="590" 
d="M480 64h80v-198h-66v134h-424v500h66v-436h278v436h66v-436z" />
    <glyph glyph-name="uni0447" unicode="&#x447;" horiz-adv-x="530" 
d="M394 500l66 0.000976562v-500h-66v190c-38.667 -20 -86.334 -30 -143.001 -30c-65.333 0 -115.166 15.167 -149.499 45.5s-51.5 75.166 -51.5 134.499v160h66v-160c0 -42 11 -72.167 33 -90.5s55.333 -27.5 100 -27.5c52 0 100.333 9.66699 145 29v249z" />
    <glyph glyph-name="uni0448" unicode="&#x448;" horiz-adv-x="810" 
d="M674 500h66v-500h-670v500h66v-436h236v436h66v-436h236v436z" />
    <glyph glyph-name="uni0449" unicode="&#x449;" horiz-adv-x="840" 
d="M740 64h70v-198h-66v134h-674v500h66v-436h236v436h66v-436h236v436h66v-436z" />
    <glyph glyph-name="uni044A" unicode="&#x44a;" horiz-adv-x="540" 
d="M343 310c46.667 0 86.167 -14.5 118.5 -43.5s48.5 -66.167 48.5 -111.5s-16.167 -82.5 -48.5 -111.5s-71.833 -43.5 -118.5 -43.5h-203v436h-140v64h206v-190h137zM343 64c28 0 51.833 8.33301 71.5 25s29.5 38.667 29.5 66s-9.83301 49.333 -29.5 66s-43.5 25 -71.5 25
h-137v-182h137z" />
    <glyph glyph-name="uni044B" unicode="&#x44b;" horiz-adv-x="646" 
d="M273 310c46.667 0 86.167 -14.5 118.5 -43.5s48.5 -66.167 48.5 -111.5s-16.167 -82.5 -48.5 -111.5s-71.833 -43.5 -118.5 -43.5h-203v500h66v-190h137zM510 500h66v-500h-66v500zM273 64c28 0 51.833 8.33301 71.5 25s29.5 38.667 29.5 66s-9.83301 49.333 -29.5 66
s-43.5 25 -71.5 25h-137v-182h137z" />
    <glyph glyph-name="uni044C" unicode="&#x44c;" horiz-adv-x="470" 
d="M273 310c46.667 0 86.167 -14.5 118.5 -43.5s48.5 -66.167 48.5 -111.5s-16.167 -82.5 -48.5 -111.5s-71.833 -43.5 -118.5 -43.5h-203v500h66v-190h137zM273 64c28 0 51.833 8.33301 71.5 25s29.5 38.667 29.5 66s-9.83301 49.333 -29.5 66s-43.5 25 -71.5 25h-137v-182
h137z" />
    <glyph glyph-name="uni044D" unicode="&#x44d;" horiz-adv-x="539" 
d="M248 512c75.333 0 136.001 -24.834 182.001 -74.501s69 -112.167 69 -187.5s-23.167 -137.833 -69.5 -187.5s-107.5 -74.5 -183.5 -74.5c-54 0 -100.833 11.833 -140.5 35.5s-68.167 55.834 -85.5 96.501l57 33c11.333 -30.667 31.666 -55.167 60.999 -73.5
s65.333 -27.5 108 -27.5c50 0 91.667 15.5 125 46.5s53.333 70.833 60 119.5h-249v64h249c-6 48.667 -25.5 88.5 -58.5 119.5s-74.5 46.5 -124.5 46.5c-38 0 -71.667 -9 -101 -27s-51 -42.333 -65 -73l-58 33c20 40.667 49.833 72.667 89.5 96s84.5 35 134.5 35z" />
    <glyph glyph-name="uni044E" unicode="&#x44e;" horiz-adv-x="800" 
d="M497 512c73.333 0 135.5 -25.167 186.5 -75.5s76.5 -112.5 76.5 -186.5s-25.5 -136.167 -76.5 -186.5s-113.167 -75.5 -186.5 -75.5c-67.333 0 -125.166 21.833 -173.499 65.5s-76.166 98.5 -83.499 164.5h-104v-218h-66v500h66v-218h104
c7.33301 66 35.166 120.833 83.499 164.5s106.166 65.5 173.499 65.5zM497 52c55.333 0 102 19.167 140 57.5s57 85.166 57 140.499s-19 102.166 -57 140.499s-84.667 57.5 -140 57.5s-102 -19.167 -140 -57.5s-57 -85.166 -57 -140.499s19 -102.166 57 -140.499
s84.667 -57.5 140 -57.5z" />
    <glyph glyph-name="uni044F" unicode="&#x44f;" horiz-adv-x="500" 
d="M430 500v-500h-66v192h-86l-154 -192h-84l158 194c-40 6 -73 22.667 -99 50s-39 61 -39 101c0 45.333 16.167 82.5 48.5 111.5s71.833 43.5 118.5 43.5h203zM227 254h137v182h-137c-28 0 -51.833 -8.33301 -71.5 -25s-29.5 -38.667 -29.5 -66s9.83301 -49.333 29.5 -66
s43.5 -25 71.5 -25z" />
    <glyph glyph-name="uni0451" unicode="&#x451;" horiz-adv-x="584" 
d="M200 575c-12.667 0 -23.334 4.33301 -32.001 13s-13 19.334 -13 32.001s4.33301 23.334 13 32.001s19.334 13 32.001 13s23.334 -4.33301 32.001 -13s13 -19.334 13 -32.001s-4.33301 -23.334 -13 -32.001s-19.334 -13 -32.001 -13zM390 575
c-12.667 0 -23.334 4.33301 -32.001 13s-13 19.334 -13 32.001s4.33301 23.334 13 32.001s19.334 13 32.001 13s23.334 -4.33301 32.001 -13s13 -19.334 13 -32.001s-4.33301 -23.334 -13 -32.001s-19.334 -13 -32.001 -13zM301 512c74 0 133.833 -26.168 179.5 -78.501
s68.5 -114.166 68.5 -185.499c0 -7.33301 -0.666992 -17.666 -2 -30.999h-439c6.66699 -50.667 28.167 -90.834 64.5 -120.501s81.166 -44.5 134.499 -44.5c38 0 70.833 7.83301 98.5 23.5s48.5 36.167 62.5 61.5l58 -34c-22 -35.333 -52 -63.333 -90 -84
s-81.333 -31 -130 -31c-78.667 0 -142.667 24.667 -192 74s-74 112 -74 188c0 74.667 24.333 137 73 187s111.334 75 188.001 75zM301 447.999c-52 0 -95.5 -15.5 -130.5 -46.5s-55.833 -71.167 -62.5 -120.5h373c-6.66699 52.667 -27 93.667 -61 123s-73.667 44 -119 44z
" />
    <glyph glyph-name="uni0452" unicode="&#x452;" horiz-adv-x="568" 
d="M314 512c60.667 0 108.5 -18.5029 143.5 -55.5029s52.5 -86.833 52.5 -149.5v-347c0 -60 -15.667 -105 -47 -135s-75.666 -42.333 -132.999 -37v64c39.333 -4 68.166 2.33301 86.499 19s27.5 46.334 27.5 89.001v347c0 44.667 -11.833 79.334 -35.5 104.001
s-57.167 37 -100.5 37c-48 0 -87 -15.167 -117 -45.5s-45 -77.166 -45 -140.499v-262h-66v576h-70v54h70v70h66v-70h144v-54h-144v-154c37.333 60 93.333 90 168 90z" />
    <glyph glyph-name="uni0453" unicode="&#x453;" horiz-adv-x="400" 
d="M316 700l-96 -130h-64l80 130h80zM390 500v-64h-254v-436h-66v500h320z" />
    <glyph glyph-name="uni0454" unicode="&#x454;" horiz-adv-x="539" 
d="M462 153l57.001 -32.999c-17.333 -40.667 -45.833 -72.834 -85.5 -96.501s-86.5 -35.5 -140.5 -35.5c-76 0 -137.167 24.833 -183.5 74.5s-69.5 112.167 -69.5 187.5s23 137.833 69 187.5s106.667 74.5 182 74.5c50 0 94.833 -11.667 134.5 -35s69.5 -55.333 89.5 -96
l-58 -33c-14 30.667 -35.667 55 -65 73s-63 27 -101 27c-50 0 -91.5 -15.5 -124.5 -46.5s-52.5 -70.833 -58.5 -119.5h249v-64h-249c6.66699 -48.667 26.667 -88.5 60 -119.5s75 -46.5 125 -46.5c42.667 0 78.667 9.16699 108 27.5s49.666 42.833 60.999 73.5z" />
    <glyph glyph-name="uni0455" unicode="&#x455;" horiz-adv-x="454" 
d="M122 369c0 -22.667 10.002 -40.667 30.002 -54s44.333 -23.666 73 -30.999s57.334 -15.5 86.001 -24.5s53 -24 73 -45s30 -48.5 30 -82.5c0 -42.667 -16.833 -77.334 -50.5 -104.001s-77.167 -40 -130.5 -40c-48 0 -88.833 10.667 -122.5 32s-57.167 49 -70.5 83l56 33
c9.33301 -26 26.166 -46.5 50.499 -61.5s53.166 -22.5 86.499 -22.5c32.667 0 60 6.5 82 19.5s33 33.167 33 60.5c0 22.667 -10 40.667 -30 54s-44.333 23.666 -73 30.999s-57.334 15.5 -86.001 24.5s-53 24 -73 45s-30 48.5 -30 82.5c0 40.667 16.167 74.667 48.5 102
s73.166 41 122.499 41c40.667 0 76.334 -9.16699 107.001 -27.5s53.334 -43.166 68.001 -74.499l-55 -32c-19.333 46.667 -59.333 70 -120 70c-28.667 0 -53.334 -6.83301 -74.001 -20.5s-31 -33.167 -31 -58.5z" />
    <glyph glyph-name="uni0456" unicode="&#x456;" horiz-adv-x="206" 
d="M103 606c-13.333 0 -24.666 4.66699 -33.999 14s-14 20.666 -14 33.999s4.66699 24.666 14 33.999s20.666 14 33.999 14s24.666 -4.66699 33.999 -14s14 -20.666 14 -33.999s-4.66699 -24.666 -14 -33.999s-20.666 -14 -33.999 -14zM70 0v500h66v-500h-66z" />
    <glyph glyph-name="uni0457" unicode="&#x457;" horiz-adv-x="206" 
d="M8 575c-12.667 0 -23.334 4.33301 -32.001 13s-13 19.334 -13 32.001s4.33301 23.334 13 32.001s19.334 13 32.001 13s23.334 -4.33301 32.001 -13s13 -19.334 13 -32.001s-4.33301 -23.334 -13 -32.001s-19.334 -13 -32.001 -13zM198 575
c-12.667 0 -23.334 4.33301 -32.001 13s-13 19.334 -13 32.001s4.33301 23.334 13 32.001s19.334 13 32.001 13s23.334 -4.33301 32.001 -13s13 -19.334 13 -32.001s-4.33301 -23.334 -13 -32.001s-19.334 -13 -32.001 -13zM70 0v500h66v-500h-66z" />
    <glyph glyph-name="uni0458" unicode="&#x458;" horiz-adv-x="230" 
d="M127 702c13.333 0 24.666 -4.66699 33.999 -14s14 -20.666 14 -33.999s-4.66699 -24.666 -14 -33.999s-20.666 -14 -33.999 -14s-24.666 4.66699 -33.999 14s-14 20.666 -14 33.999s4.66699 24.666 14 33.999s20.666 14 33.999 14zM94 -40v539.999h66v-540
c0 -60 -15.667 -105 -47 -135s-75.666 -42.333 -132.999 -37v64c39.333 -4 68.166 2.33301 86.499 19s27.5 46.334 27.5 89.001z" />
    <glyph glyph-name="uni0459" unicode="&#x459;" horiz-adv-x="789" 
d="M602 290c44.667 0 82 -13.001 112 -39.001s45 -61.333 45 -106s-15 -80 -45 -106s-67.333 -39 -112 -39h-198v436h-216v-223c0 -83.333 -15.833 -140.666 -47.5 -171.999s-75.167 -45 -130.5 -41v62c38 -4 66.167 5 84.5 27s27.5 63.333 27.5 124v287h348v-210h132z
M602 63.999c26.667 0 48.5 6.83105 65.5 20.498s25.5 33.834 25.5 60.501s-8.5 46.834 -25.5 60.501s-38.833 20.5 -65.5 20.5h-132v-162h132z" />
    <glyph glyph-name="uni045A" unicode="&#x45a;" horiz-adv-x="789" 
d="M602 290c44.667 0 82 -13 112 -39s45 -61.333 45 -106s-15 -80 -45 -106s-67.333 -39 -112 -39h-198v226h-268v-226h-66v500h66v-210h268v210h66v-210h132zM602 64c26.667 0 48.5 6.83105 65.5 20.498s25.5 33.834 25.5 60.501s-8.5 46.834 -25.5 60.501
s-38.833 20.5 -65.5 20.5h-132v-162h132z" />
    <glyph glyph-name="uni045B" unicode="&#x45b;" horiz-adv-x="568" 
d="M314 512c60.667 0 108.5 -18.502 143.5 -55.502s52.5 -86.833 52.5 -149.5v-307h-66v307c0 44.667 -11.833 79.334 -35.5 104.001s-57.167 37 -100.5 37c-48 0 -87 -15.167 -117 -45.5s-45 -77.166 -45 -140.499v-262h-66v576h-70v54h70v70h66v-70h144v-54h-144v-154
c37.333 60 93.333 90 168 90z" />
    <glyph glyph-name="uni045C" unicode="&#x45c;" horiz-adv-x="494" 
d="M356 700l-96 -130h-64l80 130h80zM474 0h-88l-250 241v-241h-66v500h66v-221l238 221h90l-258 -240z" />
    <glyph glyph-name="uni045E" unicode="&#x45e;" horiz-adv-x="510" 
d="M383 638v-58h-260v58h260zM430 500l70 -0.000976562l-214 -546c-19.333 -49.333 -46.833 -88.166 -82.5 -116.499s-75.5 -40.833 -119.5 -37.5v62c60 -6.66699 105.667 28 137 104l13 31l-224 503h70l188 -419z" />
    <glyph glyph-name="uni045F" unicode="&#x45f;" horiz-adv-x="560" 
d="M424 500h66v-500h-177v-134h-66v134h-177v500h66v-436h288v436z" />
    <glyph glyph-name="uni0490" unicode="&#x490;" horiz-adv-x="490" 
d="M400 820h70v-186h-320v-634h-70v700h320v120z" />
    <glyph glyph-name="uni0491" unicode="&#x491;" horiz-adv-x="400" 
d="M324 604h66v-168h-254v-436h-66v500h254v104z" />
    <glyph glyph-name="Wgrave" unicode="&#x1e80;" horiz-adv-x="1000" 
d="M560 770l-80 130h-80l96 -130h64zM233 0l-203 700h74l173 -605l182 605h82l182 -605l173 605h74l-203 -700h-84l-183 608l-183 -608h-84z" />
    <glyph glyph-name="wgrave" unicode="&#x1e81;" horiz-adv-x="770" 
d="M445 570h-64l-96 130h80zM672 500h68l-154 -500h-72l-129 403l-129 -403h-72l-154 500h68l123 -415l131 415h66l131 -415z" />
    <glyph glyph-name="Wacute" unicode="&#x1e82;" horiz-adv-x="1000" 
d="M450 770h64l96 130h-80zM233 0l-203 700h74l173 -605l182 605h82l182 -605l173 605h74l-203 -700h-84l-183 608l-183 -608h-84z" />
    <glyph glyph-name="wacute" unicode="&#x1e83;" horiz-adv-x="770" 
d="M495 700l-96 -130h-64l80 130h80zM672 500h68l-154 -500h-72l-129 403l-129 -403h-72l-154 500h68l123 -415l131 415h66l131 -415z" />
    <glyph glyph-name="Wdieresis" unicode="&#x1e84;" horiz-adv-x="1000" 
d="M405 775c-12.667 0 -23.334 4.33301 -32.001 13s-13 19.334 -13 32.001s4.33301 23.334 13 32.001s19.334 13 32.001 13s23.334 -4.33301 32.001 -13s13 -19.334 13 -32.001s-4.33301 -23.334 -13 -32.001s-19.334 -13 -32.001 -13zM595 775
c-12.667 0 -23.334 4.33301 -32.001 13s-13 19.334 -13 32.001s4.33301 23.334 13 32.001s19.334 13 32.001 13s23.334 -4.33301 32.001 -13s13 -19.334 13 -32.001s-4.33301 -23.334 -13 -32.001s-19.334 -13 -32.001 -13zM233 0l-203 700h74l173 -605l182 605h82l182 -605
l173 605h74l-203 -700h-84l-183 608l-183 -608h-84z" />
    <glyph glyph-name="wdieresis" unicode="&#x1e85;" horiz-adv-x="770" 
d="M290 575c-12.667 0 -23.334 4.33301 -32.001 13s-13 19.334 -13 32.001s4.33301 23.334 13 32.001s19.334 13 32.001 13s23.334 -4.33301 32.001 -13s13 -19.334 13 -32.001s-4.33301 -23.334 -13 -32.001s-19.334 -13 -32.001 -13zM480 575
c-12.667 0 -23.334 4.33301 -32.001 13s-13 19.334 -13 32.001s4.33301 23.334 13 32.001s19.334 13 32.001 13s23.334 -4.33301 32.001 -13s13 -19.334 13 -32.001s-4.33301 -23.334 -13 -32.001s-19.334 -13 -32.001 -13zM672 500h68l-154 -500h-72l-129 403l-129 -403
h-72l-154 500h68l123 -415l131 415h66l131 -415z" />
    <glyph glyph-name="Ygrave" unicode="&#x1ef2;" horiz-adv-x="595" 
d="M354 770h-64l-96 130h80zM585 700l-253 -413v-287h-70v289l-252 411h79l209 -343l208 343h79z" />
    <glyph glyph-name="ygrave" unicode="&#x1ef3;" horiz-adv-x="510" 
d="M313 570h-64l-96 130h80zM430 500l70 -0.000976562l-214 -546c-19.333 -49.333 -46.833 -88.166 -82.5 -116.499s-75.5 -40.833 -119.5 -37.5v62c60 -6.66699 105.667 28 137 104l13 31l-224 503h70l188 -419z" />
    <glyph glyph-name="endash" unicode="&#x2013;" horiz-adv-x="660" 
d="M80 277v64h500v-64h-500z" />
    <glyph glyph-name="emdash" unicode="&#x2014;" horiz-adv-x="760" 
d="M80 277v64h600v-64h-600z" />
    <glyph glyph-name="quoteleft" unicode="&#x2018;" horiz-adv-x="240" 
d="M60 475l60 225h60l-40 -225h-80z" />
    <glyph glyph-name="quoteright" unicode="&#x2019;" horiz-adv-x="240" 
d="M180 700l-60 -225h-60l40 225h80z" />
    <glyph glyph-name="quotesinglbase" unicode="&#x201a;" horiz-adv-x="240" 
d="M180 85l-60 -225h-60l40 225h80z" />
    <glyph glyph-name="quotedblleft" unicode="&#x201c;" horiz-adv-x="380" 
d="M60 475l60 225h60l-40 -225h-80zM200 475l60 225h60l-40 -225h-80z" />
    <glyph glyph-name="quotedblright" unicode="&#x201d;" horiz-adv-x="380" 
d="M180 700l-60 -225h-60l40 225h80zM320 700l-60 -225h-60l40 225h80z" />
    <glyph glyph-name="quotedblbase" unicode="&#x201e;" horiz-adv-x="380" 
d="M180 85l-60 -225h-60l40 225h80zM320 85l-60 -225h-60l40 225h80z" />
    <glyph glyph-name="dagger" unicode="&#x2020;" horiz-adv-x="480" 
d="M420 535v-64h-147v-471h-66v471h-147v64h147v165h66v-165h147z" />
    <glyph glyph-name="daggerdbl" unicode="&#x2021;" horiz-adv-x="480" 
d="M420 471h-147v-242h147v-64h-147v-165h-66v165h-147v64h147v242h-147v64h147v165h66v-165h147v-64z" />
    <glyph glyph-name="bullet" unicode="&#x2022;" horiz-adv-x="300" 
d="M151 250c-28 0 -51.833 9.83301 -71.5 29.5s-29.5 43.5 -29.5 71.5c0 27.333 9.83301 50.666 29.5 69.999s43.5 29 71.5 29c27.333 0 50.666 -9.66699 69.999 -29s29 -42.666 29 -69.999c0 -28 -9.66699 -51.833 -29 -71.5s-42.666 -29.5 -69.999 -29.5z" />
    <glyph glyph-name="ellipsis" unicode="&#x2026;" horiz-adv-x="610" 
d="M115 -10c-15.333 0 -28.333 5.33301 -39 16s-16 23.667 -16 39s5.33301 28.333 16 39s23.667 16 39 16s28.333 -5.33301 39 -16s16 -23.667 16 -39s-5.33301 -28.333 -16 -39s-23.667 -16 -39 -16zM305 -10c-15.333 0 -28.333 5.33301 -39 16s-16 23.667 -16 39
s5.33301 28.333 16 39s23.667 16 39 16s28.333 -5.33301 39 -16s16 -23.667 16 -39s-5.33301 -28.333 -16 -39s-23.667 -16 -39 -16zM495 -10c-15.333 0 -28.333 5.33301 -39 16s-16 23.667 -16 39s5.33301 28.333 16 39s23.667 16 39 16s28.333 -5.33301 39 -16
s16 -23.667 16 -39s-5.33301 -28.333 -16 -39s-23.667 -16 -39 -16z" />
    <glyph glyph-name="perthousand" unicode="&#x2030;" horiz-adv-x="1064" 
d="M213 412c-43.333 0 -79.6641 14.5 -108.997 43.5s-44 64.5 -44 106.5s14.667 77.5 44 106.5s65.666 43.5 108.999 43.5s79.666 -14.5 108.999 -43.5s44 -64.5 44 -106.5s-14.333 -77.5 -43 -106.5s-65.334 -43.5 -110.001 -43.5zM213.002 472c26 0 47.333 8.66699 64 26
s25 38.666 25 63.999s-8.33301 46.666 -25 63.999s-38 26 -64 26s-47.333 -8.66699 -64 -26s-25 -38.666 -25 -63.999s8.33301 -46.666 25 -63.999s38 -26 64 -26zM95.002 95l469 527l43 -24l-470 -527zM496.002 -12c-43.333 0 -79.666 14.5 -108.999 43.5
s-44 64.5 -44 106.5s14.667 77.5 44 106.5s65.666 43.5 108.999 43.5s79.666 -14.5 108.999 -43.5s44 -64.5 44 -106.5s-14.667 -77.5 -44 -106.5s-65.666 -43.5 -108.999 -43.5zM851.002 -12c-43.333 0 -79.666 14.5 -108.999 43.5s-44 64.5 -44 106.5
s14.667 77.5 44 106.5s65.666 43.5 108.999 43.5s79.666 -14.5 108.999 -43.5s44 -64.5 44 -106.5s-14.667 -77.5 -44 -106.5s-65.666 -43.5 -108.999 -43.5zM496.002 48c26 0 47.333 8.66699 64 26s25 38.666 25 63.999s-8.33301 46.666 -25 63.999s-38 26 -64 26
s-47.333 -8.66699 -64 -26s-25 -38.666 -25 -63.999s8.33301 -46.666 25 -63.999s38 -26 64 -26zM851.002 48c26 0 47.333 8.66699 64 26s25 38.666 25 63.999s-8.33301 46.666 -25 63.999s-38 26 -64 26s-47.333 -8.66699 -64 -26s-25 -38.666 -25 -63.999
s8.33301 -46.666 25 -63.999s38 -26 64 -26z" />
    <glyph glyph-name="guilsinglleft" unicode="&#x2039;" horiz-adv-x="332" 
d="M262 489l-110 -180l110 -180h-82l-110 180l110 180h82z" />
    <glyph glyph-name="guilsinglright" unicode="&#x203a;" horiz-adv-x="332" 
d="M152 489l110 -180l-110 -180h-82l110 180l-110 180h82z" />
    <glyph glyph-name="fraction" unicode="&#x2044;" horiz-adv-x="220" 
d="M-60 0h-60l400 700h60z" />
    <glyph glyph-name="Euro" unicode="&#x20ac;" horiz-adv-x="594" 
d="M360 56c35.333 0 66.1689 8.66797 92.502 26.001s45.833 42.333 58.5 75l58 -33c-17.333 -43.333 -44.166 -76.833 -80.499 -100.5s-79.166 -35.5 -128.499 -35.5c-72.667 0 -132 24.833 -178 74.5s-75 117.5 -87 203.5h-75v58h70v26c0 15.333 0.333008 26.666 1 33.999
h-71v58h77c12 83.333 41 149.166 87 197.499s104.667 72.5 176 72.5c49.333 0 92.166 -11.833 128.499 -35.5s63.166 -56.834 80.499 -99.501l-58 -33c-28 66.667 -78.333 100 -151 100c-50.667 0 -92.834 -17.5 -126.501 -52.5s-55.834 -84.833 -66.501 -149.5h253v-58
h-259c-0.666992 -7.33301 -1 -18.666 -1 -33.999c0 -12 0.333008 -20.667 1 -26h259v-58h-254c10 -67.333 31.833 -119.166 65.5 -155.499s76.5 -54.5 128.5 -54.5z" />
    <glyph glyph-name="uni20BD" unicode="&#x20bd;" horiz-adv-x="590" 
d="M360 280l-180 -0.000976562v-94h260v-58h-260v-128h-70v128h-90v58h90v94h-90v66h90v354h250c58 0 107.5 -20.5 148.5 -61.5s61.5 -90.5 61.5 -148.5c0 -57.333 -20.5 -106.666 -61.5 -147.999s-90.5 -62 -148.5 -62zM180 633.999v-287.999h180
c38.667 0 71.667 14.167 99 42.5s41 62.166 41 101.499c0 40 -13.667 74 -41 102s-60.333 42 -99 42h-180z" />
    <glyph glyph-name="uni2116" unicode="&#x2116;" horiz-adv-x="1016" 
d="M823 412c-43.333 0 -79.6641 14.5 -108.997 43.5s-44 64.5 -44 106.5s14.667 77.5 44 106.5s65.666 43.5 108.999 43.5s79.666 -14.5 108.999 -43.5s44 -64.5 44 -106.5s-14.333 -77.5 -43 -106.5s-65.334 -43.5 -110.001 -43.5zM530.002 700h70v-700h-60l-390 570v-570
h-70v700h60l390 -570v570zM823.002 472c26 0 47.333 8.66699 64 26s25 38.666 25 63.999s-8.33301 46.666 -25 63.999s-38 26 -64 26s-47.333 -8.66699 -64 -26s-25 -38.666 -25 -63.999s8.33301 -46.666 25 -63.999s38 -26 64 -26zM682.002 278v64h282v-64h-282z" />
    <glyph glyph-name="trademark" unicode="&#x2122;" horiz-adv-x="465" 
d="M195 700v-37h-57v-163h-40v163h-58v37h155zM385 700h40v-200h-40v133l-61 -97h-4l-61 97v-133h-40v200h40l63 -100z" />
    <glyph glyph-name="estimated" unicode="&#x212e;" horiz-adv-x="820" 
d="M410 710c108.667 0 197.499 -34.668 266.499 -104.001s103.5 -154.666 103.5 -255.999c0 -10 -5 -15 -15 -15h-560c-10 0 -15 -5 -15 -15v-192c0 -7.33301 2.33301 -13.666 7 -18.999c56 -59.333 133.667 -89 233 -89c96.667 0 173.667 32.333 231 97
c4.66699 6 10.667 9 18 9h37c6.66699 0 11 -2 13 -6s0.666992 -8.33301 -4 -13c-72.667 -78 -171 -117 -295 -117c-117.333 0 -211.666 34.5 -282.999 103.5s-107 154.5 -107 256.5c0 101.333 34.5 186.666 103.5 255.999s157.833 104 266.5 104zM629.999 571.999
c0 7.33301 -2.33301 13.666 -7 18.999c-56 59.333 -127 89 -213 89s-157 -29.667 -213 -89c-4.66699 -5.33301 -7 -11.666 -7 -18.999v-192c0 -10 5 -15 15 -15h410c10 0 15 5 15 15v192z" />
    <glyph glyph-name="oneeighth" unicode="&#x215b;" horiz-adv-x="802" 
d="M179 300h-62v332l-91 -27l-16 53l116 42h53v-400zM527 700h60l-400 -700h-60zM712 211c44 -23.333 66.001 -58.332 66.001 -104.999c0 -36 -13.167 -64.667 -39.5 -86s-60.833 -32 -103.5 -32s-77.334 10.667 -104.001 32s-40 50 -40 86c0 47.333 22 82 66 104
c-35.333 21.333 -53 50.666 -53 87.999c0 35.333 12.5 63.166 37.5 83.499s56.167 30.5 93.5 30.5c36.667 0 67.5 -10.167 92.5 -30.5s37.5 -48.166 37.5 -83.499c0 -37.333 -17.667 -66.333 -53 -87zM635.001 354.001c-22 0 -39 -5 -51 -15s-18 -23.667 -18 -41
c0 -18 6 -32.333 18 -43s29 -16 51 -16c21.333 0 38 5.33301 50 16s18 25 18 43c0 17.333 -5.83301 31 -17.5 41s-28.5 15 -50.5 15zM635.001 48.001c25.333 0 45.168 6 59.501 18s21.5 28 21.5 48s-7.33301 35.833 -22 47.5s-34.334 17.5 -59.001 17.5
c-26.667 0 -47 -5.66699 -61 -17s-21 -27.333 -21 -48c0 -20 7.16699 -36 21.5 -48s34.5 -18 60.5 -18z" />
    <glyph glyph-name="threeeighths" unicode="&#x215c;" horiz-adv-x="907" 
d="M313 417c0 -38.667 -13.334 -69.833 -40.001 -93.5s-62 -35.5 -106 -35.5c-68 0 -115.333 28 -142 84l52 30c16.667 -36 46.667 -54 90 -54c26.667 0 47.334 6.16699 62.001 18.5s22 29.166 22 50.499c0 20.667 -7.5 37.334 -22.5 50.001s-35.5 19 -61.5 19h-4l-31 47
l90 107h-184v60h258v-60l-89 -106c33.333 -6.66699 59.333 -20.167 78 -40.5s28 -45.833 28 -76.5zM631.999 700.001h60l-400 -700h-60zM816.999 211.001c44 -23.333 66.001 -58.332 66.001 -104.999c0 -36 -13.167 -64.667 -39.5 -86s-60.833 -32 -103.5 -32
s-77.334 10.667 -104.001 32s-40 50 -40 86c0 47.333 22 82 66 104c-35.333 21.333 -53 50.666 -53 87.999c0 35.333 12.5 63.166 37.5 83.499s56.167 30.5 93.5 30.5c36.667 0 67.5 -10.167 92.5 -30.5s37.5 -48.166 37.5 -83.499c0 -37.333 -17.667 -66.333 -53 -87z
M740 354.002c-22 0 -39 -5 -51 -15s-18 -23.667 -18 -41c0 -18 6 -32.333 18 -43s29 -16 51 -16c21.333 0 38 5.33301 50 16s18 25 18 43c0 17.333 -5.83301 31 -17.5 41s-28.5 15 -50.5 15zM740 48.002c25.333 0 45.168 6 59.501 18s21.5 28 21.5 48
s-7.33301 35.833 -22 47.5s-34.334 17.5 -59.001 17.5c-26.667 0 -47 -5.66699 -61 -17s-21 -27.333 -21 -48c0 -20 7.16699 -36 21.5 -48s34.5 -18 60.5 -18z" />
    <glyph glyph-name="fiveeighths" unicode="&#x215d;" horiz-adv-x="896" 
d="M303 417c0 -39.333 -12.667 -70.668 -38 -94.001s-60.333 -35 -105 -35c-68 0 -114.667 28.333 -140 85l53 29c16.667 -36 45.667 -54 87 -54c25.333 0 45.166 6.33301 59.499 19s21.5 29.334 21.5 50.001c0 22.667 -7.16699 40.5 -21.5 53.5s-34.166 19.5 -59.499 19.5
h-122l15 210h234v-58h-181l-6 -92h62c42 0 76 -12.167 102 -36.5s39 -56.5 39 -96.5zM621 699.998h60l-400 -700h-60zM806 210.998c44 -23.333 66.001 -58.332 66.001 -104.999c0 -36 -13.167 -64.667 -39.5 -86s-60.833 -32 -103.5 -32s-77.334 10.667 -104.001 32
s-40 50 -40 86c0 47.333 22 82 66 104c-35.333 21.333 -53 50.666 -53 87.999c0 35.333 12.5 63.166 37.5 83.499s56.167 30.5 93.5 30.5c36.667 0 67.5 -10.167 92.5 -30.5s37.5 -48.166 37.5 -83.499c0 -37.333 -17.667 -66.333 -53 -87zM729.001 353.999
c-22 0 -39 -5 -51 -15s-18 -23.667 -18 -41c0 -18 6 -32.333 18 -43s29 -16 51 -16c21.333 0 38 5.33301 50 16s18 25 18 43c0 17.333 -5.83301 31 -17.5 41s-28.5 15 -50.5 15zM729.001 47.999c25.333 0 45.168 6 59.501 18s21.5 28 21.5 48s-7.33301 35.833 -22 47.5
s-34.334 17.5 -59.001 17.5c-26.667 0 -47 -5.66699 -61 -17s-21 -27.333 -21 -48c0 -20 7.16699 -36 21.5 -48s34.5 -18 60.5 -18z" />
    <glyph glyph-name="seveneighths" unicode="&#x215e;" horiz-adv-x="851" 
d="M276 700v-50l-148 -350h-66l146 340h-198v60h266zM576 700h60l-400 -700h-60zM761 211c44 -23.333 66.001 -58.332 66.001 -104.999c0 -36 -13.167 -64.667 -39.5 -86s-60.833 -32 -103.5 -32s-77.334 10.667 -104.001 32s-40 50 -40 86c0 47.333 22 82 66 104
c-35.333 21.333 -53 50.666 -53 87.999c0 35.333 12.5 63.166 37.5 83.499s56.167 30.5 93.5 30.5c36.667 0 67.5 -10.167 92.5 -30.5s37.5 -48.166 37.5 -83.499c0 -37.333 -17.667 -66.333 -53 -87zM684.001 354.001c-22 0 -39 -5 -51 -15s-18 -23.667 -18 -41
c0 -18 6 -32.333 18 -43s29 -16 51 -16c21.333 0 38 5.33301 50 16s18 25 18 43c0 17.333 -5.83301 31 -17.5 41s-28.5 15 -50.5 15zM684.001 48.001c25.333 0 45.168 6 59.501 18s21.5 28 21.5 48s-7.33301 35.833 -22 47.5s-34.334 17.5 -59.001 17.5
c-26.667 0 -47 -5.66699 -61 -17s-21 -27.333 -21 -48c0 -20 7.16699 -36 21.5 -48s34.5 -18 60.5 -18z" />
    <glyph glyph-name="arrowleft" unicode="&#x2190;" horiz-adv-x="820" 
d="M760 382v-64h-578l268 -268h-90l-300 300l300 300h90l-268 -268h578z" />
    <glyph glyph-name="arrowup" unicode="&#x2191;" horiz-adv-x="720" 
d="M660 400v-90l-267 267v-577h-66v577l-267 -267v90l300 300z" />
    <glyph glyph-name="arrowright" unicode="&#x2192;" horiz-adv-x="820" 
d="M460 650l300 -300l-300 -300h-90l268 268h-578v64h578l-268 268h90z" />
    <glyph glyph-name="arrowdown" unicode="&#x2193;" horiz-adv-x="720" 
d="M393 123l267 267v-90l-300 -300l-300 300v90l267 -267v577h66v-577z" />
    <glyph glyph-name="arrowboth" unicode="&#x2194;" horiz-adv-x="1040" 
d="M731 600l249 -250l-249 -250h-90l217 218h-676l217 -218h-90l-249 250l249 250h90l-217 -218h676l-217 218h90z" />
    <glyph glyph-name="arrowupdn" unicode="&#x2195;" horiz-adv-x="620" 
d="M560 471l-217 216v-674l217 216v-90l-250 -249l-250 249v90l217 -216v674l-217 -216v90l250 249l250 -249v-90z" />
    <glyph glyph-name="uni2196" unicode="&#x2196;" horiz-adv-x="638" 
d="M578 116l-47 -47l-408 408v-377l-63 63v424h424l63 -63h-377z" />
    <glyph glyph-name="uni2197" unicode="&#x2197;" horiz-adv-x="638" 
d="M154 587h424v-424l-63 -63v377l-408 -408l-47 47l408 408h-377z" />
    <glyph glyph-name="uni2198" unicode="&#x2198;" horiz-adv-x="638" 
d="M515 576l63 -63v-424h-424l-63 63h377l-408 408l47 47l408 -408v377z" />
    <glyph glyph-name="uni2199" unicode="&#x2199;" horiz-adv-x="638" 
d="M578 560l-408 -408h377l-63 -63h-424v424l63 63v-377l408 408z" />
    <glyph glyph-name="partialdiff" unicode="&#x2202;" horiz-adv-x="576" 
d="M232 712c80.667 0 148.167 -33.333 202.5 -100s81.5 -154 81.5 -262c0 -113.333 -24.333 -202 -73 -266s-110.667 -96 -186 -96c-64 0 -114.5 20 -151.5 60s-55.5 90.667 -55.5 152c0 68.667 20.333 124.167 61 166.5s96.667 63.5 168 63.5c62 0 118.667 -17.667 170 -53
c-4 76 -25 140 -63 192s-89.333 78 -154 78c-48 0 -91.667 -11.667 -131 -35v64c37.333 24 81 36 131 36zM257 52c54 0 98.332 22.832 132.999 68.499s54.334 108.834 59.001 189.501c-48 37.333 -104.667 56 -170 56c-50 0 -89.667 -14.333 -119 -43s-44 -69.667 -44 -123
c0 -43.333 12 -78.833 36 -106.5s59 -41.5 105 -41.5z" />
    <glyph glyph-name="emptyset" unicode="&#x2205;" horiz-adv-x="804" 
d="M653 611c74 -70.667 111 -157.667 111 -261c0 -100 -35.333 -185.333 -106 -256s-156 -106 -256 -106c-77.333 0 -147.333 22.333 -210 67l-62 -75h-70l91 109c-74 70.667 -111 157.667 -111 261c0 100 35.333 185.333 106 256s156 106 256 106
c77.333 0 147.333 -22.333 210 -67l62 75h70zM100 350c0 -84 29.333 -156 88 -216l387 466c-52 36 -109.667 54 -173 54c-84 0 -155.333 -29.5 -214 -88.5s-88 -130.833 -88 -215.5zM402 46c84 0 155.333 29.5 214 88.5s88 130.833 88 215.5c0 84 -29.333 156 -88 216
l-387 -466c52 -36 109.667 -54 173 -54z" />
    <glyph glyph-name="product" unicode="&#x220f;" horiz-adv-x="640" 
d="M80 -200v900h480v-900h-66v836h-348v-836h-66z" />
    <glyph glyph-name="summation" unicode="&#x2211;" horiz-adv-x="540" 
d="M50 -200v65l240 395l-225 374v66h430v-64h-355l227 -376l-241 -396h384v-64h-460z" />
    <glyph glyph-name="minus" unicode="&#x2212;" horiz-adv-x="540" 
d="M60 318v64h420v-64h-420z" />
    <glyph glyph-name="radical" unicode="&#x221a;" horiz-adv-x="644" 
d="M285 0l-137 236h-88v64h126l127 -220l241 720h70l-269 -800h-70z" />
    <glyph glyph-name="infinity" unicode="&#x221e;" horiz-adv-x="800" 
d="M584 510c46 0 84.333 -15.333 115 -46s46 -68.667 46 -114s-15.333 -83.333 -46 -114s-69 -46 -115 -46c-64.667 0 -126 36.667 -184 110c-58 -73.333 -119.333 -110 -184 -110c-46 0 -84.333 15.333 -115 46s-46 68.667 -46 114s15.333 83.333 46 114s69 46 115 46
c64.667 0 126 -36.667 184 -110c58 73.333 119.333 110 184 110zM217 250c48.667 0 97 33.333 145 100c-48 66.667 -96.333 100 -145 100c-28.667 0 -52 -9.33301 -70 -28s-27 -42.667 -27 -72s9 -53.333 27 -72s41.333 -28 70 -28zM584 250c28.667 0 52 9.33301 70 28
s27 42.667 27 72s-9 53.333 -27 72s-41.333 28 -70 28c-48.667 0 -97 -33.333 -145 -100c48 -66.667 96.333 -100 145 -100z" />
    <glyph glyph-name="integral" unicode="&#x222b;" horiz-adv-x="439" 
d="M0 -202l0.000976562 64c36 -13.333 64.667 -13.833 86 -1.5s34.666 35.5 39.999 69.5l109 640c10 59.333 32.5 100 67.5 122s80.5 25.333 136.5 10v-64c-80 26.667 -126 4 -138 -68l-109 -640c-10 -58.667 -32 -99.167 -66 -121.5s-76 -25.833 -126 -10.5z" />
    <glyph glyph-name="approxequal" unicode="&#x2248;" horiz-adv-x="594" 
d="M282 402c-51.333 29.333 -88.4971 40.334 -111.497 33.001s-39.833 -30.333 -50.5 -69l-60 28c17.333 56 47.166 90.333 89.499 103s96.5 -0.333008 162.5 -39c33.333 -20.667 61.166 -32.167 83.499 -34.5s39.166 2.33398 50.499 14.001s20.666 30.5 27.999 56.5l60 -28
c-17.333 -56.667 -46.666 -91.334 -87.999 -104.001s-96 0.666016 -164 39.999zM120.003 206.001l-59.9971 28.001c17.333 56 47.166 90.333 89.499 103s96.5 -0.333008 162.5 -39c33.333 -20.667 61.166 -32.167 83.499 -34.5s39.166 2.33398 50.499 14.001
s20.666 30.5 27.999 56.5l60 -28c-17.333 -56.667 -46.666 -91.334 -87.999 -104.001s-96 0.666016 -164 39.999c-51.333 29.333 -88.5 40.333 -111.5 33s-39.833 -30.333 -50.5 -69z" />
    <glyph glyph-name="notequal" unicode="&#x2260;" horiz-adv-x="540" 
d="M480 418h-155l-60 -136h215v-64h-244l-66 -148h-50l66 148h-126v64h155l60 136h-215v64h244l66 148h50l-66 -148h126v-64z" />
    <glyph glyph-name="lessequal" unicode="&#x2264;" horiz-adv-x="520" 
d="M460 600v-74l-317 -115l317 -115v-74l-400 156v66zM60 100v64h400v-64h-400z" />
    <glyph glyph-name="greaterequal" unicode="&#x2265;" horiz-adv-x="520" 
d="M60 600l400 -156v-66l-400 -156v74l317 115l-317 115v74zM60 100v64h400v-64h-400z" />
    <glyph glyph-name="lozenge" unicode="&#x25ca;" horiz-adv-x="540" 
d="M236 0l-186 350l186 350h68l186 -350l-186 -350h-68zM270 71l149 279l-149 279l-149 -279z" />
    <glyph glyph-name=".null" horiz-adv-x="0" 
 />
    <glyph glyph-name="nonmarkingreturn" horiz-adv-x="333" 
 />
    <glyph glyph-name="i.loclTRK" horiz-adv-x="206" 
d="M103 570c-15.333 0 -28.333 5.33301 -39 16s-16 23.667 -16 39s5.33301 28.333 16 39s23.667 16 39 16s28.333 -5.33301 39 -16s16 -23.667 16 -39s-5.33301 -28.333 -16 -39s-23.667 -16 -39 -16zM70 0v500h66v-500h-66z" />
    <glyph glyph-name="f_f_j" horiz-adv-x="786" 
d="M716 500l0.00195312 -540.001c0 -60 -15.667 -105 -47 -135s-75.666 -42.333 -132.999 -37v64c39.333 -4 68.166 2.33301 86.499 19s27.5 46.334 27.5 89.001v476h-204v-436h-66v436h-204v-436h-66v436h-85v64h85v20c0 65.333 18.167 114.833 54.5 148.5
s88.166 48.167 155.499 43.5v-64c-48.667 4 -84.834 -4.33301 -108.501 -25s-35.5 -55 -35.5 -103v-20h204v30c0 128 70 192 210 192c28 0 60 -4 96 -12v-60c-31.333 5.33301 -63.333 8 -96 8c-50 0 -86.5 -9.66699 -109.5 -29s-34.5 -52.333 -34.5 -99v-30h270z" />
    <glyph glyph-name="f_j" horiz-adv-x="516" 
d="M446 500v-540.001c0 -60 -15.667 -105 -47 -135s-75.666 -42.333 -132.999 -37v64c39.333 -4 68.166 2.33301 86.499 19s27.5 46.334 27.5 89.001v476h-204v-436h-66v436h-85v64h85v20c0 128 70 192 210 192c28 0 60 -4 96 -12v-60c-31.333 5.33301 -63.333 8 -96 8
c-50 0 -86.5 -9.66699 -109.5 -29s-34.5 -52.333 -34.5 -99v-20h270z" />
    <glyph glyph-name="uni0414.loclBGR" horiz-adv-x="700" 
d="M611 66h64v-200h-70v134h-510v-134h-70v200h64l225 634h72zM163 66h374l-187 547z" />
    <glyph glyph-name="uni041B.loclBGR" horiz-adv-x="608" 
d="M268 700h72l258 -700h-76l-218 607l-218 -607h-76z" />
    <glyph glyph-name="uni0424.loclBGR" horiz-adv-x="844" 
d="M804 350c0 -102.667 -32 -186.667 -96 -252s-147.667 -101.666 -251 -108.999v-89h-70v89c-103.333 7.33301 -187 43.666 -251 108.999s-96 149.333 -96 252s32 186.667 96 252s147.667 101.666 251 108.999v89h70v-89c103.333 -7.33301 187 -43.666 251 -108.999
s96 -149.333 96 -252zM110 350c0 -84.667 25.167 -153.5 75.5 -206.5s117.5 -83.167 201.5 -90.5v594c-84 -7.33301 -151.167 -37.5 -201.5 -90.5s-75.5 -121.833 -75.5 -206.5zM457 53c84 7.33301 151.167 37.5 201.5 90.5s75.5 121.833 75.5 206.5
s-25.167 153.5 -75.5 206.5s-117.5 83.167 -201.5 90.5v-594z" />
    <glyph glyph-name="uni0414.ss01" horiz-adv-x="690" 
d="M580 66h75v-66h-640v66h57c46 54 69 137.333 69 250v384h439v-634zM155 66l355 0.000976562v568h-299v-320c0 -110.667 -18.667 -193.334 -56 -248.001z" />
    <glyph glyph-name="uni0426.ss01" horiz-adv-x="690" 
d="M580 66h75v-66h-575v700h70v-634h360v634h70v-634z" />
    <glyph glyph-name="uni0429.ss01" horiz-adv-x="980" 
d="M870 66h75v-66h-865v700h70v-634h290v634h70v-634h290v634h70v-634z" />
    <glyph glyph-name="uni0414.loclBGR.ss01" horiz-adv-x="700" 
d="M611 66h64v-66h-650v66h64l225 634h72zM163 66h374l-187 547z" />
    <glyph glyph-name="uni0432.loclBGR" horiz-adv-x="570" 
d="M399 400c41.333 -13.333 73.5 -37.332 96.5 -71.999s34.5 -77.334 34.5 -128.001c0 -66.667 -20.167 -118.667 -60.5 -156s-96.833 -56 -169.5 -56s-129.167 21.333 -169.5 64s-60.5 102 -60.5 178v235c0 76 19.333 136.167 58 180.5s92 66.5 160 66.5
c56 0 100.333 -15.5 133 -46.5s49 -71.5 49 -121.5c0 -52.667 -23.667 -100.667 -71 -144zM288 648.001c-47.333 0 -84.5 -16.5 -111.5 -49.5s-40.5 -77.5 -40.5 -133.5v-81l103 21c26 5.33301 53.333 8 82 8c55.333 40 83 83.667 83 131c0 30 -10.333 54.833 -31 74.5
s-49 29.5 -85 29.5zM300 52.001c51.333 0 91.499 13 120.499 39s43.5 62.333 43.5 109c0 56 -20.667 97 -62 123s-95.666 32 -162.999 18l-103 -21v-90c0 -56 14.5 -99.667 43.5 -131s69.167 -47 120.5 -47z" />
    <glyph glyph-name="uni0433.loclBGR" horiz-adv-x="454" 
d="M363 141l56 -33c-13.333 -34 -37 -62.5 -71 -85.5s-74.667 -34.5 -122 -34.5c-53.333 0 -96.833 13.333 -130.5 40s-50.5 61.334 -50.5 104.001c0 34 9.83301 61.5 29.5 82.5s43.5 36 71.5 45s56.167 17.167 84.5 24.5s52.333 17.666 72 30.999s29.5 31.333 29.5 54
c0 25.333 -10.167 44.833 -30.5 58.5s-43.5 20.5 -69.5 20.5c-28 0 -53.333 -6.33301 -76 -19s-39 -31.334 -49 -56.001l-55 32c15.333 32 38.666 57.833 69.999 77.5s68 29.5 110 29.5c47.333 0 86.833 -13.833 118.5 -41.5s47.5 -61.5 47.5 -101.5
c0 -34 -9.83301 -61.5 -29.5 -82.5s-43.5 -36 -71.5 -45s-56.167 -17.167 -84.5 -24.5s-52.333 -17.666 -72 -30.999s-29.5 -31.333 -29.5 -54c0 -27.333 11 -47.5 33 -60.5s49.333 -19.5 82 -19.5s61.334 8.33301 86.001 25s41.667 38 51 64z" />
    <glyph glyph-name="uni0434.loclBGR" 
d="M500 500l66 0.000976562v-480c0 -72 -24.667 -128.667 -74 -170s-108.333 -62 -177 -62c-117.333 0 -196.333 40.667 -237 122l58 33c30 -60.667 89.667 -91 179 -91c57.333 0 102.5 15.167 135.5 45.5s49.5 71.166 49.5 122.499v78c-46 -73.333 -113.333 -110 -202 -110
c-71.333 0 -132.166 25.333 -182.499 76s-75.5 112.667 -75.5 186s25.167 135.333 75.5 186s111.166 76 182.499 76c88.667 0 156 -36.667 202 -110v98zM303 52.001c55.333 0 102 19.167 140 57.5s57 85.166 57 140.499s-19 102.166 -57 140.499s-84.667 57.5 -140 57.5
s-102 -19.167 -140 -57.5s-57 -85.166 -57 -140.499s19 -102.166 57 -140.499s84.667 -57.5 140 -57.5z" />
    <glyph glyph-name="uni0436.loclBGR" horiz-adv-x="674" 
d="M654 0h-80l-204 241v-241h-66v241l-204 -241h-80l224 260l-214 240h80l194 -222v422h66v-422l194 222h80l-214 -240z" />
    <glyph glyph-name="uni0438.loclBGR" horiz-adv-x="558" 
d="M422 500l66 0.00195312v-500h-66v78c-37.333 -60 -93.333 -90 -168 -90c-60.667 0 -108.5 18.5 -143.5 55.5s-52.5 86.833 -52.5 149.5v307h66v-307c0 -44.667 11.833 -79.334 35.5 -104.001s57.167 -37 100.5 -37c48 0 87 15.167 117 45.5s45 77.166 45 140.499v262z
" />
    <glyph glyph-name="uni0439.loclBGR" horiz-adv-x="558" 
d="M401 638v-58h-260v58h260zM422 500l66 0.00195312v-500h-66v78c-37.333 -60 -93.333 -90 -168 -90c-60.667 0 -108.5 18.5 -143.5 55.5s-52.5 86.833 -52.5 149.5v307h66v-307c0 -44.667 11.833 -79.334 35.5 -104.001s57.167 -37 100.5 -37c48 0 87 15.167 117 45.5
s45 77.166 45 140.499v262z" />
    <glyph glyph-name="uni043A.loclBGR" horiz-adv-x="494" 
d="M474 0h-88l-250 241v-241h-66v700h66v-421l238 221h90l-258 -240z" />
    <glyph glyph-name="uni043B.loclBGR" horiz-adv-x="510" 
d="M500 0h-70l-175 431l-175 -431h-70l205 500h80z" />
    <glyph glyph-name="uni043F.loclBGR" horiz-adv-x="558" 
d="M304 512c60.667 0 108.5 -18.502 143.5 -55.502s52.5 -86.833 52.5 -149.5v-307h-66v307c0 44.667 -11.833 79.334 -35.5 104.001s-57.167 37 -100.5 37c-48 0 -87 -15.167 -117 -45.5s-45 -77.166 -45 -140.499v-262h-66v500h66v-78c37.333 60 93.333 90 168 90z" />
    <glyph glyph-name="uni0442.loclBGR" horiz-adv-x="848" 
d="M603 512c56 0 101.167 -17.999 135.5 -53.999s51.5 -84.667 51.5 -146v-312h-66v312c0 43.333 -11.167 76.833 -33.5 100.5s-51.833 35.5 -88.5 35.5c-41.333 0 -74.833 -13.833 -100.5 -41.5s-38.5 -70.834 -38.5 -129.501v-277h-66v312c0 44 -10.5 77.667 -31.5 101
s-49.5 35 -85.5 35c-40 0 -74 -14 -102 -42s-42 -71 -42 -129v-277h-66v500h66v-73c36 56.667 87 85 153 85c72 0 122.667 -30.333 152 -91c36 60.667 90 91 162 91z" />
    <glyph glyph-name="uni0446.loclBGR" horiz-adv-x="594" 
d="M525 64l38.999 0.00292969v-198h-66v136c-20 3.33301 -36.667 12 -50 26s-21.666 31.667 -24.999 53c-36.667 -62 -93 -93 -169 -93c-60.667 0 -108.5 18.5 -143.5 55.5s-52.5 86.833 -52.5 149.5v307h66v-307c0 -44.667 11.833 -79.334 35.5 -104.001
s57.167 -37 100.5 -37c48 0 87 15.167 117 45.5s45 77.166 45 140.499v262h66v-400c0 -10.667 3.33301 -19.334 10 -26.001s15.667 -10 27 -10z" />
    <glyph glyph-name="uni0448.loclBGR" horiz-adv-x="848" 
d="M712 500l66 -0.000976562v-500h-66v73c-36 -56.667 -87 -85 -153 -85c-72 0 -122.667 30.333 -152 91c-36 -60.667 -90 -91 -162 -91c-56 0 -101.167 18 -135.5 54s-51.5 84.667 -51.5 146v312h66v-312c0 -43.333 11.167 -76.833 33.5 -100.5s51.833 -35.5 88.5 -35.5
c41.333 0 74.833 13.833 100.5 41.5s38.5 70.834 38.5 129.501v277h66v-312c0 -44 10.5 -77.667 31.5 -101s49.5 -35 85.5 -35c40 0 74 14 102 42s42 71 42 129v277z" />
    <glyph glyph-name="uni0449.loclBGR" horiz-adv-x="884" 
d="M815 64h39v-198h-66v136c-19.333 2.66699 -35.5 10.667 -48.5 24s-21.5 30 -25.5 50c-36 -58.667 -87.667 -88 -155 -88c-72 0 -122.667 30.333 -152 91c-36 -60.667 -90 -91 -162 -91c-56 0 -101.167 18 -135.5 54s-51.5 84.667 -51.5 146v312h66v-312
c0 -43.333 11.167 -76.833 33.5 -100.5s51.833 -35.5 88.5 -35.5c41.333 0 74.833 13.833 100.5 41.5s38.5 70.834 38.5 129.501v277h66v-312c0 -44 10.5 -77.667 31.5 -101s49.5 -35 85.5 -35c40 0 74 14 102 42s42 71 42 129v277h66v-400
c0 -10.667 3.33301 -19.334 10 -26.001s15.667 -10 27 -10z" />
    <glyph glyph-name="uni044C.loclBGR" horiz-adv-x="478" 
d="M253 338c61.333 0 109.166 -15.001 143.499 -45.001s51.5 -71.667 51.5 -125c0 -49.333 -18.167 -91.666 -54.5 -126.999s-83.166 -53 -140.499 -53c-60 0 -107.5 17 -142.5 51s-52.5 77 -52.5 129v332h66v-162h129zM253 51.999c37.333 0 68.167 11.667 92.5 35
s36.5 50.333 36.5 81c0 33.333 -11.333 59.333 -34 78s-54.334 28 -95.001 28h-129v-106c0 -31.333 11.833 -58.5 35.5 -81.5s54.834 -34.5 93.501 -34.5z" />
    <glyph glyph-name="uni044A.loclBGR" horiz-adv-x="562" 
d="M335 338c61.333 0 109.166 -15.001 143.499 -45.001s51.5 -71.667 51.5 -125c0 -49.333 -18.167 -91.666 -54.5 -126.999s-83.166 -53 -140.499 -53c-60 0 -107.5 17 -142.5 51s-52.5 77 -52.5 129v268h-140v64h206v-162h129zM335 51.999c37.333 0 68.167 11.667 92.5 35
s36.5 50.333 36.5 81c0 33.333 -11.333 59.333 -34 78s-54.334 28 -95.001 28h-129v-106c0 -31.333 11.833 -58.5 35.5 -81.5s54.834 -34.5 93.501 -34.5z" />
    <glyph glyph-name="uni044E.loclBGR" horiz-adv-x="800" 
d="M497 512c73.333 0 135.5 -25.167 186.5 -75.5s76.5 -112.5 76.5 -186.5s-25.5 -136.167 -76.5 -186.5s-113.167 -75.5 -186.5 -75.5c-67.333 0 -125.166 21.833 -173.499 65.5s-76.166 98.5 -83.499 164.5h-104v-218h-66v700h66v-418h104
c7.33301 66 35.166 120.833 83.499 164.5s106.166 65.5 173.499 65.5zM497 52c55.333 0 102 19.167 140 57.5s57 85.166 57 140.499s-19 102.166 -57 140.499s-84.667 57.5 -140 57.5s-102 -19.167 -140 -57.5s-57 -85.166 -57 -140.499s19 -102.166 57 -140.499
s84.667 -57.5 140 -57.5z" />
    <glyph glyph-name="zero.sinf" horiz-adv-x="410" 
d="M205 -172c-54.667 0 -97.5 19.333 -128.5 58s-46.5 90 -46.5 154s15.5 115.333 46.5 154s73.833 58 128.5 58s97.5 -19.333 128.5 -58s46.5 -90 46.5 -154s-15.5 -115.333 -46.5 -154s-73.833 -58 -128.5 -58zM205 -112c35.333 0 63 13 83 39s30 63.667 30 113
s-10 87 -30 113s-47.667 39 -83 39s-63 -13 -83 -39s-30 -63.667 -30 -113s10 -87 30 -113s47.667 -39 83 -39z" />
    <glyph glyph-name="one.sinf" horiz-adv-x="239" 
d="M126 240h53v-400h-62v332l-91 -27l-16 53z" />
    <glyph glyph-name="two.sinf" horiz-adv-x="341" 
d="M31 -160l0.000976562 51l168 154c28 24.667 42 53 42 85c0 18.667 -6.5 33.667 -19.5 45s-30.5 17 -52.5 17c-41.333 0 -70.333 -20.667 -87 -62l-52 29c25.333 62 71.666 93 138.999 93c40 0 72.333 -11.667 97 -35s37 -52.333 37 -87c0 -46 -20.667 -87.667 -62 -125
l-118 -105h188v-60h-280z" />
    <glyph glyph-name="three.sinf" horiz-adv-x="348" 
d="M207 74c33.333 -6.66699 59.332 -20.166 77.999 -40.499s28 -45.833 28 -76.5c0 -38.667 -13.333 -69.834 -40 -93.501s-62 -35.5 -106 -35.5c-68 0 -115.333 28 -142 84l52 30c16.667 -36 46.667 -54 90 -54c26.667 0 47.334 6.16699 62.001 18.5s22 29.166 22 50.499
c0 20.667 -7.5 37.334 -22.5 50.001s-35.5 19 -61.5 19h-4l-31 47l90 107h-184v60h258v-60z" />
    <glyph glyph-name="four.sinf" horiz-adv-x="354" 
d="M334 -27v-58h-51v-75h-62v75h-206v58l149 267h67l-148 -267h138v96h62v-96h51z" />
    <glyph glyph-name="five.sinf" horiz-adv-x="328" 
d="M167 90c42 0 76 -12.1689 102 -36.502s39 -56.5 39 -96.5c0 -39.333 -12.667 -70.666 -38 -93.999s-60.333 -35 -105 -35c-68 0 -114.667 28.333 -140 85l53 29c16.667 -36 45.667 -54 87 -54c25.333 0 45.166 6.33301 59.499 19s21.5 29.334 21.5 50.001
c0 22.667 -7.16699 40.5 -21.5 53.5s-34.166 19.5 -59.499 19.5h-122l15 210h234v-58h-181l-6 -92h62z" />
    <glyph glyph-name="six.sinf" horiz-adv-x="335" 
d="M167 107c42 0 77.168 -13.332 105.501 -39.999s42.5 -59.667 42.5 -99s-14.167 -72.5 -42.5 -99.5s-63.5 -40.5 -105.5 -40.5s-77 13.5 -105 40.5s-42 60.167 -42 99.5c0 25.333 6.33301 48.666 19 69.999v1l3 3l1 2l125 196h75l-92 -134
c3.33301 0.666992 8.66602 1 15.999 1zM167.001 -111.999c26 0 46.833 7.5 62.5 22.5s23.5 34.167 23.5 57.5s-7.83301 42.333 -23.5 57s-36.5 22 -62.5 22s-46.667 -7.33301 -62 -22s-23 -33.667 -23 -57s7.83301 -42.5 23.5 -57.5s36.167 -22.5 61.5 -22.5z" />
    <glyph glyph-name="seven.sinf" horiz-adv-x="296" 
d="M10 240h266v-50l-148 -350h-66l146 340h-198v60z" />
    <glyph glyph-name="eight.sinf" horiz-adv-x="335" 
d="M245 51c44 -23.333 66.001 -58.332 66.001 -104.999c0 -36 -13.167 -64.667 -39.5 -86s-60.833 -32 -103.5 -32s-77.334 10.667 -104.001 32s-40 50 -40 86c0 47.333 22 82 66 104c-35.333 21.333 -53 50.666 -53 87.999c0 35.333 12.5 63.166 37.5 83.499
s56.167 30.5 93.5 30.5c36.667 0 67.5 -10.167 92.5 -30.5s37.5 -48.166 37.5 -83.499c0 -37.333 -17.667 -66.333 -53 -87zM168.001 194.001c-22 0 -39 -5 -51 -15s-18 -23.667 -18 -41c0 -18 6 -32.333 18 -43s29 -16 51 -16c21.333 0 38 5.33301 50 16s18 25 18 43
c0 17.333 -5.83301 31 -17.5 41s-28.5 15 -50.5 15zM168.001 -111.999c25.333 0 45.168 6 59.501 18s21.5 28 21.5 48s-7.33301 35.833 -22 47.5s-34.334 17.5 -59.001 17.5c-26.667 0 -47 -5.66699 -61 -17s-21 -27.333 -21 -48c0 -20 7.16699 -36 21.5 -48
s34.5 -18 60.5 -18z" />
    <glyph glyph-name="nine.sinf" horiz-adv-x="335" 
d="M296 42v-1.00098c-0.666992 -0.666992 -1.33398 -1.66699 -2.00098 -3l-2 -2l-125 -196h-75l92 134c-3.33301 -0.666992 -8.66602 -1 -15.999 -1c-42 0 -77.167 13.333 -105.5 40s-42.5 59.667 -42.5 99s14.167 72.5 42.5 99.5s63.5 40.5 105.5 40.5s77 -13.5 105 -40.5
s42 -60.167 42 -99.5c0 -25.333 -6.33301 -48.666 -19 -69.999zM82 111.999c0 -23.333 7.83301 -42.333 23.5 -57s36.5 -22 62.5 -22s46.667 7.33301 62 22s23 33.667 23 57s-7.83301 42.5 -23.5 57.5s-36.167 22.5 -61.5 22.5c-26 0 -46.833 -7.5 -62.5 -22.5
s-23.5 -34.167 -23.5 -57.5z" />
    <glyph glyph-name="zero.tf" horiz-adv-x="570" 
d="M285 -12c-84 0 -149.167 32.833 -195.5 98.5s-69.5 153.5 -69.5 263.5s23.167 197.833 69.5 263.5s111.5 98.5 195.5 98.5s149.167 -32.833 195.5 -98.5s69.5 -153.5 69.5 -263.5s-23.167 -197.833 -69.5 -263.5s-111.5 -98.5 -195.5 -98.5zM285 56
c61.333 0 109.166 25.667 143.499 77s51.5 123.666 51.5 216.999s-17.167 165.666 -51.5 216.999s-82.166 77 -143.499 77s-109.166 -25.667 -143.499 -77s-51.5 -123.666 -51.5 -216.999s17.167 -165.666 51.5 -216.999s82.166 -77 143.499 -77z" />
    <glyph glyph-name="one.tf" horiz-adv-x="570" 
d="M335 66h205v-66h-500v66h225v557l-157 -47l-18 60l185 64h60v-634z" />
    <glyph glyph-name="two.tf" horiz-adv-x="570" 
d="M45 0l-0.000976562 63.001l253 218c48.667 41.333 85.334 78.166 110.001 110.499s37 65.833 37 100.5c0 47.333 -14.667 84.5 -44 111.5s-68.333 40.5 -117 40.5c-38.667 0 -73.167 -10.333 -103.5 -31s-53.5 -49.667 -69.5 -87l-58 34c21.333 48 52.5 85.333 93.5 112
s86.833 40 137.5 40c66 0 121 -20 165 -60s66 -93.333 66 -160c0 -46 -14.667 -89.833 -44 -131.5s-71 -84.5 -125 -128.5l-201 -164h385v-68h-485z" />
    <glyph glyph-name="three.tf" horiz-adv-x="570" 
d="M321 409c62.667 -6.66699 113.168 -27.665 151.501 -62.998s57.5 -83 57.5 -143c0 -67.333 -24 -120 -72 -158s-109 -57 -183 -57c-58.667 0 -110.834 14.167 -156.501 42.5s-76.5 66.833 -92.5 115.5l59 34c10 -38 32.167 -68.167 66.5 -90.5s75.5 -33.5 123.5 -33.5
c56.667 0 101.667 12.667 135 38s50 61.666 50 108.999s-16.667 83.666 -50 108.999s-78.333 38 -135 38v1l-1 -1h-18l-31 46l191 238h-366v66h450v-66z" />
    <glyph glyph-name="four.tf" horiz-adv-x="570" 
d="M550 206v-66h-90v-140h-70v140h-370v66l260 494h76l-260 -494h294v194h70v-194h90z" />
    <glyph glyph-name="five.tf" horiz-adv-x="570" 
d="M285 418c69.333 0 127.501 -19.165 174.501 -57.498s70.5 -90.833 70.5 -157.5s-23.5 -119.167 -70.5 -157.5s-105.167 -57.5 -174.5 -57.5c-58.667 0 -110.834 14.167 -156.501 42.5s-76.5 66.833 -92.5 115.5l59 34c10 -38 32.167 -68.167 66.5 -90.5
s75.5 -33.5 123.5 -33.5c52 0 94.167 12.667 126.5 38s48.5 61.666 48.5 108.999s-16.167 83.666 -48.5 108.999s-74.5 38 -126.5 38h-210l25 350h405v-66h-341l-15 -216h136z" />
    <glyph glyph-name="six.tf" horiz-adv-x="570" 
d="M275 450c77.333 0 139.165 -21.168 185.498 -63.501s69.5 -98.166 69.5 -167.499s-23.167 -125.166 -69.5 -167.499s-108.166 -63.5 -185.499 -63.5s-139.166 21.167 -185.499 63.5s-69.5 98.166 -69.5 167.499c0 54 14.667 100.333 44 139l244 342h83l-182 -256
c20 4 42 6 66 6zM274.999 55.999c58.667 0 104.167 14.667 136.5 44s48.5 69 48.5 119s-16.167 89.667 -48.5 119s-77.833 44 -136.5 44s-104.167 -14.667 -136.5 -44s-48.5 -69 -48.5 -119s16.167 -89.667 48.5 -119s77.833 -44 136.5 -44z" />
    <glyph glyph-name="seven.tf" horiz-adv-x="570" 
d="M40 700h490v-66l-285 -634h-72l284 634h-417v66z" />
    <glyph glyph-name="eight.tf" horiz-adv-x="570" 
d="M418 361c36.667 -16.667 65.332 -39.834 85.999 -69.501s31 -63.5 31 -101.5c0 -64 -22.833 -113.667 -68.5 -149s-106.167 -53 -181.5 -53s-135.833 17.667 -181.5 53s-68.5 85 -68.5 149c0 38 10.333 71.833 31 101.5s49.334 52.834 86.001 69.501
c-62 36.667 -93 89 -93 157c0 62 21.333 109.833 64 143.5s96.667 50.5 162 50.5s119.333 -16.833 162 -50.5s64 -81.5 64 -143.5c0 -68 -31 -120.333 -93 -157zM284.998 644c-48.667 0 -86.8301 -10.5 -114.497 -31.5s-41.5 -52.5 -41.5 -94.5c0 -40 14.167 -71 42.5 -93
s66.166 -33 113.499 -33s85.166 11 113.499 33s42.5 53 42.5 93c0 42 -13.833 73.5 -41.5 94.5s-65.834 31.5 -114.501 31.5zM285.002 56c58 0 102.5 11.667 133.5 35s46.5 56.333 46.5 99s-15.5 75.667 -46.5 99s-75.5 35 -133.5 35s-102.5 -11.667 -133.5 -35
s-46.5 -56.333 -46.5 -99s15.5 -75.667 46.5 -99s75.5 -35 133.5 -35z" />
    <glyph glyph-name="nine.tf" horiz-adv-x="570" 
d="M550 481c0 -54 -14.666 -100.332 -43.999 -138.999l-244 -342h-83l182 256c-20 -4 -42 -6 -66 -6c-77.333 0 -139.166 21.167 -185.499 63.5s-69.5 98.166 -69.5 167.499s23.167 125.166 69.5 167.499s108.166 63.5 185.499 63.5s139.166 -21.167 185.499 -63.5
s69.5 -98.166 69.5 -167.499zM110.001 481.001c0 -50 16.167 -89.667 48.5 -119s77.833 -44 136.5 -44s104.167 14.667 136.5 44s48.5 69 48.5 119s-16.167 89.667 -48.5 119s-77.833 44 -136.5 44s-104.167 -14.667 -136.5 -44s-48.5 -69 -48.5 -119z" />
    <glyph glyph-name="zero.dnom" horiz-adv-x="410" 
d="M205 -12c-54.667 0 -97.5 19.333 -128.5 58s-46.5 90 -46.5 154s15.5 115.333 46.5 154s73.833 58 128.5 58s97.5 -19.333 128.5 -58s46.5 -90 46.5 -154s-15.5 -115.333 -46.5 -154s-73.833 -58 -128.5 -58zM205 48c35.333 0 63 13 83 39s30 63.667 30 113
s-10 87 -30 113s-47.667 39 -83 39s-63 -13 -83 -39s-30 -63.667 -30 -113s10 -87 30 -113s47.667 -39 83 -39z" />
    <glyph glyph-name="one.dnom" horiz-adv-x="247" 
d="M126 400h53v-400h-62v332l-91 -27l-16 53z" />
    <glyph glyph-name="two.dnom" horiz-adv-x="340" 
d="M31 0l0.000976562 51l168 154c28 24.667 42 53 42 85c0 18.667 -6.5 33.667 -19.5 45s-30.5 17 -52.5 17c-41.333 0 -70.333 -20.667 -87 -62l-52 29c25.333 62 71.666 93 138.999 93c40 0 72.333 -11.667 97 -35s37 -52.333 37 -87c0 -46 -20.667 -87.667 -62 -125
l-118 -105h188v-60h-280z" />
    <glyph glyph-name="three.dnom" horiz-adv-x="352" 
d="M207 234c33.333 -6.66699 59.332 -20.166 77.999 -40.499s28 -45.833 28 -76.5c0 -38.667 -13.333 -69.834 -40 -93.501s-62 -35.5 -106 -35.5c-68 0 -115.333 28 -142 84l52 30c16.667 -36 46.667 -54 90 -54c26.667 0 47.334 6.16699 62.001 18.5s22 29.166 22 50.499
c0 20.667 -7.5 37.334 -22.5 50.001s-35.5 19 -61.5 19h-4l-31 47l90 107h-184v60h258v-60z" />
    <glyph glyph-name="four.dnom" horiz-adv-x="354" 
d="M334 133v-58h-51v-75h-62v75h-206v58l149 267h67l-148 -267h138v96h62v-96h51z" />
    <glyph glyph-name="five.dnom" horiz-adv-x="341" 
d="M162 250c42 0 76 -12.1689 102 -36.502s39 -56.5 39 -96.5c0 -39.333 -12.667 -70.666 -38 -93.999s-60.333 -35 -105 -35c-68 0 -114.667 28.333 -140 85l53 29c16.667 -36 45.667 -54 87 -54c25.333 0 45.166 6.33301 59.499 19s21.5 29.334 21.5 50.001
c0 22.667 -7.16699 40.5 -21.5 53.5s-34.166 19.5 -59.499 19.5h-122l15 210h234v-58h-181l-6 -92h62z" />
    <glyph glyph-name="six.dnom" horiz-adv-x="335" 
d="M167 267c42 0 77.168 -13.332 105.501 -39.999s42.5 -59.667 42.5 -99s-14.167 -72.5 -42.5 -99.5s-63.5 -40.5 -105.5 -40.5s-77 13.5 -105 40.5s-42 60.167 -42 99.5c0 25.333 6.33301 48.666 19 69.999v1l3 3l1 2l125 196h75l-92 -134
c3.33301 0.666992 8.66602 1 15.999 1zM167.001 48.001c26 0 46.833 7.5 62.5 22.5s23.5 34.167 23.5 57.5s-7.83301 42.333 -23.5 57s-36.5 22 -62.5 22s-46.667 -7.33301 -62 -22s-23 -33.667 -23 -57s7.83301 -42.5 23.5 -57.5s36.167 -22.5 61.5 -22.5z" />
    <glyph glyph-name="seven.dnom" horiz-adv-x="296" 
d="M10 400h266v-50l-148 -350h-66l146 340h-198v60z" />
    <glyph glyph-name="eight.dnom" horiz-adv-x="335" 
d="M245 211c44 -23.333 66.001 -58.332 66.001 -104.999c0 -36 -13.167 -64.667 -39.5 -86s-60.833 -32 -103.5 -32s-77.334 10.667 -104.001 32s-40 50 -40 86c0 47.333 22 82 66 104c-35.333 21.333 -53 50.666 -53 87.999c0 35.333 12.5 63.166 37.5 83.499
s56.167 30.5 93.5 30.5c36.667 0 67.5 -10.167 92.5 -30.5s37.5 -48.166 37.5 -83.499c0 -37.333 -17.667 -66.333 -53 -87zM168.001 354.001c-22 0 -39 -5 -51 -15s-18 -23.667 -18 -41c0 -18 6 -32.333 18 -43s29 -16 51 -16c21.333 0 38 5.33301 50 16s18 25 18 43
c0 17.333 -5.83301 31 -17.5 41s-28.5 15 -50.5 15zM168.001 48.001c25.333 0 45.168 6 59.501 18s21.5 28 21.5 48s-7.33301 35.833 -22 47.5s-34.334 17.5 -59.001 17.5c-26.667 0 -47 -5.66699 -61 -17s-21 -27.333 -21 -48c0 -20 7.16699 -36 21.5 -48
s34.5 -18 60.5 -18z" />
    <glyph glyph-name="nine.dnom" horiz-adv-x="335" 
d="M296 202v-1.00098c-0.666992 -0.666992 -1.33398 -1.66699 -2.00098 -3l-2 -2l-125 -196h-75l92 134c-3.33301 -0.666992 -8.66602 -1 -15.999 -1c-42 0 -77.167 13.333 -105.5 40s-42.5 59.667 -42.5 99s14.167 72.5 42.5 99.5s63.5 40.5 105.5 40.5s77 -13.5 105 -40.5
s42 -60.167 42 -99.5c0 -25.333 -6.33301 -48.666 -19 -69.999zM82 271.999c0 -23.333 7.83301 -42.333 23.5 -57s36.5 -22 62.5 -22s46.667 7.33301 62 22s23 33.667 23 57s-7.83301 42.5 -23.5 57.5s-36.167 22.5 -61.5 22.5c-26 0 -46.833 -7.5 -62.5 -22.5
s-23.5 -34.167 -23.5 -57.5z" />
    <glyph glyph-name="zero.numr" horiz-adv-x="410" 
d="M205 288c-54.667 0 -97.5 19.333 -128.5 58s-46.5 90 -46.5 154s15.5 115.333 46.5 154s73.833 58 128.5 58s97.5 -19.333 128.5 -58s46.5 -90 46.5 -154s-15.5 -115.333 -46.5 -154s-73.833 -58 -128.5 -58zM205 348c35.333 0 63 13 83 39s30 63.667 30 113
s-10 87 -30 113s-47.667 39 -83 39s-63 -13 -83 -39s-30 -63.667 -30 -113s10 -87 30 -113s47.667 -39 83 -39z" />
    <glyph glyph-name="one.numr" horiz-adv-x="247" 
d="M126 700h53v-400h-62v332l-91 -27l-16 53z" />
    <glyph glyph-name="two.numr" horiz-adv-x="340" 
d="M31 300l0.000976562 51l168 154c28 24.667 42 53 42 85c0 18.667 -6.5 33.667 -19.5 45s-30.5 17 -52.5 17c-41.333 0 -70.333 -20.667 -87 -62l-52 29c25.333 62 71.666 93 138.999 93c40 0 72.333 -11.667 97 -35s37 -52.333 37 -87c0 -46 -20.667 -87.667 -62 -125
l-118 -105h188v-60h-280z" />
    <glyph glyph-name="three.numr" horiz-adv-x="352" 
d="M207 534c33.333 -6.66699 59.332 -20.166 77.999 -40.499s28 -45.833 28 -76.5c0 -38.667 -13.333 -69.834 -40 -93.501s-62 -35.5 -106 -35.5c-68 0 -115.333 28 -142 84l52 30c16.667 -36 46.667 -54 90 -54c26.667 0 47.334 6.16699 62.001 18.5s22 29.166 22 50.499
c0 20.667 -7.5 37.334 -22.5 50.001s-35.5 19 -61.5 19h-4l-31 47l90 107h-184v60h258v-60z" />
    <glyph glyph-name="four.numr" horiz-adv-x="354" 
d="M334 433v-58h-51v-75h-62v75h-206v58l149 267h67l-148 -267h138v96h62v-96h51z" />
    <glyph glyph-name="five.numr" horiz-adv-x="341" 
d="M162 550c42 0 76 -12.1689 102 -36.502s39 -56.5 39 -96.5c0 -39.333 -12.667 -70.666 -38 -93.999s-60.333 -35 -105 -35c-68 0 -114.667 28.333 -140 85l53 29c16.667 -36 45.667 -54 87 -54c25.333 0 45.166 6.33301 59.499 19s21.5 29.334 21.5 50.001
c0 22.667 -7.16699 40.5 -21.5 53.5s-34.166 19.5 -59.499 19.5h-122l15 210h234v-58h-181l-6 -92h62z" />
    <glyph glyph-name="six.numr" horiz-adv-x="335" 
d="M167 567c42 0 77.168 -13.332 105.501 -39.999s42.5 -59.667 42.5 -99s-14.167 -72.5 -42.5 -99.5s-63.5 -40.5 -105.5 -40.5s-77 13.5 -105 40.5s-42 60.167 -42 99.5c0 25.333 6.33301 48.666 19 69.999v1l3 3l1 2l125 196h75l-92 -134
c3.33301 0.666992 8.66602 1 15.999 1zM167.001 348.001c26 0 46.833 7.5 62.5 22.5s23.5 34.167 23.5 57.5s-7.83301 42.333 -23.5 57s-36.5 22 -62.5 22s-46.667 -7.33301 -62 -22s-23 -33.667 -23 -57s7.83301 -42.5 23.5 -57.5s36.167 -22.5 61.5 -22.5z" />
    <glyph glyph-name="seven.numr" horiz-adv-x="296" 
d="M10 700h266v-50l-148 -350h-66l146 340h-198v60z" />
    </font>
</defs>
</svg>
